Marhey-Regular.ufo
<glyph name="exclam" format="2">
	<advance width="302"/>
	<unicode hex="0021"/>
	<outline>
		<contour>
			<point x="104" y="197" type="curve"/>
			<point x="192" y="195" type="line"/>
			<point x="218" y="377"/>
			<point x="222" y="588"/>
			<point x="221" y="762" type="curve"/>
			<point x="84" y="743" type="line"/>
			<point x="100" y="585"/>
			<point x="109" y="343"/>
		</contour>
		<contour>
			<point x="85" y="2" type="curve"/>
			<point x="199" y="-6" type="line"/>
			<point x="204" y="31"/>
			<point x="207" y="81"/>
			<point x="203" y="115" type="curve"/>
			<point x="88" y="120" type="line"/>
			<point x="91" y="80"/>
			<point x="90" y="38"/>
		</contour>
	</outline>
</glyph>
<glyph name="numbersign" format="2">
	<advance width="799.5"/>
	<unicode hex="0023"/>
	<outline>
		<contour>
			<point x="147" y="9" type="curve"/>
			<point x="240" y="20" type="line"/>
			<point x="303" y="260"/>
			<point x="349" y="500"/>
			<point x="377" y="740" type="curve"/>
			<point x="257" y="728" type="line"/>
			<point x="238" y="488"/>
			<point x="201" y="249"/>
		</contour>
		<contour>
			<point x="725" y="203" type="curve"/>
			<point x="710" y="292" type="line"/>
			<point x="489" y="311"/>
			<point x="256" y="320"/>
			<point x="41" y="316" type="curve"/>
			<point x="69" y="216" type="line"/>
			<point x="279" y="223"/>
			<point x="509" y="219"/>
		</contour>
		<contour>
			<point x="759" y="465" type="curve"/>
			<point x="738" y="564" type="line"/>
			<point x="524" y="558"/>
			<point x="294" y="562"/>
			<point x="76" y="576" type="curve"/>
			<point x="92" y="493" type="line"/>
			<point x="312" y="474"/>
			<point x="545" y="464"/>
		</contour>
		<contour>
			<point x="455" y="25" type="curve"/>
			<point x="565" y="47" type="line"/>
			<point x="584" y="284"/>
			<point x="620" y="522"/>
			<point x="674" y="759" type="curve"/>
			<point x="575" y="750" type="line"/>
			<point x="515" y="508"/>
			<point x="479" y="267"/>
		</contour>
	</outline>
</glyph>
<glyph name="dollar" format="2">
	<advance width="666.75"/>
	<unicode hex="0024"/>
	<outline>
		<contour>
			<point x="273" y="-123" type="line"/>
			<point x="373" y="-106" type="line"/>
			<point x="365" y="62" type="line"/>
			<point x="290" y="51" type="line"/>
		</contour>
		<contour>
			<point x="299" y="706" type="line"/>
			<point x="374" y="717" type="line"/>
			<point x="392" y="846" type="line"/>
			<point x="291" y="829" type="line"/>
		</contour>
		<contour>
			<point x="340" y="-11" type="curve" smooth="yes"/>
			<point x="512" y="-11"/>
			<point x="626" y="64"/>
			<point x="626" y="212" type="curve" smooth="yes"/>
			<point x="626" y="454"/>
			<point x="213" y="377"/>
			<point x="214" y="598" type="curve" smooth="yes"/>
			<point x="215" y="664"/>
			<point x="274" y="697"/>
			<point x="357" y="697" type="curve" smooth="yes"/>
			<point x="414" y="697"/>
			<point x="490" y="668"/>
			<point x="553" y="617" type="curve"/>
			<point x="577" y="701" type="line"/>
			<point x="525" y="744"/>
			<point x="438" y="768"/>
			<point x="352" y="768" type="curve" smooth="yes"/>
			<point x="215" y="768"/>
			<point x="79" y="708"/>
			<point x="79" y="570" type="curve" smooth="yes"/>
			<point x="79" y="371"/>
			<point x="472" y="380"/>
			<point x="472" y="217" type="curve" smooth="yes"/>
			<point x="472" y="132"/>
			<point x="392" y="78"/>
			<point x="316" y="78" type="curve" smooth="yes"/>
			<point x="245" y="78"/>
			<point x="170" y="93"/>
			<point x="65" y="152" type="curve"/>
			<point x="41" y="40" type="line"/>
			<point x="145" y="8"/>
			<point x="249" y="-11"/>
		</contour>
	</outline>
</glyph>
<glyph name="percent" format="2">
	<advance width="841"/>
	<unicode hex="0025"/>
	<outline>
		<contour>
			<point x="183" y="369" type="curve" smooth="yes"/>
			<point x="254" y="369"/>
			<point x="329" y="433"/>
			<point x="329" y="561" type="curve" smooth="yes"/>
			<point x="329" y="689"/>
			<point x="254" y="754"/>
			<point x="185" y="754" type="curve" smooth="yes"/>
			<point x="115" y="754"/>
			<point x="41" y="690"/>
			<point x="41" y="559" type="curve" smooth="yes"/>
			<point x="41" y="432"/>
			<point x="114" y="369"/>
		</contour>
		<contour>
			<point x="183" y="450" type="curve" smooth="yes"/>
			<point x="146" y="450"/>
			<point x="121" y="487"/>
			<point x="121" y="570" type="curve" smooth="yes"/>
			<point x="121" y="647"/>
			<point x="143" y="688"/>
			<point x="184" y="688" type="curve" smooth="yes"/>
			<point x="227" y="688"/>
			<point x="251" y="647"/>
			<point x="251" y="571" type="curve" smooth="yes"/>
			<point x="251" y="493"/>
			<point x="224" y="450"/>
		</contour>
		<contour>
			<point x="264" y="-21" type="line"/>
			<point x="674" y="810" type="line"/>
			<point x="614" y="852" type="line"/>
			<point x="203" y="28" type="line"/>
		</contour>
		<contour>
			<point x="655" y="-6" type="curve" smooth="yes"/>
			<point x="726" y="-6"/>
			<point x="801" y="58"/>
			<point x="801" y="186" type="curve" smooth="yes"/>
			<point x="801" y="314"/>
			<point x="726" y="379"/>
			<point x="657" y="379" type="curve" smooth="yes"/>
			<point x="587" y="379"/>
			<point x="513" y="315"/>
			<point x="513" y="184" type="curve" smooth="yes"/>
			<point x="513" y="57"/>
			<point x="586" y="-6"/>
		</contour>
		<contour>
			<point x="655" y="74" type="curve" smooth="yes"/>
			<point x="619" y="74"/>
			<point x="594" y="113"/>
			<point x="594" y="195" type="curve" smooth="yes"/>
			<point x="594" y="273"/>
			<point x="615" y="313"/>
			<point x="656" y="313" type="curve" smooth="yes"/>
			<point x="700" y="313"/>
			<point x="724" y="272"/>
			<point x="724" y="196" type="curve" smooth="yes"/>
			<point x="724" y="117"/>
			<point x="696" y="74"/>
		</contour>
	</outline>
</glyph>
<glyph name="ampersand" format="2">
	<advance width="694.5"/>
	<unicode hex="0026"/>
	<outline>
		<contour>
			<point x="622" y="0" type="curve"/>
			<point x="654" y="163" type="line"/>
			<point x="441" y="296"/>
			<point x="230" y="514"/>
			<point x="230" y="620" type="curve" smooth="yes"/>
			<point x="230" y="672"/>
			<point x="254" y="695"/>
			<point x="290" y="695" type="curve" smooth="yes"/>
			<point x="342" y="695"/>
			<point x="419" y="643"/>
			<point x="482" y="561" type="curve"/>
			<point x="515" y="680" type="line"/>
			<point x="429" y="734"/>
			<point x="340" y="762"/>
			<point x="265" y="762" type="curve" smooth="yes"/>
			<point x="174" y="762"/>
			<point x="117" y="715"/>
			<point x="117" y="621" type="curve" smooth="yes"/>
			<point x="117" y="424"/>
			<point x="404" y="141"/>
		</contour>
		<contour>
			<point x="247" y="-21" type="curve" smooth="yes"/>
			<point x="340" y="-21"/>
			<point x="444" y="19"/>
			<point x="569" y="174" type="curve"/>
			<point x="507" y="232" type="line"/>
			<point x="419" y="124"/>
			<point x="366" y="86"/>
			<point x="308" y="85" type="curve" smooth="yes"/>
			<point x="235" y="85"/>
			<point x="193" y="125"/>
			<point x="193" y="187" type="curve" smooth="yes"/>
			<point x="193" y="241"/>
			<point x="222" y="311"/>
			<point x="293" y="380" type="curve"/>
			<point x="219" y="450" type="line"/>
			<point x="100" y="335"/>
			<point x="57" y="261"/>
			<point x="57" y="156" type="curve" smooth="yes"/>
			<point x="57" y="66"/>
			<point x="121" y="-21"/>
		</contour>
	</outline>
</glyph>
<glyph name="quotesingle" format="2">
	<advance width="235.75"/>
	<unicode hex="0027"/>
	<outline>
		<contour>
			<point x="78" y="461" type="line"/>
			<point x="145" y="472" type="line"/>
			<point x="170" y="746" type="line"/>
			<point x="66" y="729" type="line"/>
		</contour>
	</outline>
</glyph>
<glyph name="parenleft" format="2">
	<advance width="336"/>
	<unicode hex="0028"/>
	<outline>
		<contour>
			<point x="171" y="-118" type="curve"/>
			<point x="271" y="-74" type="line"/>
			<point x="193" y="35"/>
			<point x="155" y="181"/>
			<point x="155" y="323" type="curve" smooth="yes"/>
			<point x="155" y="485"/>
			<point x="204" y="642"/>
			<point x="296" y="734" type="curve"/>
			<point x="208" y="803" type="line"/>
			<point x="105" y="681"/>
			<point x="57" y="495"/>
			<point x="57" y="313" type="curve" smooth="yes"/>
			<point x="57" y="148"/>
			<point x="97" y="-13"/>
		</contour>
	</outline>
</glyph>
<glyph name="asterisk" format="2">
	<advance width="564.25"/>
	<unicode hex="002A"/>
	<outline>
		<contour>
			<point x="264" y="540" type="curve"/>
			<point x="309" y="551" type="line"/>
			<point x="312" y="635"/>
			<point x="323" y="700"/>
			<point x="353" y="757" type="curve"/>
			<point x="248" y="776" type="line"/>
			<point x="240" y="687"/>
			<point x="244" y="629"/>
		</contour>
		<contour>
			<point x="274" y="566" type="curve"/>
			<point x="298" y="527" type="line"/>
			<point x="379" y="550"/>
			<point x="444" y="560"/>
			<point x="508" y="548" type="curve"/>
			<point x="493" y="654" type="line"/>
			<point x="406" y="634"/>
			<point x="352" y="612"/>
		</contour>
		<contour>
			<point x="304" y="566" type="curve"/>
			<point x="274" y="531" type="line"/>
			<point x="322" y="462"/>
			<point x="351" y="403"/>
			<point x="360" y="339" type="curve"/>
			<point x="456" y="386" type="line"/>
			<point x="410" y="462"/>
			<point x="373" y="506"/>
		</contour>
		<contour>
			<point x="308" y="536" type="curve"/>
			<point x="266" y="554" type="line"/>
			<point x="215" y="488"/>
			<point x="168" y="442"/>
			<point x="109" y="414" type="curve"/>
			<point x="184" y="337" type="line"/>
			<point x="242" y="404"/>
			<point x="272" y="453"/>
		</contour>
		<contour>
			<point x="285" y="525" type="curve"/>
			<point x="289" y="571" type="line"/>
			<point x="210" y="599"/>
			<point x="151" y="630"/>
			<point x="107" y="677" type="curve"/>
			<point x="57" y="583" type="line"/>
			<point x="139" y="548"/>
			<point x="195" y="534"/>
		</contour>
	</outline>
</glyph>
<glyph name="plus" format="2">
	<advance width="513"/>
	<unicode hex="002B"/>
	<outline>
		<contour>
			<point x="473" y="299" type="curve"/>
			<point x="470" y="413" type="line"/>
			<point x="357" y="415"/>
			<point x="154" y="411"/>
			<point x="42" y="401" type="curve"/>
			<point x="41" y="314" type="line"/>
			<point x="155" y="315"/>
			<point x="358" y="310"/>
		</contour>
		<contour>
			<point x="186" y="121" type="curve"/>
			<point x="308" y="124" type="line"/>
			<point x="309" y="251"/>
			<point x="305" y="464"/>
			<point x="294" y="591" type="curve"/>
			<point x="201" y="592" type="line"/>
			<point x="202" y="463"/>
			<point x="197" y="250"/>
		</contour>
	</outline>
</glyph>
<glyph name="comma" format="2">
	<advance width="269.25"/>
	<unicode hex="002C"/>
	<outline>
		<contour>
			<point x="66" y="-70" type="curve"/>
			<point x="127" y="-144" type="line"/>
			<point x="174" y="-99"/>
			<point x="198" y="-53"/>
			<point x="200" y="2" type="curve" smooth="yes"/>
			<point x="200" y="49"/>
			<point x="203" y="88"/>
			<point x="203" y="134" type="curve"/>
			<point x="72" y="138" type="line"/>
			<point x="67" y="97"/>
			<point x="69" y="42"/>
			<point x="74" y="-1" type="curve"/>
			<point x="175" y="2" type="line"/>
			<point x="153" y="15" type="line"/>
			<point x="144" y="-1"/>
			<point x="109" y="-45"/>
		</contour>
	</outline>
</glyph>
<glyph name="hyphen" format="2">
	<advance width="423.5"/>
	<unicode hex="002D"/>
	<outline>
		<contour>
			<point x="383" y="226" type="curve"/>
			<point x="381" y="346" type="line"/>
			<point x="268" y="348"/>
			<point x="154" y="344"/>
			<point x="42" y="333" type="curve"/>
			<point x="41" y="241" type="line"/>
			<point x="155" y="243"/>
			<point x="268" y="238"/>
		</contour>
	</outline>
</glyph>
<glyph name="period" format="2">
	<advance width="266.25"/>
	<unicode hex="002E"/>
	<outline>
		<contour>
			<point x="71" y="-1" type="curve"/>
			<point x="197" y="2" type="line"/>
			<point x="195" y="49"/>
			<point x="198" y="90"/>
			<point x="200" y="136" type="curve"/>
			<point x="69" y="138" type="line"/>
			<point x="65" y="97"/>
			<point x="66" y="42"/>
		</contour>
	</outline>
</glyph>
<glyph name="slash" format="2">
	<advance width="545.5"/>
	<unicode hex="002F"/>
	<outline>
		<contour>
			<point x="100" y="-30" type="line"/>
			<point x="505" y="810" type="line"/>
			<point x="434" y="861" type="line"/>
			<point x="41" y="25" type="line"/>
		</contour>
	</outline>
</glyph>
<glyph name="zero" format="2">
	<advance width="690"/>
	<unicode hex="0030"/>
	<outline>
		<contour>
			<point x="342" y="-13" type="curve" smooth="yes"/>
			<point x="484" y="-13"/>
			<point x="633" y="116"/>
			<point x="633" y="372" type="curve" smooth="yes"/>
			<point x="633" y="628"/>
			<point x="484" y="758"/>
			<point x="345" y="758" type="curve" smooth="yes"/>
			<point x="205" y="758"/>
			<point x="57" y="629"/>
			<point x="57" y="368" type="curve" smooth="yes"/>
			<point x="57" y="113"/>
			<point x="204" y="-13"/>
		</contour>
		<contour>
			<point x="340" y="97" type="curve" smooth="yes"/>
			<point x="248" y="97"/>
			<point x="186" y="191"/>
			<point x="186" y="396" type="curve" smooth="yes"/>
			<point x="186" y="586"/>
			<point x="241" y="688"/>
			<point x="344" y="688" type="curve" smooth="yes"/>
			<point x="451" y="688"/>
			<point x="511" y="587"/>
			<point x="511" y="399" type="curve" smooth="yes"/>
			<point x="511" y="204"/>
			<point x="444" y="97"/>
		</contour>
	</outline>
</glyph>
<glyph name="one" format="2">
	<advance width="544.25"/>
	<unicode hex="0031"/>
	<outline>
		<contour>
			<point x="248" y="10" type="curve"/>
			<point x="341" y="40" type="line"/>
			<point x="363" y="290"/>
			<point x="371" y="507"/>
			<point x="368" y="754" type="curve"/>
			<point x="259" y="742" type="line"/>
			<point x="224" y="656" type="line"/>
			<point x="239" y="476"/>
			<point x="249" y="8"/>
		</contour>
		<contour>
			<point x="483" y="-39" type="curve"/>
			<point x="504" y="85" type="line"/>
			<point x="383" y="122"/>
			<point x="198" y="113"/>
			<point x="47" y="58" type="curve"/>
			<point x="57" y="-12" type="line"/>
			<point x="162" y="6"/>
			<point x="331" y="8"/>
		</contour>
		<contour>
			<point x="62" y="504" type="line"/>
			<point x="318" y="696" type="line"/>
			<point x="259" y="742" type="line"/>
			<point x="42" y="609" type="line"/>
		</contour>
	</outline>
</glyph>
<glyph name="two" format="2">
	<advance width="652.25"/>
	<unicode hex="0032"/>
	<outline>
		<contour>
			<point x="41" y="50" type="curve"/>
			<point x="127" y="39" type="line"/>
			<point x="440" y="283"/>
			<point x="580" y="447"/>
			<point x="580" y="571" type="curve" smooth="yes"/>
			<point x="580" y="715"/>
			<point x="466" y="758"/>
			<point x="327" y="758" type="curve" smooth="yes"/>
			<point x="246" y="758"/>
			<point x="166" y="742"/>
			<point x="85" y="717" type="curve"/>
			<point x="113" y="587" type="line"/>
			<point x="189" y="637"/>
			<point x="241" y="667"/>
			<point x="313" y="667" type="curve" smooth="yes"/>
			<point x="377" y="667"/>
			<point x="441" y="642"/>
			<point x="441" y="569" type="curve" smooth="yes"/>
			<point x="441" y="446"/>
			<point x="237" y="209"/>
		</contour>
		<contour>
			<point x="586" y="-34" type="curve"/>
			<point x="612" y="95" type="line"/>
			<point x="461" y="112"/>
			<point x="211" y="124"/>
			<point x="41" y="50" type="curve"/>
			<point x="53" y="-12" type="line"/>
			<point x="198" y="9"/>
			<point x="415" y="2"/>
		</contour>
	</outline>
</glyph>
<glyph name="three" format="2">
	<advance width="663.75"/>
	<unicode hex="0033"/>
	<outline>
		<contour>
			<point x="139" y="367" type="curve"/>
			<point x="160" y="270" type="line"/>
			<point x="394" y="326"/>
			<point x="535" y="457"/>
			<point x="535" y="574" type="curve" smooth="yes"/>
			<point x="535" y="676"/>
			<point x="458" y="759"/>
			<point x="323" y="759" type="curve" smooth="yes"/>
			<point x="234" y="759"/>
			<point x="138" y="741"/>
			<point x="66" y="717" type="curve"/>
			<point x="81" y="584" type="line"/>
			<point x="170" y="634"/>
			<point x="256" y="655"/>
			<point x="324" y="655" type="curve" smooth="yes"/>
			<point x="406" y="655"/>
			<point x="436" y="615"/>
			<point x="436" y="575" type="curve" smooth="yes"/>
			<point x="436" y="491"/>
			<point x="330" y="408"/>
		</contour>
		<contour>
			<point x="250" y="-13" type="curve" smooth="yes"/>
			<point x="492" y="-13"/>
			<point x="607" y="87"/>
			<point x="607" y="196" type="curve" smooth="yes"/>
			<point x="607" y="288"/>
			<point x="537" y="371"/>
			<point x="394" y="371" type="curve" smooth="yes"/>
			<point x="354" y="371"/>
			<point x="309" y="366"/>
			<point x="257" y="353" type="curve"/>
			<point x="168" y="272" type="line"/>
			<point x="198" y="281"/>
			<point x="250" y="289"/>
			<point x="303" y="289" type="curve" smooth="yes"/>
			<point x="424" y="289"/>
			<point x="485" y="237"/>
			<point x="485" y="185" type="curve" smooth="yes"/>
			<point x="485" y="132"/>
			<point x="424" y="74"/>
			<point x="299" y="74" type="curve" smooth="yes"/>
			<point x="240" y="74"/>
			<point x="152" y="88"/>
			<point x="50" y="125" type="curve"/>
			<point x="41" y="13" type="line"/>
			<point x="113" y="-5"/>
			<point x="192" y="-13"/>
		</contour>
	</outline>
</glyph>
<glyph name="four" format="2">
	<advance width="687"/>
	<unicode hex="0034"/>
	<outline>
		<contour>
			<point x="41" y="260" type="curve"/>
			<point x="107" y="240" type="line"/>
			<point x="288" y="335"/>
			<point x="477" y="595"/>
			<point x="468" y="724" type="curve"/>
			<point x="354" y="713" type="line"/>
			<point x="354" y="609"/>
			<point x="226" y="368"/>
		</contour>
		<contour>
			<point x="553" y="177" type="curve"/>
			<point x="592" y="310" type="line"/>
			<point x="422" y="317"/>
			<point x="256" y="316"/>
			<point x="41" y="260" type="curve"/>
			<point x="53" y="192" type="line"/>
			<point x="187" y="207"/>
			<point x="377" y="208"/>
		</contour>
		<contour>
			<point x="486" y="0" type="curve"/>
			<point x="590" y="21" type="line"/>
			<point x="609" y="245"/>
			<point x="611" y="362"/>
			<point x="598" y="574" type="curve"/>
			<point x="459" y="545" type="line"/>
			<point x="494" y="316"/>
			<point x="491" y="222"/>
		</contour>
	</outline>
</glyph>
<glyph name="five" format="2">
	<advance width="613.75"/>
	<unicode hex="0035"/>
	<outline>
		<contour>
			<point x="220" y="-16" type="curve" smooth="yes"/>
			<point x="390" y="-16"/>
			<point x="557" y="37"/>
			<point x="557" y="210" type="curve" smooth="yes"/>
			<point x="557" y="416"/>
			<point x="337" y="447"/>
			<point x="161" y="402" type="curve"/>
			<point x="107" y="334" type="line"/>
			<point x="240" y="362"/>
			<point x="436" y="346"/>
			<point x="436" y="205" type="curve" smooth="yes"/>
			<point x="436" y="107"/>
			<point x="327" y="82"/>
			<point x="235" y="82" type="curve" smooth="yes"/>
			<point x="189" y="82"/>
			<point x="112" y="96"/>
			<point x="50" y="110" type="curve"/>
			<point x="42" y="8" type="line"/>
			<point x="103" y="-7"/>
			<point x="178" y="-16"/>
		</contour>
		<contour>
			<point x="82" y="328" type="curve"/>
			<point x="195" y="352" type="line"/>
			<point x="163" y="493"/>
			<point x="152" y="551"/>
			<point x="154" y="699" type="curve"/>
			<point x="52" y="720" type="line"/>
			<point x="39" y="645"/>
			<point x="55" y="436"/>
		</contour>
		<contour>
			<point x="502" y="620" type="curve"/>
			<point x="473" y="747" type="line"/>
			<point x="316" y="707"/>
			<point x="199" y="698"/>
			<point x="52" y="720" type="curve"/>
			<point x="52" y="654" type="line"/>
			<point x="260" y="601"/>
			<point x="330" y="610"/>
		</contour>
	</outline>
</glyph>
<glyph name="six" format="2">
	<advance width="681.5"/>
	<unicode hex="0036"/>
	<outline>
		<contour>
			<point x="335" y="-10" type="curve" smooth="yes"/>
			<point x="479" y="-10"/>
			<point x="625" y="85"/>
			<point x="625" y="262" type="curve" smooth="yes"/>
			<point x="625" y="433"/>
			<point x="503" y="508"/>
			<point x="358" y="508" type="curve" smooth="yes"/>
			<point x="289" y="508"/>
			<point x="214" y="490"/>
			<point x="146" y="457" type="curve"/>
			<point x="143" y="324" type="line"/>
			<point x="198" y="400"/>
			<point x="273" y="437"/>
			<point x="341" y="437" type="curve" smooth="yes"/>
			<point x="426" y="437"/>
			<point x="500" y="378"/>
			<point x="500" y="266" type="curve" smooth="yes"/>
			<point x="500" y="158"/>
			<point x="436" y="72"/>
			<point x="344" y="72" type="curve" smooth="yes"/>
			<point x="279" y="72"/>
			<point x="185" y="125"/>
			<point x="185" y="269" type="curve" smooth="yes"/>
			<point x="185" y="442"/>
			<point x="318" y="632"/>
			<point x="450" y="725" type="curve"/>
			<point x="371" y="760" type="line"/>
			<point x="144" y="614"/>
			<point x="57" y="427"/>
			<point x="57" y="274" type="curve" smooth="yes"/>
			<point x="57" y="80"/>
			<point x="195" y="-10"/>
		</contour>
	</outline>
</glyph>
<glyph name="seven" format="2">
	<advance width="623.25"/>
	<unicode hex="0037"/>
	<outline>
		<contour>
			<point x="131" y="-12" type="curve"/>
			<point x="294" y="1" type="line"/>
			<point x="319" y="136"/>
			<point x="404" y="341"/>
			<point x="583" y="668" type="curve"/>
			<point x="538" y="695" type="line"/>
			<point x="287" y="334"/>
			<point x="161" y="126"/>
		</contour>
		<contour>
			<point x="66" y="759" type="curve"/>
			<point x="41" y="619" type="line"/>
			<point x="198" y="608"/>
			<point x="382" y="600"/>
			<point x="583" y="668" type="curve"/>
			<point x="573" y="732" type="line"/>
			<point x="447" y="714"/>
			<point x="249" y="712"/>
		</contour>
	</outline>
</glyph>
<glyph name="eight" format="2">
	<advance width="681.5"/>
	<unicode hex="0038"/>
	<outline>
		<contour>
			<point x="326" y="-10" type="curve" smooth="yes"/>
			<point x="473" y="-10"/>
			<point x="625" y="69"/>
			<point x="625" y="217" type="curve" smooth="yes"/>
			<point x="625" y="357"/>
			<point x="480" y="433"/>
			<point x="338" y="433" type="curve" smooth="yes"/>
			<point x="196" y="433"/>
			<point x="57" y="360"/>
			<point x="57" y="207" type="curve" smooth="yes"/>
			<point x="57" y="60"/>
			<point x="190" y="-10"/>
		</contour>
		<contour>
			<point x="341" y="53" type="curve" smooth="yes"/>
			<point x="258" y="53"/>
			<point x="181" y="100"/>
			<point x="181" y="199" type="curve" smooth="yes"/>
			<point x="181" y="306"/>
			<point x="258" y="358"/>
			<point x="341" y="358" type="curve" smooth="yes"/>
			<point x="423" y="358"/>
			<point x="508" y="302"/>
			<point x="508" y="197" type="curve" smooth="yes"/>
			<point x="508" y="103"/>
			<point x="423" y="53"/>
		</contour>
		<contour>
			<point x="325" y="361" type="curve" smooth="yes"/>
			<point x="457" y="361"/>
			<point x="594" y="431"/>
			<point x="594" y="563" type="curve" smooth="yes"/>
			<point x="594" y="686"/>
			<point x="462" y="753"/>
			<point x="330" y="753" type="curve" smooth="yes"/>
			<point x="203" y="753"/>
			<point x="78" y="690"/>
			<point x="78" y="554" type="curve" smooth="yes"/>
			<point x="78" y="423"/>
			<point x="199" y="361"/>
		</contour>
		<contour>
			<point x="334" y="433" type="curve" smooth="yes"/>
			<point x="263" y="433"/>
			<point x="196" y="474"/>
			<point x="196" y="565" type="curve" smooth="yes"/>
			<point x="196" y="644"/>
			<point x="266" y="693"/>
			<point x="336" y="693" type="curve" smooth="yes"/>
			<point x="409" y="693"/>
			<point x="482" y="649"/>
			<point x="482" y="563" type="curve" smooth="yes"/>
			<point x="482" y="480"/>
			<point x="407" y="433"/>
		</contour>
	</outline>
</glyph>
<glyph name="nine" format="2">
	<advance width="681.5"/>
	<unicode hex="0039"/>
	<outline>
		<contour>
			<point x="232" y="25" type="curve"/>
			<point x="311" y="-10" type="line"/>
			<point x="538" y="136"/>
			<point x="625" y="323"/>
			<point x="625" y="476" type="curve" smooth="yes"/>
			<point x="625" y="670"/>
			<point x="487" y="760"/>
			<point x="347" y="760" type="curve" smooth="yes"/>
			<point x="203" y="760"/>
			<point x="57" y="665"/>
			<point x="57" y="488" type="curve" smooth="yes"/>
			<point x="57" y="318"/>
			<point x="179" y="242"/>
			<point x="324" y="242" type="curve" smooth="yes"/>
			<point x="393" y="242"/>
			<point x="468" y="260"/>
			<point x="536" y="293" type="curve"/>
			<point x="539" y="426" type="line"/>
			<point x="484" y="351"/>
			<point x="408" y="313"/>
			<point x="341" y="313" type="curve" smooth="yes"/>
			<point x="255" y="313"/>
			<point x="182" y="372"/>
			<point x="182" y="484" type="curve" smooth="yes"/>
			<point x="182" y="592"/>
			<point x="246" y="678"/>
			<point x="338" y="678" type="curve" smooth="yes"/>
			<point x="402" y="678"/>
			<point x="497" y="626"/>
			<point x="497" y="482" type="curve" smooth="yes"/>
			<point x="497" y="308"/>
			<point x="364" y="119"/>
		</contour>
	</outline>
</glyph>
<glyph name="equal" format="2">
	<advance width="459"/>
	<unicode hex="003D"/>
	<outline>
		<contour>
			<point x="419" y="196" type="curve"/>
			<point x="416" y="317" type="line"/>
			<point x="304" y="319"/>
			<point x="172" y="315"/>
			<point x="59" y="304" type="curve"/>
			<point x="58" y="211" type="line"/>
			<point x="173" y="212"/>
			<point x="304" y="207"/>
		</contour>
		<contour>
			<point x="44" y="517" type="curve"/>
			<point x="41" y="396" type="line"/>
			<point x="155" y="407"/>
			<point x="286" y="412"/>
			<point x="401" y="411" type="curve"/>
			<point x="400" y="504" type="line"/>
			<point x="287" y="515"/>
			<point x="156" y="519"/>
		</contour>
	</outline>
</glyph>
<glyph name="greater" format="2">
	<advance width="455.25"/>
	<unicode hex="003E"/>
	<outline>
		<contour>
			<point x="410" y="310" type="line"/>
			<point x="415" y="395" type="line"/>
			<point x="80" y="627" type="line"/>
			<point x="41" y="520" type="line"/>
		</contour>
		<contour>
			<point x="89" y="48" type="line"/>
			<point x="410" y="310" type="line"/>
			<point x="363" y="380" type="line"/>
			<point x="51" y="162" type="line"/>
		</contour>
	</outline>
</glyph>
<glyph name="question" format="2">
	<advance width="514.75"/>
	<unicode hex="003F"/>
	<outline>
		<contour>
			<point x="140" y="177" type="curve"/>
			<point x="229" y="164" type="line"/>
			<point x="229" y="385"/>
			<point x="458" y="388"/>
			<point x="458" y="587" type="curve" smooth="yes"/>
			<point x="458" y="698"/>
			<point x="379" y="757"/>
			<point x="263" y="757" type="curve" smooth="yes"/>
			<point x="193" y="757"/>
			<point x="116" y="736"/>
			<point x="41" y="699" type="curve"/>
			<point x="89" y="558" type="line"/>
			<point x="147" y="615"/>
			<point x="199" y="659"/>
			<point x="251" y="659" type="curve" smooth="yes"/>
			<point x="286" y="659"/>
			<point x="331" y="645"/>
			<point x="331" y="578" type="curve" smooth="yes"/>
			<point x="331" y="438"/>
			<point x="147" y="420"/>
		</contour>
		<contour>
			<point x="124" y="2" type="curve"/>
			<point x="237" y="-6" type="line"/>
			<point x="242" y="30"/>
			<point x="246" y="81"/>
			<point x="241" y="115" type="curve"/>
			<point x="126" y="120" type="line"/>
			<point x="130" y="80"/>
			<point x="128" y="40"/>
		</contour>
	</outline>
</glyph>
<glyph name="at" format="2">
	<advance width="957"/>
	<unicode hex="0040"/>
	<outline>
		<contour>
			<point x="480" y="-77" type="curve"/>
			<point x="496" y="13" type="line"/>
			<point x="241" y="20"/>
			<point x="145" y="190"/>
			<point x="145" y="340" type="curve" smooth="yes"/>
			<point x="145" y="502"/>
			<point x="256" y="690"/>
			<point x="497" y="690" type="curve" smooth="yes"/>
			<point x="727" y="690"/>
			<point x="807" y="540"/>
			<point x="807" y="421" type="curve" smooth="yes"/>
			<point x="807" y="290"/>
			<point x="749" y="234"/>
			<point x="697" y="234" type="curve" smooth="yes"/>
			<point x="638" y="234"/>
			<point x="627" y="346"/>
			<point x="628" y="403" type="curve" smooth="yes"/>
			<point x="628" y="462"/>
			<point x="638" y="502"/>
			<point x="655" y="597" type="curve"/>
			<point x="536" y="599" type="line"/>
			<point x="524" y="553"/>
			<point x="509" y="462"/>
			<point x="509" y="373" type="curve" smooth="yes"/>
			<point x="509" y="248"/>
			<point x="539" y="124"/>
			<point x="654" y="124" type="curve" smooth="yes"/>
			<point x="763" y="124"/>
			<point x="900" y="239"/>
			<point x="900" y="409" type="curve" smooth="yes"/>
			<point x="900" y="585"/>
			<point x="775" y="763"/>
			<point x="489" y="763" type="curve" smooth="yes"/>
			<point x="221" y="763"/>
			<point x="57" y="559"/>
			<point x="57" y="345" type="curve" smooth="yes"/>
			<point x="57" y="124"/>
			<point x="210" y="-77"/>
		</contour>
		<contour>
			<point x="366" y="146" type="curve" smooth="yes"/>
			<point x="459" y="146"/>
			<point x="567" y="241"/>
			<point x="590" y="453" type="curve"/>
			<point x="546" y="440" type="line"/>
			<point x="540" y="321"/>
			<point x="471" y="240"/>
			<point x="411" y="240" type="curve" smooth="yes"/>
			<point x="365" y="240"/>
			<point x="344" y="276"/>
			<point x="344" y="321" type="curve" smooth="yes"/>
			<point x="344" y="423"/>
			<point x="436" y="549"/>
			<point x="550" y="537" type="curve"/>
			<point x="537" y="599" type="line"/>
			<point x="345" y="590"/>
			<point x="229" y="417"/>
			<point x="229" y="289" type="curve" smooth="yes"/>
			<point x="229" y="209"/>
			<point x="272" y="146"/>
		</contour>
	</outline>
</glyph>
<glyph name="A" format="2">
	<advance width="760"/>
	<unicode hex="0041"/>
	<anchor x="385" y="0" name="bottom"/>
	<anchor x="626" y="16" name="ogonek"/>
	<anchor x="410" y="800" name="top"/>
	<outline>
		<contour>
			<point x="519" y="-1" type="curve"/>
			<point x="659" y="14" type="line"/>
			<point x="713" y="435"/>
			<point x="649" y="766"/>
			<point x="408" y="766" type="curve" smooth="yes"/>
			<point x="144" y="766"/>
			<point x="62" y="442"/>
			<point x="87" y="-7" type="curve"/>
			<point x="239" y="7" type="line"/>
			<point x="206" y="251"/>
			<point x="205" y="697"/>
			<point x="408" y="697" type="curve" smooth="yes"/>
			<point x="628" y="697"/>
			<point x="542" y="152"/>
		</contour>
		<contour>
			<point x="171" y="279" type="curve"/>
			<point x="137" y="190" type="line"/>
			<point x="311" y="172"/>
			<point x="473" y="174"/>
			<point x="616" y="210" type="curve"/>
			<point x="606" y="277" type="line"/>
			<point x="484" y="256"/>
			<point x="331" y="240"/>
		</contour>
	</outline>
</glyph>
<glyph name="B" format="2">
	<advance width="759.75"/>
	<unicode hex="0042"/>
	<outline>
		<contour>
			<point x="189" y="365" type="curve"/>
			<point x="221" y="306" type="line"/>
			<point x="525" y="378"/>
			<point x="637" y="487"/>
			<point x="637" y="629" type="curve" smooth="yes"/>
			<point x="637" y="724"/>
			<point x="582" y="791"/>
			<point x="475" y="791" type="curve" smooth="yes"/>
			<point x="374" y="791"/>
			<point x="241" y="723"/>
			<point x="190" y="583" type="curve"/>
			<point x="213" y="520" type="line"/>
			<point x="252" y="630"/>
			<point x="355" y="672"/>
			<point x="425" y="672" type="curve" smooth="yes"/>
			<point x="481" y="672"/>
			<point x="517" y="638"/>
			<point x="517" y="595" type="curve" smooth="yes"/>
			<point x="517" y="515"/>
			<point x="450" y="438"/>
		</contour>
		<contour>
			<point x="107" y="-5" type="curve"/>
			<point x="229" y="0" type="line"/>
			<point x="244" y="270"/>
			<point x="246" y="455"/>
			<point x="235" y="753" type="curve"/>
			<point x="83" y="729" type="line"/>
			<point x="109" y="511"/>
			<point x="116" y="264"/>
		</contour>
		<contour>
			<point x="181" y="75" type="curve"/>
			<point x="229" y="0" type="line"/>
			<point x="562" y="8"/>
			<point x="703" y="120"/>
			<point x="703" y="268" type="curve" smooth="yes"/>
			<point x="703" y="468"/>
			<point x="421" y="456"/>
			<point x="222" y="341" type="curve"/>
			<point x="218" y="295" type="line"/>
			<point x="337" y="336"/>
			<point x="564" y="384"/>
			<point x="564" y="241" type="curve" smooth="yes"/>
			<point x="564" y="159"/>
			<point x="456" y="75"/>
		</contour>
	</outline>
</glyph>
<glyph name="C" format="2">
	<advance width="685.25"/>
	<unicode hex="0043"/>
	<anchor x="438" y="-2" name="bottom"/>
	<anchor x="458" y="28" name="cedilla"/>
	<anchor x="464" y="800" name="top"/>
	<outline>
		<contour>
			<point x="419" y="-2" type="curve" smooth="yes"/>
			<point x="487" y="-2"/>
			<point x="556" y="11"/>
			<point x="620" y="48" type="curve"/>
			<point x="619" y="120" type="line"/>
			<point x="561" y="91"/>
			<point x="507" y="77"/>
			<point x="433" y="77" type="curve" smooth="yes"/>
			<point x="315" y="77"/>
			<point x="199" y="163"/>
			<point x="199" y="351" type="curve" smooth="yes"/>
			<point x="199" y="519"/>
			<point x="315" y="635"/>
			<point x="464" y="635" type="curve" smooth="yes"/>
			<point x="518" y="635"/>
			<point x="575" y="625"/>
			<point x="631" y="599" type="curve"/>
			<point x="645" y="700" type="line"/>
			<point x="594" y="731"/>
			<point x="524" y="748"/>
			<point x="450" y="748" type="curve" smooth="yes"/>
			<point x="265" y="748"/>
			<point x="57" y="638"/>
			<point x="57" y="356" type="curve" smooth="yes"/>
			<point x="57" y="138"/>
			<point x="230" y="-2"/>
		</contour>
	</outline>
</glyph>
<glyph name="D" format="2">
	<advance width="769"/>
	<unicode hex="0044"/>
	<anchor x="241" y="0" name="bottom"/>
	<anchor x="241" y="325" name="center"/>
	<anchor x="396" y="800" name="top"/>
	<outline>
		<contour>
			<point x="119" y="555" type="curve"/>
			<point x="166" y="481" type="line"/>
			<point x="253" y="631"/>
			<point x="379" y="663"/>
			<point x="451" y="663" type="curve" smooth="yes"/>
			<point x="545" y="663"/>
			<point x="580" y="576"/>
			<point x="580" y="502" type="curve" smooth="yes"/>
			<point x="580" y="358"/>
			<point x="433" y="145"/>
			<point x="215" y="70" type="curve"/>
			<point x="229" y="0" type="line"/>
			<point x="520" y="93"/>
			<point x="713" y="333"/>
			<point x="713" y="516" type="curve" smooth="yes"/>
			<point x="713" y="662"/>
			<point x="630" y="758"/>
			<point x="493" y="758" type="curve" smooth="yes"/>
			<point x="362" y="758"/>
			<point x="213" y="691"/>
		</contour>
		<contour>
			<point x="107" y="-5" type="curve"/>
			<point x="229" y="0" type="line"/>
			<point x="244" y="270"/>
			<point x="246" y="455"/>
			<point x="235" y="753" type="curve"/>
			<point x="83" y="729" type="line"/>
			<point x="109" y="513"/>
			<point x="116" y="265"/>
		</contour>
	</outline>
</glyph>
<glyph name="E" format="2">
	<advance width="633"/>
	<unicode hex="0045"/>
	<anchor x="351" y="-30" name="bottom"/>
	<anchor x="566" y="7" name="ogonek"/>
	<anchor x="351" y="800" name="top"/>
	<outline>
		<contour>
			<point x="100" y="15" type="curve"/>
			<point x="218" y="33" type="line"/>
			<point x="234" y="298"/>
			<point x="244" y="450"/>
			<point x="232" y="733" type="curve"/>
			<point x="83" y="736" type="line"/>
			<point x="109" y="516"/>
			<point x="113" y="258"/>
		</contour>
		<contour>
			<point x="593" y="-5" type="curve"/>
			<point x="593" y="103" type="line"/>
			<point x="443" y="86"/>
			<point x="256" y="76"/>
			<point x="146" y="88" type="curve"/>
			<point x="100" y="15" type="line"/>
			<point x="241" y="3"/>
			<point x="485" y="-5"/>
		</contour>
		<contour>
			<point x="477" y="315" type="curve"/>
			<point x="474" y="409" type="line"/>
			<point x="393" y="407"/>
			<point x="286" y="403"/>
			<point x="180" y="389" type="curve"/>
			<point x="180" y="317" type="line"/>
			<point x="300" y="327"/>
			<point x="389" y="326"/>
		</contour>
		<contour>
			<point x="575" y="659" type="curve"/>
			<point x="575" y="770" type="line"/>
			<point x="471" y="767"/>
			<point x="196" y="749"/>
			<point x="83" y="736" type="curve"/>
			<point x="168" y="663" type="line"/>
			<point x="239" y="669"/>
			<point x="426" y="683"/>
		</contour>
	</outline>
</glyph>
<glyph name="F" format="2">
	<advance width="597"/>
	<unicode hex="0046"/>
	<outline>
		<contour>
			<point x="100" y="4" type="curve"/>
			<point x="218" y="23" type="line"/>
			<point x="234" y="288"/>
			<point x="246" y="450"/>
			<point x="235" y="733" type="curve"/>
			<point x="83" y="736" type="line"/>
			<point x="109" y="516"/>
			<point x="113" y="247"/>
		</contour>
		<contour>
			<point x="460" y="315" type="curve"/>
			<point x="459" y="409" type="line"/>
			<point x="382" y="404"/>
			<point x="283" y="402"/>
			<point x="177" y="395" type="curve"/>
			<point x="177" y="322" type="line"/>
			<point x="290" y="326"/>
			<point x="375" y="322"/>
		</contour>
		<contour>
			<point x="552" y="659" type="curve"/>
			<point x="557" y="770" type="line"/>
			<point x="457" y="767"/>
			<point x="192" y="749"/>
			<point x="83" y="736" type="curve"/>
			<point x="165" y="663" type="line"/>
			<point x="233" y="669"/>
			<point x="408" y="686"/>
		</contour>
	</outline>
</glyph>
<glyph name="G" format="2">
	<advance width="786.5"/>
	<unicode hex="0047"/>
	<anchor x="369" y="-30" name="bottom"/>
	<anchor x="492" y="800" name="top"/>
	<outline>
		<contour>
			<point x="370" y="0" type="curve" smooth="yes"/>
			<point x="539" y="0"/>
			<point x="730" y="144"/>
			<point x="730" y="301" type="curve" smooth="yes"/>
			<point x="730" y="413"/>
			<point x="667" y="461"/>
			<point x="573" y="461" type="curve" smooth="yes"/>
			<point x="519" y="461"/>
			<point x="453" y="443"/>
			<point x="383" y="401" type="curve"/>
			<point x="418" y="272" type="line"/>
			<point x="467" y="310"/>
			<point x="540" y="347"/>
			<point x="594" y="347" type="curve" smooth="yes"/>
			<point x="636" y="347"/>
			<point x="661" y="326"/>
			<point x="661" y="279" type="curve" smooth="yes"/>
			<point x="661" y="205"/>
			<point x="553" y="108"/>
			<point x="395" y="108" type="curve" smooth="yes"/>
			<point x="277" y="108"/>
			<point x="191" y="188"/>
			<point x="191" y="324" type="curve" smooth="yes"/>
			<point x="191" y="534"/>
			<point x="332" y="673"/>
			<point x="478" y="673" type="curve" smooth="yes"/>
			<point x="537" y="673"/>
			<point x="583" y="666"/>
			<point x="633" y="645" type="curve"/>
			<point x="633" y="729" type="line"/>
			<point x="582" y="746"/>
			<point x="532" y="754"/>
			<point x="484" y="754" type="curve" smooth="yes"/>
			<point x="226" y="754"/>
			<point x="57" y="518"/>
			<point x="57" y="312" type="curve" smooth="yes"/>
			<point x="57" y="147"/>
			<point x="149" y="0"/>
		</contour>
	</outline>
</glyph>
<glyph name="H" format="2">
	<advance width="820.5"/>
	<unicode hex="0048"/>
	<outline>
		<contour>
			<point x="107" y="-11" type="curve"/>
			<point x="220" y="10" type="line"/>
			<point x="243" y="254"/>
			<point x="247" y="511"/>
			<point x="235" y="760" type="curve"/>
			<point x="83" y="732" type="line"/>
			<point x="112" y="470"/>
			<point x="116" y="256"/>
		</contour>
		<contour>
			<point x="717" y="337" type="curve"/>
			<point x="684" y="432" type="line"/>
			<point x="538" y="374"/>
			<point x="241" y="383"/>
			<point x="135" y="397" type="curve"/>
			<point x="128" y="334" type="line"/>
			<point x="259" y="309"/>
			<point x="551" y="308"/>
		</contour>
		<contour>
			<point x="606" y="-10" type="curve"/>
			<point x="719" y="13" type="line"/>
			<point x="741" y="261"/>
			<point x="743" y="508"/>
			<point x="729" y="755" type="curve"/>
			<point x="577" y="726" type="line"/>
			<point x="611" y="454"/>
			<point x="612" y="270"/>
		</contour>
	</outline>
</glyph>
<glyph name="I" format="2">
	<advance width="325.5"/>
	<unicode hex="0049"/>
	<anchor x="174" y="-30" name="bottom"/>
	<anchor x="214" y="9" name="ogonek"/>
	<anchor x="147" y="800" name="top"/>
	<outline>
		<contour>
			<point x="107" y="-10" type="curve"/>
			<point x="218" y="10" type="line"/>
			<point x="241" y="254"/>
			<point x="249" y="509"/>
			<point x="236" y="758" type="curve"/>
			<point x="83" y="732" type="line"/>
			<point x="114" y="472"/>
			<point x="116" y="257"/>
		</contour>
	</outline>
</glyph>
<glyph name="J" format="2">
	<advance width="463.5"/>
	<unicode hex="004A"/>
	<anchor x="255" y="0" name="bottom"/>
	<anchor x="255" y="800" name="top"/>
	<outline>
		<contour>
			<point x="41" y="133" type="curve"/>
			<point x="50" y="-3" type="line"/>
			<point x="271" y="-8"/>
			<point x="367" y="115"/>
			<point x="377" y="357" type="curve" smooth="yes"/>
			<point x="383" y="482"/>
			<point x="380" y="627"/>
			<point x="374" y="768" type="curve"/>
			<point x="221" y="740" type="line"/>
			<point x="256" y="520"/>
			<point x="266" y="398"/>
			<point x="266" y="306" type="curve" smooth="yes"/>
			<point x="266" y="194"/>
			<point x="251" y="122"/>
			<point x="127" y="122" type="curve" smooth="yes"/>
			<point x="103" y="122"/>
			<point x="75" y="125"/>
		</contour>
	</outline>
</glyph>
<glyph name="K" format="2">
	<advance width="723"/>
	<unicode hex="004B"/>
	<anchor x="377" y="0" name="bottom"/>
	<anchor x="377" y="800" name="top"/>
	<outline>
		<contour>
			<point x="107" y="-10" type="curve"/>
			<point x="220" y="8" type="line"/>
			<point x="243" y="252"/>
			<point x="251" y="509"/>
			<point x="239" y="758" type="curve"/>
			<point x="83" y="734" type="line"/>
			<point x="114" y="475"/>
			<point x="116" y="257"/>
		</contour>
		<contour>
			<point x="209" y="224" type="curve"/>
			<point x="220" y="8" type="line"/>
			<point x="257" y="355"/>
			<point x="446" y="583"/>
			<point x="677" y="613" type="curve"/>
			<point x="668" y="750" type="line"/>
			<point x="430" y="707"/>
			<point x="256" y="462"/>
		</contour>
		<contour>
			<point x="538" y="0" type="curve"/>
			<point x="691" y="20" type="line"/>
			<point x="640" y="276"/>
			<point x="488" y="375"/>
			<point x="338" y="427" type="curve"/>
			<point x="287" y="333" type="line"/>
			<point x="407" y="310"/>
			<point x="517" y="170"/>
		</contour>
	</outline>
</glyph>
<glyph name="L" format="2">
	<advance width="579"/>
	<unicode hex="004C"/>
	<anchor x="343" y="-30" name="bottom"/>
	<anchor x="305" y="325" name="center"/>
	<anchor x="203" y="800" name="top"/>
	<anchor x="438" y="720" name="topright"/>
	<outline>
		<contour>
			<point x="103" y="18" type="curve"/>
			<point x="211" y="35" type="line"/>
			<point x="234" y="280"/>
			<point x="250" y="472"/>
			<point x="235" y="755" type="curve"/>
			<point x="83" y="745" type="line"/>
			<point x="124" y="480"/>
			<point x="121" y="261"/>
		</contour>
		<contour>
			<point x="539" y="15" type="curve"/>
			<point x="526" y="123" type="line"/>
			<point x="377" y="84"/>
			<point x="253" y="68"/>
			<point x="149" y="88" type="curve"/>
			<point x="103" y="18" type="line"/>
			<point x="257" y="-12"/>
			<point x="422" y="4"/>
		</contour>
	</outline>
</glyph>
<glyph name="M" format="2">
	<advance width="1201.75"/>
	<unicode hex="004D"/>
	<outline>
		<contour>
			<point x="107" y="-10" type="curve"/>
			<point x="220" y="10" type="line"/>
			<point x="244" y="264"/>
			<point x="248" y="504"/>
			<point x="236" y="758" type="curve"/>
			<point x="83" y="732" type="line"/>
			<point x="114" y="467"/>
			<point x="116" y="263"/>
		</contour>
		<contour>
			<point x="513" y="-6" type="curve"/>
			<point x="661" y="18" type="line"/>
			<point x="670" y="426"/>
			<point x="638" y="760"/>
			<point x="432" y="760" type="curve" smooth="yes"/>
			<point x="300" y="760"/>
			<point x="206" y="638"/>
			<point x="164" y="220" type="curve"/>
			<point x="235" y="228" type="line"/>
			<point x="246" y="499"/>
			<point x="321" y="673"/>
			<point x="407" y="673" type="curve" smooth="yes"/>
			<point x="538" y="673"/>
			<point x="539" y="248"/>
		</contour>
		<contour>
			<point x="968" y="-3" type="curve"/>
			<point x="1115" y="17" type="line"/>
			<point x="1135" y="376"/>
			<point x="1080" y="766"/>
			<point x="855" y="766" type="curve" smooth="yes"/>
			<point x="655" y="766"/>
			<point x="607" y="388"/>
			<point x="604" y="192" type="curve"/>
			<point x="661" y="18" type="line"/>
			<point x="679" y="344"/>
			<point x="722" y="673"/>
			<point x="837" y="673" type="curve" smooth="yes"/>
			<point x="960" y="673"/>
			<point x="995" y="280"/>
		</contour>
	</outline>
</glyph>
<glyph name="N" format="2">
	<advance width="840.25"/>
	<unicode hex="004E"/>
	<anchor x="432" y="-30" name="bottom"/>
	<anchor x="372" y="800" name="top"/>
	<outline>
		<contour>
			<point x="578" y="0" type="curve" smooth="yes"/>
			<point x="845" y="0"/>
			<point x="753" y="595"/>
			<point x="688" y="800" type="curve"/>
			<point x="545" y="761" type="line"/>
			<point x="610" y="526"/>
			<point x="702" y="74"/>
			<point x="564" y="74" type="curve" smooth="yes"/>
			<point x="439" y="74"/>
			<point x="308" y="471"/>
			<point x="238" y="731" type="curve"/>
			<point x="171" y="569" type="line"/>
			<point x="220" y="363"/>
			<point x="402" y="0"/>
		</contour>
		<contour>
			<point x="83" y="0" type="curve"/>
			<point x="233" y="-1" type="line"/>
			<point x="232" y="57"/>
			<point x="221" y="360"/>
			<point x="211" y="577" type="curve"/>
			<point x="238" y="731" type="line"/>
			<point x="91" y="710" type="line"/>
			<point x="104" y="482"/>
			<point x="102" y="230"/>
		</contour>
	</outline>
</glyph>
<glyph name="O" format="2">
	<advance width="812.25"/>
	<unicode hex="004F"/>
	<anchor x="407" y="-30" name="bottom"/>
	<anchor x="405" y="800" name="top"/>
	<outline>
		<contour>
			<point x="407" y="-13" type="curve" smooth="yes"/>
			<point x="637" y="-13"/>
			<point x="756" y="179"/>
			<point x="756" y="372" type="curve" smooth="yes"/>
			<point x="756" y="565"/>
			<point x="636" y="759"/>
			<point x="405" y="759" type="curve" smooth="yes"/>
			<point x="177" y="759"/>
			<point x="57" y="562"/>
			<point x="57" y="368" type="curve" smooth="yes"/>
			<point x="57" y="176"/>
			<point x="173" y="-13"/>
		</contour>
		<contour>
			<point x="415" y="110" type="curve" smooth="yes"/>
			<point x="271" y="110"/>
			<point x="186" y="255"/>
			<point x="186" y="415" type="curve" smooth="yes"/>
			<point x="186" y="567"/>
			<point x="256" y="701"/>
			<point x="413" y="701" type="curve" smooth="yes"/>
			<point x="563" y="701"/>
			<point x="644" y="564"/>
			<point x="644" y="414" type="curve" smooth="yes"/>
			<point x="644" y="266"/>
			<point x="570" y="110"/>
		</contour>
	</outline>
</glyph>
<glyph name="P" format="2">
	<advance width="701.25"/>
	<unicode hex="0050"/>
	<outline>
		<contour>
			<point x="107" y="-5" type="curve"/>
			<point x="229" y="0" type="line"/>
			<point x="244" y="270"/>
			<point x="246" y="455"/>
			<point x="235" y="753" type="curve"/>
			<point x="83" y="729" type="line"/>
			<point x="109" y="513"/>
			<point x="116" y="265"/>
		</contour>
		<contour>
			<point x="189" y="273" type="curve"/>
			<point x="221" y="211" type="line"/>
			<point x="527" y="306"/>
			<point x="645" y="437"/>
			<point x="645" y="596" type="curve" smooth="yes"/>
			<point x="645" y="710"/>
			<point x="584" y="792"/>
			<point x="475" y="792" type="curve" smooth="yes"/>
			<point x="383" y="792"/>
			<point x="247" y="713"/>
			<point x="191" y="547" type="curve"/>
			<point x="211" y="475" type="line"/>
			<point x="249" y="605"/>
			<point x="348" y="661"/>
			<point x="419" y="661" type="curve" smooth="yes"/>
			<point x="487" y="661"/>
			<point x="515" y="611"/>
			<point x="515" y="558" type="curve" smooth="yes"/>
			<point x="515" y="464"/>
			<point x="450" y="357"/>
		</contour>
	</outline>
</glyph>
<glyph name="Q" format="2">
	<advance width="812.25"/>
	<unicode hex="0051"/>
	<outline>
		<component base="O" yScale="-1" yOffset="750"/>
		<contour>
			<point x="604" y="-149" type="curve"/>
			<point x="705" y="-62" type="line"/>
			<point x="584" y="14"/>
			<point x="543" y="132"/>
			<point x="545" y="244" type="curve"/>
			<point x="477" y="253" type="line"/>
			<point x="456" y="84"/>
			<point x="491" y="-35"/>
		</contour>
	</outline>
</glyph>
<glyph name="R" format="2">
	<advance width="696"/>
	<unicode hex="0052"/>
	<anchor x="337" y="0" name="bottom"/>
	<anchor x="339" y="800" name="top"/>
	<outline>
		<contour>
			<point x="189" y="300" type="curve"/>
			<point x="221" y="241" type="line"/>
			<point x="527" y="335"/>
			<point x="645" y="457"/>
			<point x="645" y="614" type="curve" smooth="yes"/>
			<point x="645" y="711"/>
			<point x="584" y="785"/>
			<point x="475" y="785" type="curve" smooth="yes"/>
			<point x="383" y="785"/>
			<point x="247" y="713"/>
			<point x="191" y="547" type="curve"/>
			<point x="211" y="483" type="line"/>
			<point x="249" y="613"/>
			<point x="348" y="672"/>
			<point x="419" y="672" type="curve" smooth="yes"/>
			<point x="487" y="672"/>
			<point x="515" y="612"/>
			<point x="515" y="558" type="curve" smooth="yes"/>
			<point x="515" y="478"/>
			<point x="450" y="382"/>
		</contour>
		<contour>
			<point x="107" y="-5" type="curve"/>
			<point x="229" y="0" type="line"/>
			<point x="244" y="270"/>
			<point x="246" y="455"/>
			<point x="235" y="753" type="curve"/>
			<point x="83" y="729" type="line"/>
			<point x="109" y="511"/>
			<point x="116" y="264"/>
		</contour>
		<contour>
			<point x="511" y="-15" type="curve"/>
			<point x="664" y="4" type="line"/>
			<point x="606" y="243"/>
			<point x="463" y="303"/>
			<point x="303" y="335" type="curve"/>
			<point x="263" y="267" type="line"/>
			<point x="395" y="251"/>
			<point x="483" y="141"/>
		</contour>
	</outline>
</glyph>
<glyph name="S" format="2">
	<advance width="666.75"/>
	<unicode hex="0053"/>
	<anchor x="341" y="-41" name="bottom"/>
	<anchor x="351" y="19" name="cedilla"/>
	<anchor x="355" y="800" name="top"/>
	<outline>
		<contour>
			<point x="340" y="-11" type="curve" smooth="yes"/>
			<point x="512" y="-11"/>
			<point x="626" y="64"/>
			<point x="626" y="212" type="curve" smooth="yes"/>
			<point x="626" y="449"/>
			<point x="222" y="374"/>
			<point x="223" y="591" type="curve" smooth="yes"/>
			<point x="224" y="657"/>
			<point x="282" y="689"/>
			<point x="363" y="689" type="curve" smooth="yes"/>
			<point x="419" y="689"/>
			<point x="490" y="666"/>
			<point x="554" y="620" type="curve"/>
			<point x="577" y="701" type="line"/>
			<point x="525" y="744"/>
			<point x="438" y="768"/>
			<point x="352" y="768" type="curve" smooth="yes"/>
			<point x="215" y="768"/>
			<point x="79" y="708"/>
			<point x="79" y="570" type="curve" smooth="yes"/>
			<point x="79" y="371"/>
			<point x="472" y="380"/>
			<point x="472" y="217" type="curve" smooth="yes"/>
			<point x="472" y="132"/>
			<point x="392" y="78"/>
			<point x="316" y="78" type="curve" smooth="yes"/>
			<point x="245" y="78"/>
			<point x="175" y="90"/>
			<point x="65" y="145" type="curve"/>
			<point x="41" y="40" type="line"/>
			<point x="145" y="8"/>
			<point x="249" y="-11"/>
		</contour>
	</outline>
</glyph>
<glyph name="T" format="2">
	<advance width="702"/>
	<unicode hex="0054"/>
	<anchor x="354" y="-10" name="bottom"/>
	<anchor x="374" y="20" name="cedilla"/>
	<anchor x="354" y="800" name="top"/>
	<outline>
		<contour>
			<point x="298" y="-10" type="curve"/>
			<point x="412" y="10" type="line"/>
			<point x="434" y="254"/>
			<point x="440" y="509"/>
			<point x="428" y="758" type="curve"/>
			<point x="274" y="732" type="line"/>
			<point x="305" y="472"/>
			<point x="307" y="257"/>
		</contour>
		<contour>
			<point x="661" y="674" type="line"/>
			<point x="662" y="775" type="line"/>
			<point x="41" y="750" type="line"/>
			<point x="45" y="681" type="line"/>
		</contour>
	</outline>
</glyph>
<glyph name="U" format="2">
	<advance width="827.25"/>
	<unicode hex="0055"/>
	<anchor x="393" y="-30" name="bottom"/>
	<anchor x="726" y="16" name="ogonek"/>
	<anchor x="441" y="800" name="top"/>
	<outline>
		<contour>
			<point x="385" y="-8" type="curve" smooth="yes"/>
			<point x="642" y="-8"/>
			<point x="656" y="368"/>
			<point x="659" y="564" type="curve"/>
			<point x="590" y="744" type="line"/>
			<point x="605" y="520"/>
			<point x="605" y="71"/>
			<point x="405" y="71" type="curve" smooth="yes"/>
			<point x="204" y="71"/>
			<point x="202" y="675"/>
			<point x="218" y="765" type="curve"/>
			<point x="67" y="742" type="line"/>
			<point x="52" y="512"/>
			<point x="108" y="-8"/>
		</contour>
		<contour>
			<point x="597" y="-4" type="curve"/>
			<point x="716" y="16" type="line"/>
			<point x="743" y="297"/>
			<point x="749" y="520"/>
			<point x="741" y="767" type="curve"/>
			<point x="590" y="744" type="line"/>
			<point x="612" y="463"/>
			<point x="617" y="276"/>
		</contour>
	</outline>
</glyph>
<glyph name="V" format="2">
	<advance width="777"/>
	<unicode hex="0056"/>
	<outline>
		<contour>
			<point x="361" y="-7" type="curve"/>
			<point x="422" y="5" type="line"/>
			<point x="387" y="106" type="line"/>
			<point x="322" y="323"/>
			<point x="264" y="505"/>
			<point x="154" y="760" type="curve"/>
			<point x="41" y="740" type="line"/>
			<point x="190" y="448"/>
			<point x="269" y="245"/>
		</contour>
		<contour>
			<point x="349" y="77" type="curve"/>
			<point x="422" y="5" type="line"/>
			<point x="481" y="180"/>
			<point x="618" y="509"/>
			<point x="737" y="748" type="curve"/>
			<point x="575" y="765" type="line"/>
			<point x="484" y="545"/>
			<point x="404" y="306"/>
		</contour>
	</outline>
</glyph>
<glyph name="W" format="2">
	<advance width="1142.75"/>
	<unicode hex="0057"/>
	<anchor x="547" y="-38" name="bottom"/>
	<anchor x="593" y="800" name="top"/>
	<outline>
		<contour>
			<point x="781" y="-17" type="curve" smooth="yes"/>
			<point x="1064" y="-17"/>
			<point x="1081" y="484"/>
			<point x="1078" y="759" type="curve"/>
			<point x="922" y="733" type="line"/>
			<point x="955" y="425"/>
			<point x="924" y="65"/>
			<point x="769" y="65" type="curve" smooth="yes"/>
			<point x="613" y="65"/>
			<point x="649" y="518"/>
			<point x="666" y="730" type="curve"/>
			<point x="513" y="720" type="line"/>
			<point x="521" y="462"/>
			<point x="536" y="-17"/>
		</contour>
		<contour>
			<point x="348" y="-8" type="curve" smooth="yes"/>
			<point x="559" y="-8"/>
			<point x="573" y="353"/>
			<point x="577" y="549" type="curve"/>
			<point x="513" y="720" type="line"/>
			<point x="501" y="541"/>
			<point x="525" y="74"/>
			<point x="365" y="74" type="curve" smooth="yes"/>
			<point x="202" y="74"/>
			<point x="207" y="655"/>
			<point x="222" y="745" type="curve"/>
			<point x="68" y="736" type="line"/>
			<point x="52" y="486"/>
			<point x="93" y="-8"/>
		</contour>
	</outline>
</glyph>
<glyph name="X" format="2">
	<advance width="762.25"/>
	<unicode hex="0058"/>
	<outline>
		<contour>
			<point x="41" y="86" type="curve"/>
			<point x="117" y="-12" type="line"/>
			<point x="329" y="194"/>
			<point x="537" y="550"/>
			<point x="615" y="730" type="curve"/>
			<point x="556" y="759" type="line"/>
			<point x="464" y="560"/>
			<point x="292" y="302"/>
		</contour>
		<contour>
			<point x="551" y="-7" type="curve"/>
			<point x="722" y="28" type="line"/>
			<point x="602" y="260"/>
			<point x="364" y="603"/>
			<point x="173" y="763" type="curve"/>
			<point x="66" y="723" type="line"/>
			<point x="278" y="526"/>
			<point x="429" y="277"/>
		</contour>
	</outline>
</glyph>
<glyph name="Y" format="2">
	<advance width="739.25"/>
	<unicode hex="0059"/>
	<anchor x="356" y="-30" name="bottom"/>
	<anchor x="356" y="800" name="top"/>
	<outline>
		<contour>
			<point x="196" y="90" type="curve"/>
			<point x="204" y="-27" type="line"/>
			<point x="677" y="-37"/>
			<point x="662" y="338"/>
			<point x="653" y="768" type="curve"/>
			<point x="506" y="754" type="line"/>
			<point x="519" y="575"/>
			<point x="550" y="458"/>
			<point x="541" y="296" type="curve" smooth="yes"/>
			<point x="533" y="128"/>
			<point x="396" y="69"/>
		</contour>
		<contour>
			<point x="333" y="242" type="curve" smooth="yes"/>
			<point x="511" y="242"/>
			<point x="584" y="449"/>
			<point x="585" y="678" type="curve"/>
			<point x="506" y="754" type="line"/>
			<point x="518" y="530"/>
			<point x="499" y="319"/>
			<point x="357" y="319" type="curve" smooth="yes"/>
			<point x="212" y="319"/>
			<point x="182" y="544"/>
			<point x="212" y="758" type="curve"/>
			<point x="69" y="746" type="line"/>
			<point x="55" y="562"/>
			<point x="82" y="242"/>
		</contour>
	</outline>
</glyph>
<glyph name="Z" format="2">
	<advance width="704"/>
	<unicode hex="005A"/>
	<anchor x="363" y="-30" name="bottom"/>
	<anchor x="363" y="800" name="top"/>
	<outline>
		<contour>
			<point x="57" y="85" type="curve"/>
			<point x="128" y="22" type="line"/>
			<point x="343" y="182"/>
			<point x="545" y="476"/>
			<point x="647" y="685" type="curve"/>
			<point x="490" y="705" type="line"/>
			<point x="406" y="469"/>
			<point x="208" y="212"/>
		</contour>
		<contour>
			<point x="597" y="-26" type="curve"/>
			<point x="615" y="81" type="line"/>
			<point x="460" y="102"/>
			<point x="278" y="84"/>
			<point x="147" y="57" type="curve"/>
			<point x="57" y="85" type="line"/>
			<point x="64" y="-12" type="line"/>
			<point x="178" y="5"/>
			<point x="402" y="19"/>
		</contour>
		<contour>
			<point x="104" y="750" type="curve"/>
			<point x="87" y="648" type="line"/>
			<point x="291" y="637"/>
			<point x="460" y="653"/>
			<point x="647" y="685" type="curve"/>
			<point x="641" y="733" type="line"/>
			<point x="528" y="716"/>
			<point x="319" y="712"/>
		</contour>
	</outline>
</glyph>
<glyph name="bracketleft" format="2">
	<advance width="417.25"/>
	<unicode hex="005B"/>
	<outline>
		<contour>
			<point x="104" y="-103" type="curve"/>
			<point x="185" y="-85" type="line"/>
			<point x="207" y="200"/>
			<point x="211" y="484"/>
			<point x="197" y="769" type="curve"/>
			<point x="81" y="764" type="line"/>
			<point x="107" y="475"/>
			<point x="114" y="186"/>
		</contour>
		<contour>
			<point x="372" y="-110" type="line"/>
			<point x="377" y="-8" type="line"/>
			<point x="108" y="-36" type="line"/>
			<point x="104" y="-103" type="line"/>
		</contour>
		<contour>
			<point x="368" y="671" type="line"/>
			<point x="372" y="777" type="line"/>
			<point x="81" y="764" type="line"/>
			<point x="118" y="697" type="line"/>
		</contour>
	</outline>
</glyph>
<glyph name="underscore" format="2">
	<advance width="456"/>
	<unicode hex="005F"/>
	<outline>
		<contour>
			<point x="29" y="14" type="curve"/>
			<point x="26" y="-99" type="line"/>
			<point x="160" y="-100"/>
			<point x="296" y="-94"/>
			<point x="431" y="-82" type="curve"/>
			<point x="430" y="7" type="line"/>
			<point x="296" y="3"/>
			<point x="162" y="5"/>
		</contour>
	</outline>
</glyph>
<glyph name="grave" format="2">
	<advance width="300"/>
	<unicode hex="0060"/>
	<anchor x="150" y="520" name="_top"/>
	<anchor x="150" y="700" name="top"/>
	<outline>
		<contour>
			<point x="148" y="555" type="line"/>
			<point x="185" y="585" type="line"/>
			<point x="14" y="787" type="line"/>
			<point x="-38" y="736" type="line"/>
		</contour>
	</outline>
</glyph>
<glyph name="a" format="2">
	<advance width="593"/>
	<unicode hex="0061"/>
	<anchor x="259" y="-36" name="bottom"/>
	<anchor x="477" y="5" name="ogonek"/>
	<anchor x="353" y="520" name="top"/>
	<outline>
		<contour>
			<point x="201" y="-14" type="curve" smooth="yes"/>
			<point x="308" y="-14"/>
			<point x="433" y="77"/>
			<point x="448" y="314" type="curve"/>
			<point x="390" y="271" type="line"/>
			<point x="391" y="153"/>
			<point x="316" y="87"/>
			<point x="249" y="87" type="curve" smooth="yes"/>
			<point x="199" y="87"/>
			<point x="171" y="131"/>
			<point x="171" y="183" type="curve" smooth="yes"/>
			<point x="171" y="236"/>
			<point x="210" y="330"/>
			<point x="418" y="374" type="curve"/>
			<point x="384" y="441" type="line"/>
			<point x="130" y="367"/>
			<point x="41" y="258"/>
			<point x="41" y="145" type="curve" smooth="yes"/>
			<point x="41" y="43"/>
			<point x="116" y="-14"/>
		</contour>
		<contour>
			<point x="413" y="-13" type="curve"/>
			<point x="513" y="10" type="line"/>
			<point x="504" y="148"/>
			<point x="505" y="286"/>
			<point x="525" y="456" type="curve"/>
			<point x="384" y="441" type="line"/>
			<point x="382" y="417"/>
			<point x="387" y="125"/>
		</contour>
	</outline>
</glyph>
<glyph name="b" format="2">
	<advance width="651"/>
	<unicode hex="0062"/>
	<outline>
		<contour>
			<point x="343" y="-11" type="curve" smooth="yes"/>
			<point x="489" y="-11"/>
			<point x="611" y="86"/>
			<point x="611" y="252" type="curve" smooth="yes"/>
			<point x="611" y="398"/>
			<point x="520" y="459"/>
			<point x="424" y="459" type="curve" smooth="yes"/>
			<point x="322" y="459"/>
			<point x="140" y="381"/>
			<point x="140" y="102" type="curve"/>
			<point x="175" y="64" type="line"/>
			<point x="187" y="277"/>
			<point x="307" y="360"/>
			<point x="373" y="360" type="curve" smooth="yes"/>
			<point x="448" y="360"/>
			<point x="473" y="278"/>
			<point x="473" y="228" type="curve" smooth="yes"/>
			<point x="473" y="143"/>
			<point x="428" y="63"/>
			<point x="296" y="63" type="curve" smooth="yes"/>
			<point x="257" y="63"/>
			<point x="173" y="83"/>
			<point x="129" y="102" type="curve"/>
			<point x="180" y="12" type="line"/>
			<point x="220" y="2"/>
			<point x="301" y="-11"/>
		</contour>
		<contour>
			<point x="75" y="32" type="curve"/>
			<point x="180" y="12" type="line"/>
			<point x="212" y="289"/>
			<point x="217" y="553"/>
			<point x="209" y="804" type="curve"/>
			<point x="66" y="781" type="line"/>
			<point x="86" y="541"/>
			<point x="88" y="285"/>
		</contour>
	</outline>
</glyph>
<glyph name="c" format="2">
	<advance width="515"/>
	<unicode hex="0063"/>
	<anchor x="229" y="-1" name="bottom"/>
	<anchor x="346" y="20" name="cedilla"/>
	<anchor x="323" y="520" name="top"/>
	<outline>
		<contour>
			<point x="275" y="-6" type="curve" smooth="yes"/>
			<point x="353" y="-6"/>
			<point x="427" y="17"/>
			<point x="488" y="61" type="curve"/>
			<point x="478" y="132" type="line"/>
			<point x="433" y="94"/>
			<point x="377" y="69"/>
			<point x="316" y="69" type="curve" smooth="yes"/>
			<point x="235" y="69"/>
			<point x="186" y="121"/>
			<point x="186" y="191" type="curve" smooth="yes"/>
			<point x="186" y="329"/>
			<point x="323" y="391"/>
			<point x="447" y="375" type="curve"/>
			<point x="440" y="459" type="line"/>
			<point x="275" y="480"/>
			<point x="41" y="390"/>
			<point x="41" y="187" type="curve" smooth="yes"/>
			<point x="41" y="55"/>
			<point x="155" y="-6"/>
		</contour>
	</outline>
</glyph>
<glyph name="d" format="2">
	<advance width="591"/>
	<unicode hex="0064"/>
	<anchor x="101" y="0" name="bottom"/>
	<anchor x="216" y="260" name="center"/>
	<anchor x="437" y="800" name="top"/>
	<anchor x="618" y="750" name="topright"/>
	<outline>
		<contour>
			<point x="408" y="-6" type="curve"/>
			<point x="514" y="4" type="line"/>
			<point x="501" y="275"/>
			<point x="502" y="555"/>
			<point x="523" y="810" type="curve"/>
			<point x="381" y="788" type="line"/>
			<point x="373" y="533"/>
			<point x="377" y="272"/>
		</contour>
		<contour>
			<point x="201" y="-14" type="curve" smooth="yes"/>
			<point x="308" y="-14"/>
			<point x="431" y="77"/>
			<point x="445" y="314" type="curve"/>
			<point x="387" y="271" type="line"/>
			<point x="389" y="153"/>
			<point x="316" y="94"/>
			<point x="249" y="94" type="curve" smooth="yes"/>
			<point x="199" y="94"/>
			<point x="171" y="131"/>
			<point x="171" y="183" type="curve" smooth="yes"/>
			<point x="171" y="236"/>
			<point x="210" y="365"/>
			<point x="418" y="409" type="curve"/>
			<point x="384" y="476" type="line"/>
			<point x="130" y="402"/>
			<point x="41" y="258"/>
			<point x="41" y="145" type="curve" smooth="yes"/>
			<point x="41" y="43"/>
			<point x="116" y="-14"/>
		</contour>
	</outline>
</glyph>
<glyph name="e" format="2">
	<advance width="548"/>
	<unicode hex="0065"/>
	<anchor x="314" y="-29" name="bottom"/>
	<anchor x="431" y="-2" name="ogonek"/>
	<anchor x="323" y="520" name="top"/>
	<outline>
		<contour>
			<point x="431" y="-2" type="curve"/>
			<point x="443" y="66" type="line"/>
			<point x="289" y="33"/>
			<point x="172" y="88"/>
			<point x="172" y="232" type="curve" smooth="yes"/>
			<point x="172" y="308"/>
			<point x="240" y="385"/>
			<point x="306" y="385" type="curve" smooth="yes"/>
			<point x="372" y="385"/>
			<point x="392" y="340"/>
			<point x="392" y="306" type="curve" smooth="yes"/>
			<point x="392" y="247"/>
			<point x="342" y="221"/>
			<point x="284" y="221" type="curve" smooth="yes"/>
			<point x="223" y="221"/>
			<point x="182" y="235"/>
			<point x="156" y="251" type="curve"/>
			<point x="130" y="207" type="line"/>
			<point x="177" y="172"/>
			<point x="285" y="150"/>
			<point x="344" y="150" type="curve" smooth="yes"/>
			<point x="469" y="150"/>
			<point x="507" y="221"/>
			<point x="508" y="288" type="curve" smooth="yes"/>
			<point x="510" y="367"/>
			<point x="436" y="455"/>
			<point x="297" y="455" type="curve" smooth="yes"/>
			<point x="173" y="455"/>
			<point x="41" y="378"/>
			<point x="41" y="219" type="curve" smooth="yes"/>
			<point x="41" y="16"/>
			<point x="242" y="-21"/>
		</contour>
	</outline>
</glyph>
<glyph name="f" format="2">
	<advance width="428.25"/>
	<unicode hex="0066"/>
	<outline>
		<contour>
			<point x="74" y="0" type="curve"/>
			<point x="215" y="-2" type="line"/>
			<point x="196" y="156"/>
			<point x="180" y="353"/>
			<point x="172" y="439" type="curve" smooth="yes"/>
			<point x="155" y="613"/>
			<point x="241" y="652"/>
			<point x="388" y="631" type="curve"/>
			<point x="379" y="742" type="line"/>
			<point x="186" y="742"/>
			<point x="72" y="644"/>
			<point x="70" y="357" type="curve" smooth="yes"/>
			<point x="70" y="262"/>
			<point x="72" y="133"/>
		</contour>
		<contour>
			<point x="310" y="376" type="curve"/>
			<point x="322" y="450" type="line"/>
			<point x="222" y="464"/>
			<point x="135" y="463"/>
			<point x="22" y="453" type="curve"/>
			<point x="32" y="396" type="line"/>
			<point x="137" y="403"/>
			<point x="216" y="397"/>
		</contour>
	</outline>
</glyph>
<glyph name="g" format="2">
	<advance width="587"/>
	<unicode hex="0067"/>
	<anchor x="289" y="-337" name="bottom"/>
	<anchor x="323" y="520" name="top"/>
	<outline>
		<contour>
			<point x="104" y="-145" type="curve"/>
			<point x="66" y="-260" type="line"/>
			<point x="339" y="-322"/>
			<point x="510" y="-220"/>
			<point x="518" y="75" type="curve" smooth="yes"/>
			<point x="521" y="206"/>
			<point x="519" y="371"/>
			<point x="515" y="465" type="curve"/>
			<point x="380" y="461" type="line"/>
			<point x="406" y="227"/>
			<point x="413" y="111"/>
			<point x="419" y="-6" type="curve" smooth="yes"/>
			<point x="426" y="-150"/>
			<point x="334" y="-235"/>
		</contour>
		<contour>
			<point x="201" y="-14" type="curve" smooth="yes"/>
			<point x="308" y="-14"/>
			<point x="445" y="77"/>
			<point x="460" y="314" type="curve"/>
			<point x="401" y="271" type="line"/>
			<point x="403" y="153"/>
			<point x="316" y="94"/>
			<point x="249" y="94" type="curve" smooth="yes"/>
			<point x="199" y="94"/>
			<point x="171" y="131"/>
			<point x="171" y="183" type="curve" smooth="yes"/>
			<point x="171" y="236"/>
			<point x="208" y="350"/>
			<point x="416" y="394" type="curve"/>
			<point x="380" y="461" type="line"/>
			<point x="126" y="387"/>
			<point x="41" y="258"/>
			<point x="41" y="145" type="curve" smooth="yes"/>
			<point x="41" y="43"/>
			<point x="116" y="-14"/>
		</contour>
	</outline>
</glyph>
<glyph name="h" format="2">
	<advance width="619"/>
	<unicode hex="0068"/>
	<outline>
		<contour>
			<point x="75" y="-5" type="curve"/>
			<point x="180" y="5" type="line"/>
			<point x="212" y="282"/>
			<point x="217" y="553"/>
			<point x="209" y="804" type="curve"/>
			<point x="66" y="782" type="line"/>
			<point x="86" y="542"/>
			<point x="88" y="248"/>
		</contour>
		<contour>
			<point x="410" y="0" type="curve"/>
			<point x="551" y="-11" type="line"/>
			<point x="577" y="184"/>
			<point x="567" y="466"/>
			<point x="379" y="466" type="curve" smooth="yes"/>
			<point x="224" y="466"/>
			<point x="126" y="261"/>
			<point x="111" y="129" type="curve"/>
			<point x="180" y="5" type="line"/>
			<point x="197" y="223"/>
			<point x="267" y="392"/>
			<point x="349" y="392" type="curve" smooth="yes"/>
			<point x="446" y="392"/>
			<point x="456" y="190"/>
		</contour>
	</outline>
</glyph>
<glyph name="i" format="2">
	<advance width="277.5"/>
	<unicode hex="0069"/>
	<outline>
		<component base="dotlessi"/>
		<contour>
			<point x="65" y="523" type="curve"/>
			<point x="197" y="533" type="line"/>
			<point x="198" y="578"/>
			<point x="193" y="635"/>
			<point x="183" y="678" type="curve"/>
			<point x="49" y="659" type="line"/>
			<point x="55" y="613"/>
			<point x="64" y="572"/>
		</contour>
	</outline>
</glyph>
<glyph name="j" format="2">
	<advance width="298.25"/>
	<unicode hex="006A"/>
	<outline>
		<component base="uni0237"/>
		<contour>
			<point x="65" y="523" type="curve"/>
			<point x="197" y="533" type="line"/>
			<point x="198" y="578"/>
			<point x="193" y="635"/>
			<point x="183" y="678" type="curve"/>
			<point x="49" y="659" type="line"/>
			<point x="55" y="613"/>
			<point x="64" y="572"/>
		</contour>
	</outline>
</glyph>
<glyph name="k" format="2">
	<advance width="572.25"/>
	<unicode hex="006B"/>
	<anchor x="311" y="0" name="bottom"/>
	<anchor x="77" y="800" name="top"/>
	<outline>
		<contour>
			<point x="405" y="-7" type="curve"/>
			<point x="545" y="33" type="line"/>
			<point x="490" y="166"/>
			<point x="391" y="263"/>
			<point x="260" y="291" type="curve"/>
			<point x="212" y="225" type="line"/>
			<point x="305" y="183"/>
			<point x="368" y="122"/>
		</contour>
		<contour>
			<point x="170" y="155" type="curve"/>
			<point x="180" y="5" type="line"/>
			<point x="201" y="192"/>
			<point x="304" y="349"/>
			<point x="494" y="370" type="curve"/>
			<point x="493" y="491" type="line"/>
			<point x="322" y="447"/>
			<point x="201" y="313"/>
		</contour>
		<contour>
			<point x="75" y="-5" type="curve"/>
			<point x="180" y="5" type="line"/>
			<point x="212" y="282"/>
			<point x="217" y="553"/>
			<point x="209" y="804" type="curve"/>
			<point x="66" y="782" type="line"/>
			<point x="86" y="542"/>
			<point x="88" y="248"/>
		</contour>
	</outline>
</glyph>
<glyph name="l" format="2">
	<advance width="280"/>
	<unicode hex="006C"/>
	<anchor x="125" y="-40" name="bottom"/>
	<anchor x="141" y="830" name="top"/>
	<anchor x="296" y="760" name="topright"/>
	<outline>
		<contour>
			<point x="75" y="-5" type="curve"/>
			<point x="181" y="5" type="line"/>
			<point x="212" y="282"/>
			<point x="217" y="553"/>
			<point x="209" y="804" type="curve"/>
			<point x="66" y="782" type="line"/>
			<point x="86" y="542"/>
			<point x="88" y="248"/>
		</contour>
	</outline>
</glyph>
<glyph name="m" format="2">
	<advance width="920"/>
	<unicode hex="006D"/>
	<outline>
		<contour>
			<point x="395" y="1" type="curve"/>
			<point x="534" y="-5" type="line"/>
			<point x="563" y="198"/>
			<point x="541" y="466"/>
			<point x="365" y="466" type="curve" smooth="yes"/>
			<point x="221" y="466"/>
			<point x="146" y="275"/>
			<point x="136" y="151" type="curve"/>
			<point x="205" y="0" type="line"/>
			<point x="220" y="217"/>
			<point x="251" y="394"/>
			<point x="337" y="394" type="curve" smooth="yes"/>
			<point x="410" y="394"/>
			<point x="439" y="203"/>
		</contour>
		<contour>
			<point x="66" y="-10" type="curve"/>
			<point x="205" y="0" type="line"/>
			<point x="214" y="161"/>
			<point x="212" y="287"/>
			<point x="187" y="464" type="curve"/>
			<point x="77" y="442" type="line"/>
			<point x="91" y="294"/>
			<point x="87" y="141"/>
		</contour>
		<contour>
			<point x="707" y="2" type="curve"/>
			<point x="851" y="-7" type="line"/>
			<point x="881" y="218"/>
			<point x="866" y="465"/>
			<point x="696" y="465" type="curve" smooth="yes"/>
			<point x="587" y="465"/>
			<point x="506" y="369"/>
			<point x="487" y="262" type="curve"/>
			<point x="542" y="90" type="line"/>
			<point x="547" y="252"/>
			<point x="585" y="391"/>
			<point x="654" y="391" type="curve" smooth="yes"/>
			<point x="745" y="391"/>
			<point x="750" y="193"/>
		</contour>
	</outline>
</glyph>
<glyph name="n" format="2">
	<advance width="638.25"/>
	<unicode hex="006E"/>
	<anchor x="323" y="0" name="bottom"/>
	<anchor x="367" y="520" name="top"/>
	<outline>
		<contour>
			<point x="430" y="2" type="curve"/>
			<point x="570" y="-9" type="line"/>
			<point x="597" y="187"/>
			<point x="586" y="466"/>
			<point x="398" y="466" type="curve" smooth="yes"/>
			<point x="247" y="466"/>
			<point x="154" y="266"/>
			<point x="146" y="129" type="curve"/>
			<point x="200" y="0" type="line"/>
			<point x="217" y="219"/>
			<point x="286" y="392"/>
			<point x="369" y="392" type="curve" smooth="yes"/>
			<point x="465" y="392"/>
			<point x="476" y="192"/>
		</contour>
		<contour>
			<point x="66" y="-11" type="curve"/>
			<point x="200" y="0" type="line"/>
			<point x="209" y="167"/>
			<point x="207" y="286"/>
			<point x="180" y="464" type="curve"/>
			<point x="76" y="442" type="line"/>
			<point x="91" y="295"/>
			<point x="88" y="144"/>
		</contour>
	</outline>
</glyph>
<glyph name="o" format="2">
	<advance width="558"/>
	<unicode hex="006F"/>
	<anchor x="275" y="-42" name="bottom"/>
	<anchor x="267" y="520" name="top"/>
	<outline>
		<contour>
			<point x="275" y="-12" type="curve" smooth="yes"/>
			<point x="436" y="-12"/>
			<point x="518" y="107"/>
			<point x="518" y="226" type="curve" smooth="yes"/>
			<point x="518" y="345"/>
			<point x="436" y="463"/>
			<point x="273" y="463" type="curve" smooth="yes"/>
			<point x="120" y="463"/>
			<point x="41" y="343"/>
			<point x="41" y="223" type="curve" smooth="yes"/>
			<point x="41" y="105"/>
			<point x="118" y="-12"/>
		</contour>
		<contour>
			<point x="278" y="52" type="curve" smooth="yes"/>
			<point x="209" y="52"/>
			<point x="160" y="124"/>
			<point x="160" y="210" type="curve" smooth="yes"/>
			<point x="160" y="282"/>
			<point x="202" y="353"/>
			<point x="276" y="353" type="curve" smooth="yes"/>
			<point x="351" y="353"/>
			<point x="392" y="283"/>
			<point x="392" y="212" type="curve" smooth="yes"/>
			<point x="392" y="133"/>
			<point x="360" y="52"/>
		</contour>
	</outline>
</glyph>
<glyph name="p" format="2">
	<advance width="604"/>
	<unicode hex="0070"/>
	<outline>
		<contour>
			<point x="66" y="-303" type="curve"/>
			<point x="209" y="-287" type="line"/>
			<point x="217" y="-32"/>
			<point x="214" y="174"/>
			<point x="182" y="458" type="curve"/>
			<point x="76" y="441" type="line"/>
			<point x="89" y="171"/>
			<point x="88" y="-49"/>
		</contour>
		<contour>
			<point x="164" y="36" type="curve"/>
			<point x="185" y="-34" type="line"/>
			<point x="485" y="38"/>
			<point x="564" y="182"/>
			<point x="564" y="295" type="curve" smooth="yes"/>
			<point x="564" y="397"/>
			<point x="486" y="459"/>
			<point x="398" y="459" type="curve" smooth="yes"/>
			<point x="286" y="459"/>
			<point x="160" y="363"/>
			<point x="145" y="126" type="curve"/>
			<point x="206" y="156" type="line"/>
			<point x="206" y="276"/>
			<point x="283" y="354"/>
			<point x="365" y="354" type="curve" smooth="yes"/>
			<point x="413" y="354"/>
			<point x="444" y="319"/>
			<point x="444" y="273" type="curve" smooth="yes"/>
			<point x="444" y="188"/>
			<point x="369" y="89"/>
		</contour>
	</outline>
</glyph>
<glyph name="q" format="2">
	<advance width="576"/>
	<unicode hex="0071"/>
	<outline>
		<contour>
			<point x="201" y="-10" type="curve" smooth="yes"/>
			<point x="308" y="-10"/>
			<point x="420" y="77"/>
			<point x="435" y="314" type="curve"/>
			<point x="377" y="270" type="line"/>
			<point x="369" y="152"/>
			<point x="315" y="90"/>
			<point x="249" y="90" type="curve" smooth="yes"/>
			<point x="199" y="90"/>
			<point x="170" y="129"/>
			<point x="170" y="182" type="curve" smooth="yes"/>
			<point x="170" y="240"/>
			<point x="219" y="336"/>
			<point x="427" y="379" type="curve"/>
			<point x="394" y="446" type="line"/>
			<point x="140" y="372"/>
			<point x="41" y="258"/>
			<point x="41" y="145" type="curve" smooth="yes"/>
			<point x="41" y="43"/>
			<point x="116" y="-10"/>
		</contour>
		<contour>
			<point x="365" y="-306" type="curve"/>
			<point x="508" y="-281" type="line"/>
			<point x="482" y="-41"/>
			<point x="486" y="202"/>
			<point x="499" y="455" type="curve"/>
			<point x="394" y="446" type="line"/>
			<point x="362" y="169"/>
			<point x="351" y="-55"/>
		</contour>
	</outline>
</glyph>
<glyph name="r" format="2">
	<advance width="499.5"/>
	<unicode hex="0072"/>
	<anchor x="146" y="-30" name="bottom"/>
	<anchor x="341" y="520" name="top"/>
	<outline>
		<contour>
			<point x="164" y="125" type="curve"/>
			<point x="200" y="-6" type="line"/>
			<point x="220" y="274"/>
			<point x="270" y="397"/>
			<point x="443" y="316" type="curve"/>
			<point x="466" y="449" type="line"/>
			<point x="314" y="520"/>
			<point x="172" y="354"/>
		</contour>
		<contour>
			<point x="66" y="-6" type="curve"/>
			<point x="200" y="-6" type="line"/>
			<point x="209" y="161"/>
			<point x="209" y="283"/>
			<point x="182" y="462" type="curve"/>
			<point x="76" y="440" type="line"/>
			<point x="91" y="293"/>
			<point x="88" y="149"/>
		</contour>
	</outline>
</glyph>
<glyph name="s" format="2">
	<advance width="465"/>
	<unicode hex="0073"/>
	<anchor x="218" y="-19" name="bottom"/>
	<anchor x="227" y="17" name="cedilla"/>
	<anchor x="223" y="520" name="top"/>
	<outline>
		<contour>
			<point x="229" y="-21" type="curve" smooth="yes"/>
			<point x="333" y="-21"/>
			<point x="425" y="10"/>
			<point x="425" y="108" type="curve" smooth="yes"/>
			<point x="425" y="255"/>
			<point x="191" y="227"/>
			<point x="191" y="334" type="curve" smooth="yes"/>
			<point x="191" y="364"/>
			<point x="213" y="386"/>
			<point x="248" y="386" type="curve" smooth="yes"/>
			<point x="284" y="386"/>
			<point x="332" y="371"/>
			<point x="370" y="331" type="curve"/>
			<point x="410" y="400" type="line"/>
			<point x="359" y="447"/>
			<point x="284" y="474"/>
			<point x="218" y="474" type="curve" smooth="yes"/>
			<point x="137" y="474"/>
			<point x="68" y="434"/>
			<point x="68" y="355" type="curve" smooth="yes"/>
			<point x="68" y="201"/>
			<point x="289" y="205"/>
			<point x="289" y="118" type="curve" smooth="yes"/>
			<point x="289" y="91"/>
			<point x="267" y="57"/>
			<point x="209" y="57" type="curve" smooth="yes"/>
			<point x="149" y="57"/>
			<point x="94" y="75"/>
			<point x="49" y="93" type="curve"/>
			<point x="41" y="7" type="line"/>
			<point x="95" y="-9"/>
			<point x="165" y="-21"/>
		</contour>
	</outline>
</glyph>
<glyph name="t" format="2">
	<advance width="418.25"/>
	<unicode hex="0074"/>
	<anchor x="282" y="-9" name="bottom"/>
	<anchor x="294" y="20" name="cedilla"/>
	<anchor x="177" y="787" name="top"/>
	<anchor x="334" y="707" name="topright"/>
	<outline>
		<contour>
			<point x="382" y="-1" type="curve"/>
			<point x="388" y="134" type="line"/>
			<point x="259" y="122"/>
			<point x="179" y="152"/>
			<point x="181" y="280" type="curve" smooth="yes"/>
			<point x="183" y="419"/>
			<point x="200" y="558"/>
			<point x="221" y="736" type="curve"/>
			<point x="76" y="717" type="line"/>
			<point x="74" y="589"/>
			<point x="74" y="467"/>
			<point x="80" y="317" type="curve" smooth="yes"/>
			<point x="87" y="108"/>
			<point x="151" y="-16"/>
		</contour>
		<contour>
			<point x="355" y="370" type="curve"/>
			<point x="368" y="457" type="line"/>
			<point x="261" y="469"/>
			<point x="126" y="463"/>
			<point x="7" y="436" type="curve"/>
			<point x="20" y="371" type="line"/>
			<point x="131" y="389"/>
			<point x="251" y="392"/>
		</contour>
	</outline>
</glyph>
<glyph name="u" format="2">
	<advance width="640"/>
	<unicode hex="0075"/>
	<anchor x="326" y="-50" name="bottom"/>
	<anchor x="562" y="12" name="ogonek"/>
	<anchor x="326" y="520" name="top"/>
	<outline>
		<contour>
			<point x="241" y="-12" type="curve" smooth="yes"/>
			<point x="391" y="-12"/>
			<point x="485" y="181"/>
			<point x="493" y="317" type="curve"/>
			<point x="439" y="454" type="line"/>
			<point x="422" y="236"/>
			<point x="352" y="62"/>
			<point x="270" y="62" type="curve" smooth="yes"/>
			<point x="173" y="62"/>
			<point x="163" y="272"/>
			<point x="209" y="462" type="curve"/>
			<point x="68" y="450" type="line"/>
			<point x="42" y="255"/>
			<point x="52" y="-12"/>
		</contour>
		<contour>
			<point x="459" y="-10" type="curve"/>
			<point x="562" y="12" type="line"/>
			<point x="547" y="159"/>
			<point x="551" y="310"/>
			<point x="572" y="466" type="curve"/>
			<point x="439" y="454" type="line"/>
			<point x="430" y="287"/>
			<point x="432" y="168"/>
		</contour>
	</outline>
</glyph>
<glyph name="v" format="2">
	<advance width="614.5"/>
	<unicode hex="0076"/>
	<outline>
		<contour>
			<point x="289" y="-9" type="curve"/>
			<point x="361" y="0" type="line"/>
			<point x="333" y="51" type="line"/>
			<point x="294" y="178"/>
			<point x="207" y="339"/>
			<point x="135" y="467" type="curve"/>
			<point x="28" y="451" type="line"/>
			<point x="149" y="278"/>
			<point x="222" y="147"/>
		</contour>
		<contour>
			<point x="288" y="49" type="curve"/>
			<point x="361" y="0" type="line"/>
			<point x="415" y="141"/>
			<point x="510" y="320"/>
			<point x="587" y="456" type="curve"/>
			<point x="441" y="471" type="line"/>
			<point x="388" y="352"/>
			<point x="327" y="198"/>
		</contour>
	</outline>
</glyph>
<glyph name="w" format="2">
	<advance width="934.75"/>
	<unicode hex="0077"/>
	<anchor x="381" y="-30" name="bottom"/>
	<anchor x="481" y="520" name="top"/>
	<outline>
		<contour>
			<point x="610" y="-18" type="curve" smooth="yes"/>
			<point x="872" y="-18"/>
			<point x="899" y="193"/>
			<point x="866" y="476" type="curve"/>
			<point x="722" y="455" type="line"/>
			<point x="773" y="252"/>
			<point x="754" y="47"/>
			<point x="634" y="47" type="curve" smooth="yes"/>
			<point x="506" y="47"/>
			<point x="495" y="228"/>
			<point x="555" y="447" type="curve"/>
			<point x="426" y="467" type="line"/>
			<point x="387" y="165"/>
			<point x="409" y="-17"/>
		</contour>
		<contour>
			<point x="243" y="-19" type="curve" smooth="yes"/>
			<point x="388" y="-19"/>
			<point x="439" y="146"/>
			<point x="451" y="212" type="curve"/>
			<point x="426" y="467" type="line"/>
			<point x="399" y="271"/>
			<point x="350" y="48"/>
			<point x="251" y="48" type="curve" smooth="yes"/>
			<point x="151" y="48"/>
			<point x="179" y="313"/>
			<point x="215" y="453" type="curve"/>
			<point x="69" y="476" type="line"/>
			<point x="41" y="247"/>
			<point x="50" y="-19"/>
		</contour>
	</outline>
</glyph>
<glyph name="x" format="2">
	<advance width="570.5"/>
	<unicode hex="0078"/>
	<outline>
		<contour>
			<point x="394" y="-2" type="curve"/>
			<point x="543" y="32" type="line"/>
			<point x="434" y="212"/>
			<point x="254" y="393"/>
			<point x="86" y="468" type="curve"/>
			<point x="28" y="410" type="line"/>
			<point x="145" y="331"/>
			<point x="306" y="180"/>
		</contour>
		<contour>
			<point x="29" y="68" type="curve"/>
			<point x="80" y="-14" type="line"/>
			<point x="227" y="114"/>
			<point x="389" y="274"/>
			<point x="467" y="434" type="curve"/>
			<point x="406" y="463" type="line"/>
			<point x="342" y="351"/>
			<point x="203" y="187"/>
		</contour>
	</outline>
</glyph>
<glyph name="y" format="2">
	<advance width="634"/>
	<unicode hex="0079"/>
	<anchor x="264" y="-347" name="bottom"/>
	<anchor x="343" y="520" name="top"/>
	<outline>
		<contour>
			<point x="98" y="-109" type="curve"/>
			<point x="46" y="-229" type="line"/>
			<point x="302" y="-325"/>
			<point x="494" y="-293"/>
			<point x="540" y="-32" type="curve" smooth="yes"/>
			<point x="566" y="112"/>
			<point x="569" y="299"/>
			<point x="564" y="482" type="curve"/>
			<point x="433" y="450" type="line"/>
			<point x="443" y="200"/>
			<point x="456" y="121"/>
			<point x="436" y="-25" type="curve" smooth="yes"/>
			<point x="408" y="-237"/>
			<point x="267" y="-233"/>
		</contour>
		<contour>
			<point x="240" y="-11" type="curve" smooth="yes"/>
			<point x="391" y="-11"/>
			<point x="477" y="184"/>
			<point x="485" y="321" type="curve"/>
			<point x="433" y="450" type="line"/>
			<point x="416" y="232"/>
			<point x="352" y="62"/>
			<point x="269" y="62" type="curve" smooth="yes"/>
			<point x="173" y="62"/>
			<point x="162" y="270"/>
			<point x="208" y="460" type="curve"/>
			<point x="68" y="456" type="line"/>
			<point x="41" y="260"/>
			<point x="54" y="-11"/>
		</contour>
	</outline>
</glyph>
<glyph name="z" format="2">
	<advance width="564"/>
	<unicode hex="007A"/>
	<anchor x="314" y="-20" name="bottom"/>
	<anchor x="314" y="520" name="top"/>
	<outline>
		<contour>
			<point x="49" y="69" type="curve"/>
			<point x="142" y="38" type="line"/>
			<point x="312" y="140"/>
			<point x="430" y="263"/>
			<point x="515" y="400" type="curve"/>
			<point x="370" y="421" type="line"/>
			<point x="296" y="290"/>
			<point x="186" y="166"/>
		</contour>
		<contour>
			<point x="468" y="-9" type="curve"/>
			<point x="493" y="82" type="line"/>
			<point x="373" y="92"/>
			<point x="231" y="75"/>
			<point x="127" y="59" type="curve"/>
			<point x="49" y="69" type="line"/>
			<point x="61" y="-2" type="line"/>
			<point x="168" y="7"/>
			<point x="297" y="15"/>
		</contour>
		<contour>
			<point x="75" y="467" type="curve"/>
			<point x="55" y="379" type="line"/>
			<point x="244" y="364"/>
			<point x="364" y="362"/>
			<point x="515" y="400" type="curve"/>
			<point x="503" y="450" type="line"/>
			<point x="403" y="433"/>
			<point x="246" y="425"/>
		</contour>
	</outline>
</glyph>
<glyph name="braceleft" format="2">
	<advance width="314.25"/>
	<unicode hex="007B"/>
	<outline>
		<contour>
			<point x="80" y="392" type="curve"/>
			<point x="80" y="310" type="line"/>
			<point x="155" y="319"/>
			<point x="197" y="355"/>
			<point x="197" y="418" type="curve" smooth="yes"/>
			<point x="197" y="485"/>
			<point x="135" y="536"/>
			<point x="135" y="614" type="curve" smooth="yes"/>
			<point x="135" y="687"/>
			<point x="226" y="708"/>
			<point x="274" y="680" type="curve"/>
			<point x="274" y="773" type="line"/>
			<point x="188" y="800"/>
			<point x="57" y="765"/>
			<point x="57" y="645" type="curve" smooth="yes"/>
			<point x="57" y="535"/>
			<point x="150" y="482"/>
			<point x="150" y="427" type="curve" smooth="yes"/>
			<point x="150" y="399"/>
			<point x="115" y="394"/>
		</contour>
		<contour>
			<point x="274" y="-72" type="curve"/>
			<point x="274" y="22" type="line"/>
			<point x="226" y="-6"/>
			<point x="135" y="14"/>
			<point x="135" y="87" type="curve" smooth="yes"/>
			<point x="135" y="165"/>
			<point x="197" y="216"/>
			<point x="197" y="283" type="curve" smooth="yes"/>
			<point x="197" y="346"/>
			<point x="155" y="382"/>
			<point x="80" y="392" type="curve"/>
			<point x="80" y="310" type="line"/>
			<point x="115" y="308"/>
			<point x="150" y="303"/>
			<point x="150" y="275" type="curve" smooth="yes"/>
			<point x="150" y="219"/>
			<point x="57" y="166"/>
			<point x="57" y="56" type="curve" smooth="yes"/>
			<point x="57" y="-65"/>
			<point x="188" y="-99"/>
		</contour>
	</outline>
</glyph>
<glyph name="bar" format="2">
	<advance width="255.5"/>
	<unicode hex="007C"/>
	<outline>
		<contour>
			<point x="101" y="-210" type="curve"/>
			<point x="192" y="-203" type="line"/>
			<point x="205" y="143"/>
			<point x="204" y="468"/>
			<point x="191" y="774" type="curve"/>
			<point x="81" y="757" type="line"/>
			<point x="101" y="455"/>
			<point x="108" y="132"/>
		</contour>
	</outline>
</glyph>
<glyph name="asciitilde" format="2">
	<advance width="573.5"/>
	<unicode hex="007E"/>
	<outline>
		<contour>
			<point x="41" y="286" type="curve"/>
			<point x="150" y="276" type="line"/>
			<point x="148" y="350"/>
			<point x="171" y="385"/>
			<point x="204" y="385" type="curve" smooth="yes"/>
			<point x="283" y="385"/>
			<point x="308" y="276"/>
			<point x="397" y="276" type="curve" smooth="yes"/>
			<point x="445" y="276"/>
			<point x="533" y="325"/>
			<point x="533" y="451" type="curve"/>
			<point x="433" y="461" type="line"/>
			<point x="436" y="390"/>
			<point x="420" y="355"/>
			<point x="386" y="355" type="curve" smooth="yes"/>
			<point x="325" y="355"/>
			<point x="272" y="461"/>
			<point x="176" y="461" type="curve" smooth="yes"/>
			<point x="117" y="461"/>
			<point x="41" y="412"/>
		</contour>
	</outline>
</glyph>
<glyph name="cent" format="2">
	<advance width="515"/>
	<unicode hex="00A2"/>
	<outline>
		<contour>
			<point x="275" y="47" type="curve" smooth="yes"/>
			<point x="353" y="47"/>
			<point x="427" y="69"/>
			<point x="488" y="113" type="curve"/>
			<point x="478" y="184" type="line"/>
			<point x="432" y="143"/>
			<point x="379" y="119"/>
			<point x="319" y="119" type="curve" smooth="yes"/>
			<point x="237" y="119"/>
			<point x="186" y="173"/>
			<point x="186" y="244" type="curve" smooth="yes"/>
			<point x="186" y="381"/>
			<point x="323" y="444"/>
			<point x="447" y="428" type="curve"/>
			<point x="440" y="512" type="line"/>
			<point x="275" y="533"/>
			<point x="41" y="443"/>
			<point x="41" y="240" type="curve" smooth="yes"/>
			<point x="41" y="108"/>
			<point x="155" y="47"/>
		</contour>
		<contour>
			<point x="256" y="444" type="line"/>
			<point x="336" y="455" type="line"/>
			<point x="355" y="706" type="line"/>
			<point x="248" y="689" type="line"/>
		</contour>
		<contour>
			<point x="248" y="-143" type="line"/>
			<point x="355" y="-126" type="line"/>
			<point x="346" y="105" type="line"/>
			<point x="266" y="94" type="line"/>
		</contour>
	</outline>
</glyph>
<glyph name="sterling" format="2">
	<advance width="649"/>
	<unicode hex="00A3"/>
	<outline>
		<contour>
			<point x="41" y="49" type="curve"/>
			<point x="106" y="22" type="line"/>
			<point x="294" y="109"/>
			<point x="332" y="239"/>
			<point x="332" y="305" type="curve" smooth="yes"/>
			<point x="332" y="415"/>
			<point x="225" y="484"/>
			<point x="225" y="576" type="curve" smooth="yes"/>
			<point x="225" y="631"/>
			<point x="276" y="666"/>
			<point x="340" y="666" type="curve" smooth="yes"/>
			<point x="410" y="666"/>
			<point x="507" y="641"/>
			<point x="585" y="588" type="curve"/>
			<point x="600" y="717" type="line"/>
			<point x="523" y="740"/>
			<point x="433" y="757"/>
			<point x="352" y="757" type="curve" smooth="yes"/>
			<point x="212" y="757"/>
			<point x="94" y="708"/>
			<point x="94" y="580" type="curve" smooth="yes"/>
			<point x="94" y="460"/>
			<point x="227" y="385"/>
			<point x="227" y="291" type="curve" smooth="yes"/>
			<point x="227" y="226"/>
			<point x="192" y="150"/>
		</contour>
		<contour>
			<point x="570" y="-39" type="curve"/>
			<point x="609" y="89" type="line"/>
			<point x="449" y="113"/>
			<point x="227" y="102"/>
			<point x="41" y="50" type="curve"/>
			<point x="53" y="-12" type="line"/>
			<point x="183" y="7"/>
			<point x="388" y="8"/>
		</contour>
		<contour>
			<point x="468" y="277" type="curve"/>
			<point x="465" y="376" type="line"/>
			<point x="331" y="365"/>
			<point x="196" y="360"/>
			<point x="62" y="362" type="curve"/>
			<point x="61" y="291" type="line"/>
			<point x="197" y="280"/>
			<point x="332" y="276"/>
		</contour>
	</outline>
</glyph>
<glyph name="yen" format="2">
	<advance width="611.75"/>
	<unicode hex="00A5"/>
	<outline>
		<contour>
			<point x="251" y="360" type="curve" smooth="yes"/>
			<point x="396" y="360"/>
			<point x="564" y="514"/>
			<point x="570" y="768" type="curve"/>
			<point x="442" y="753" type="line"/>
			<point x="463" y="629"/>
			<point x="428" y="434"/>
			<point x="284" y="434" type="curve" smooth="yes"/>
			<point x="128" y="434"/>
			<point x="141" y="625"/>
			<point x="185" y="758" type="curve"/>
			<point x="45" y="747" type="line"/>
			<point x="33" y="589"/>
			<point x="54" y="360"/>
		</contour>
		<contour>
			<point x="229" y="4" type="curve"/>
			<point x="349" y="-10" type="line"/>
			<point x="349" y="154"/>
			<point x="343" y="226"/>
			<point x="332" y="408" type="curve"/>
			<point x="240" y="390" type="line"/>
			<point x="243" y="244"/>
			<point x="237" y="152"/>
		</contour>
		<contour>
			<point x="497" y="284" type="curve"/>
			<point x="495" y="383" type="line"/>
			<point x="360" y="372"/>
			<point x="226" y="368"/>
			<point x="92" y="369" type="curve"/>
			<point x="91" y="299" type="line"/>
			<point x="227" y="288"/>
			<point x="361" y="283"/>
		</contour>
		<contour>
			<point x="75" y="235" type="curve"/>
			<point x="73" y="136" type="line"/>
			<point x="209" y="135"/>
			<point x="344" y="140"/>
			<point x="479" y="151" type="curve"/>
			<point x="478" y="221" type="line"/>
			<point x="345" y="220"/>
			<point x="210" y="224"/>
		</contour>
	</outline>
</glyph>
<glyph name="brokenbar" format="2">
	<advance width="286.75"/>
	<unicode hex="00A6"/>
	<outline>
		<contour>
			<point x="111" y="311" type="curve"/>
			<point x="206" y="335" type="line"/>
			<point x="206" y="475"/>
			<point x="201" y="634"/>
			<point x="189" y="774" type="curve"/>
			<point x="81" y="757" type="line"/>
			<point x="97" y="615"/>
			<point x="107" y="453"/>
		</contour>
		<contour>
			<point x="106" y="-210" type="curve"/>
			<point x="184" y="-203" type="line"/>
			<point x="197" y="-64"/>
			<point x="204" y="104"/>
			<point x="205" y="243" type="curve"/>
			<point x="113" y="241" type="line"/>
			<point x="117" y="101"/>
			<point x="115" y="-70"/>
		</contour>
	</outline>
</glyph>
<glyph name="section" format="2">
	<advance width="494.5"/>
	<unicode hex="00A7"/>
	<outline>
		<contour>
			<point x="242" y="-13" type="curve" smooth="yes"/>
			<point x="354" y="-13"/>
			<point x="465" y="26"/>
			<point x="465" y="128" type="curve" smooth="yes"/>
			<point x="465" y="302"/>
			<point x="143" y="291"/>
			<point x="143" y="384" type="curve" smooth="yes"/>
			<point x="143" y="414"/>
			<point x="170" y="459"/>
			<point x="258" y="470" type="curve"/>
			<point x="234" y="522" type="line"/>
			<point x="139" y="522"/>
			<point x="57" y="474"/>
			<point x="57" y="383" type="curve" smooth="yes"/>
			<point x="57" y="231"/>
			<point x="346" y="225"/>
			<point x="346" y="138" type="curve" smooth="yes"/>
			<point x="346" y="98"/>
			<point x="304" y="79"/>
			<point x="252" y="79" type="curve" smooth="yes"/>
			<point x="180" y="79"/>
			<point x="87" y="111"/>
			<point x="40" y="133" type="curve"/>
			<point x="29" y="17" type="line"/>
			<point x="86" y="1"/>
			<point x="177" y="-13"/>
		</contour>
		<contour>
			<point x="208" y="297" type="curve"/>
			<point x="242" y="233" type="line"/>
			<point x="354" y="233"/>
			<point x="465" y="272"/>
			<point x="465" y="374" type="curve" smooth="yes"/>
			<point x="465" y="538"/>
			<point x="158" y="506"/>
			<point x="158" y="638" type="curve" smooth="yes"/>
			<point x="158" y="674"/>
			<point x="199" y="690"/>
			<point x="218" y="690" type="curve" smooth="yes"/>
			<point x="281" y="690"/>
			<point x="347" y="643"/>
			<point x="404" y="593" type="curve"/>
			<point x="451" y="686" type="line"/>
			<point x="396" y="734"/>
			<point x="311" y="760"/>
			<point x="234" y="760" type="curve" smooth="yes"/>
			<point x="139" y="760"/>
			<point x="57" y="720"/>
			<point x="57" y="629" type="curve" smooth="yes"/>
			<point x="57" y="477"/>
			<point x="349" y="475"/>
			<point x="349" y="381" type="curve" smooth="yes"/>
			<point x="349" y="327"/>
			<point x="281" y="290"/>
		</contour>
	</outline>
</glyph>
<glyph name="dieresis" format="2">
	<advance width="300"/>
	<unicode hex="00A8"/>
	<anchor x="150" y="520" name="_top"/>
	<anchor x="150" y="700" name="top"/>
	<outline>
		<contour>
			<point x="20" y="555" type="curve"/>
			<point x="120" y="558" type="line"/>
			<point x="117" y="594"/>
			<point x="120" y="627"/>
			<point x="122" y="664" type="curve"/>
			<point x="19" y="665" type="line"/>
			<point x="16" y="632"/>
			<point x="16" y="589"/>
		</contour>
		<contour>
			<point x="185" y="555" type="curve"/>
			<point x="285" y="558" type="line"/>
			<point x="282" y="594"/>
			<point x="285" y="627"/>
			<point x="287" y="664" type="curve"/>
			<point x="184" y="665" type="line"/>
			<point x="181" y="632"/>
			<point x="181" y="589"/>
		</contour>
	</outline>
</glyph>
<glyph name="copyright" format="2">
	<advance width="1029.5"/>
	<unicode hex="00A9"/>
	<anchor x="557" y="8" name="bottom"/>
	<anchor x="576" y="37" name="cedilla"/>
	<anchor x="582" y="770" name="top"/>
	<outline>
		<contour>
			<point x="524" y="-129" type="curve" smooth="yes"/>
			<point x="755" y="-129"/>
			<point x="973" y="66"/>
			<point x="973" y="372" type="curve" smooth="yes"/>
			<point x="973" y="640"/>
			<point x="764" y="801"/>
			<point x="504" y="801" type="curve" smooth="yes"/>
			<point x="245" y="801"/>
			<point x="57" y="630"/>
			<point x="57" y="362" type="curve" smooth="yes"/>
			<point x="57" y="62"/>
			<point x="294" y="-129"/>
		</contour>
		<contour>
			<point x="523" y="-38" type="curve"/>
			<point x="296" y="-38"/>
			<point x="142" y="114"/>
			<point x="142" y="362" type="curve" smooth="yes"/>
			<point x="142" y="581"/>
			<point x="287" y="726"/>
			<point x="499" y="726" type="curve" smooth="yes"/>
			<point x="712" y="726"/>
			<point x="890" y="597"/>
			<point x="890" y="379" type="curve" smooth="yes"/>
			<point x="890" y="121"/>
			<point x="750" y="-38"/>
		</contour>
		<contour>
			<point x="516" y="38" type="curve" smooth="yes"/>
			<point x="570" y="38"/>
			<point x="625" y="49"/>
			<point x="677" y="79" type="curve"/>
			<point x="676" y="136" type="line"/>
			<point x="630" y="113"/>
			<point x="586" y="102"/>
			<point x="527" y="102" type="curve" smooth="yes"/>
			<point x="433" y="102"/>
			<point x="340" y="171"/>
			<point x="340" y="321" type="curve" smooth="yes"/>
			<point x="340" y="455"/>
			<point x="433" y="548"/>
			<point x="551" y="548" type="curve" smooth="yes"/>
			<point x="594" y="548"/>
			<point x="641" y="540"/>
			<point x="685" y="520" type="curve"/>
			<point x="696" y="600" type="line"/>
			<point x="656" y="625"/>
			<point x="599" y="638"/>
			<point x="540" y="638" type="curve" smooth="yes"/>
			<point x="393" y="638"/>
			<point x="226" y="550"/>
			<point x="226" y="325" type="curve" smooth="yes"/>
			<point x="226" y="150"/>
			<point x="364" y="38"/>
		</contour>
	</outline>
</glyph>
<glyph name="logicalnot" format="2">
	<advance width="435"/>
	<unicode hex="00AC"/>
	<outline>
		<contour>
			<point x="383" y="226" type="curve"/>
			<point x="381" y="346" type="line"/>
			<point x="268" y="348"/>
			<point x="154" y="344"/>
			<point x="42" y="333" type="curve"/>
			<point x="41" y="241" type="line"/>
			<point x="155" y="243"/>
			<point x="268" y="238"/>
		</contour>
		<contour>
			<point x="274" y="99" type="curve"/>
			<point x="394" y="101" type="line"/>
			<point x="396" y="214"/>
			<point x="392" y="233"/>
			<point x="381" y="346" type="curve"/>
			<point x="289" y="347" type="line"/>
			<point x="291" y="232"/>
			<point x="286" y="214"/>
		</contour>
	</outline>
</glyph>
<glyph name="registered" format="2">
	<advance width="543.5"/>
	<unicode hex="00AE"/>
	<anchor x="272" y="459" name="bottom"/>
	<anchor x="273" y="739" name="top"/>
	<outline>
		<contour>
			<point x="276" y="372" type="curve" smooth="yes"/>
			<point x="387" y="372"/>
			<point x="487" y="462"/>
			<point x="487" y="603" type="curve" smooth="yes"/>
			<point x="487" y="727"/>
			<point x="391" y="801"/>
			<point x="267" y="801" type="curve" smooth="yes"/>
			<point x="144" y="801"/>
			<point x="57" y="722"/>
			<point x="57" y="598" type="curve" smooth="yes"/>
			<point x="57" y="460"/>
			<point x="167" y="372"/>
		</contour>
		<contour>
			<point x="276" y="415" type="curve"/>
			<point x="170" y="415"/>
			<point x="100" y="484"/>
			<point x="100" y="594" type="curve" smooth="yes"/>
			<point x="100" y="692"/>
			<point x="166" y="758"/>
			<point x="265" y="758" type="curve" smooth="yes"/>
			<point x="365" y="758"/>
			<point x="446" y="700"/>
			<point x="446" y="603" type="curve" smooth="yes"/>
			<point x="446" y="487"/>
			<point x="383" y="415"/>
		</contour>
		<contour>
			<point x="220" y="572" type="curve"/>
			<point x="231" y="543" type="line"/>
			<point x="338" y="576"/>
			<point x="379" y="619"/>
			<point x="379" y="674" type="curve" smooth="yes"/>
			<point x="379" y="708"/>
			<point x="358" y="734"/>
			<point x="320" y="734" type="curve" smooth="yes"/>
			<point x="288" y="734"/>
			<point x="240" y="712"/>
			<point x="222" y="648" type="curve"/>
			<point x="239" y="621" type="line"/>
			<point x="251" y="666"/>
			<point x="277" y="685"/>
			<point x="299" y="685" type="curve" smooth="yes"/>
			<point x="320" y="685"/>
			<point x="330" y="666"/>
			<point x="330" y="649" type="curve" smooth="yes"/>
			<point x="330" y="622"/>
			<point x="293" y="593"/>
		</contour>
		<contour>
			<point x="192" y="458" type="curve"/>
			<point x="242" y="459" type="line"/>
			<point x="247" y="554"/>
			<point x="247" y="618"/>
			<point x="243" y="723" type="curve"/>
			<point x="183" y="714" type="line"/>
			<point x="192" y="639"/>
			<point x="195" y="552"/>
		</contour>
		<contour>
			<point x="324" y="454" type="curve"/>
			<point x="387" y="461" type="line"/>
			<point x="366" y="544"/>
			<point x="316" y="565"/>
			<point x="260" y="576" type="curve"/>
			<point x="238" y="543" type="line"/>
			<point x="287" y="539"/>
			<point x="315" y="503"/>
		</contour>
	</outline>
</glyph>
<glyph name="degree" format="2">
	<advance width="440"/>
	<unicode hex="00B0"/>
	<outline>
		<contour>
			<point x="210" y="444" type="curve" smooth="yes"/>
			<point x="326" y="444"/>
			<point x="382" y="526"/>
			<point x="382" y="606" type="curve" smooth="yes"/>
			<point x="382" y="684"/>
			<point x="330" y="760"/>
			<point x="229" y="760" type="curve" smooth="yes"/>
			<point x="114" y="760"/>
			<point x="58" y="679"/>
			<point x="58" y="599" type="curve" smooth="yes"/>
			<point x="58" y="521"/>
			<point x="112" y="444"/>
		</contour>
		<contour>
			<point x="215" y="516" type="curve" smooth="yes"/>
			<point x="162" y="516"/>
			<point x="134" y="560"/>
			<point x="134" y="602" type="curve" smooth="yes"/>
			<point x="134" y="645"/>
			<point x="161" y="688"/>
			<point x="215" y="688" type="curve" smooth="yes"/>
			<point x="277" y="688"/>
			<point x="308" y="645"/>
			<point x="308" y="602" type="curve" smooth="yes"/>
			<point x="308" y="560"/>
			<point x="277" y="516"/>
		</contour>
	</outline>
</glyph>
<glyph name="uni00B5" format="2">
	<advance width="678.5"/>
	<unicode hex="00B5"/>
	<outline>
		<contour>
			<point x="62" y="-291" type="curve"/>
			<point x="167" y="-282" type="line"/>
			<point x="199" y="-5"/>
			<point x="203" y="201"/>
			<point x="196" y="452" type="curve"/>
			<point x="53" y="431" type="line"/>
			<point x="72" y="191"/>
			<point x="75" y="-38"/>
		</contour>
		<contour>
			<point x="355" y="-19" type="curve" smooth="yes"/>
			<point x="462" y="-19"/>
			<point x="503" y="96"/>
			<point x="514" y="233" type="curve"/>
			<point x="447" y="233" type="line"/>
			<point x="444" y="127"/>
			<point x="412" y="55"/>
			<point x="355" y="55" type="curve" smooth="yes"/>
			<point x="273" y="55"/>
			<point x="213" y="224"/>
			<point x="196" y="442" type="curve"/>
			<point x="126" y="318" type="line"/>
			<point x="139" y="186"/>
			<point x="216" y="-19"/>
		</contour>
		<contour>
			<point x="629" y="-22" type="curve"/>
			<point x="646" y="55" type="line"/>
			<point x="560" y="55"/>
			<point x="550" y="257"/>
			<point x="593" y="447" type="curve"/>
			<point x="451" y="446" type="line"/>
			<point x="426" y="263"/>
			<point x="441" y="-22"/>
		</contour>
	</outline>
</glyph>
<glyph name="paragraph" format="2">
	<advance width="727.5"/>
	<unicode hex="00B6"/>
	<outline>
		<contour>
			<point x="359" y="215" type="curve"/>
			<point x="389" y="465" type="line"/>
			<point x="378" y="704"/>
			<point x="282" y="798"/>
			<point x="198" y="798" type="curve" smooth="yes"/>
			<point x="110" y="798"/>
			<point x="57" y="704"/>
			<point x="57" y="591" type="curve" smooth="yes"/>
			<point x="57" y="447"/>
			<point x="144" y="271"/>
		</contour>
		<contour>
			<point x="375" y="18" type="curve"/>
			<point x="446" y="2" type="line"/>
			<point x="429" y="295"/>
			<point x="433" y="462"/>
			<point x="455" y="745" type="curve"/>
			<point x="335" y="767" type="line"/>
			<point x="335" y="429"/>
			<point x="338" y="343"/>
		</contour>
		<contour>
			<point x="551" y="2" type="curve"/>
			<point x="661" y="24" type="line"/>
			<point x="633" y="308"/>
			<point x="628" y="476"/>
			<point x="637" y="767" type="curve"/>
			<point x="569" y="751" type="line"/>
			<point x="539" y="426"/>
			<point x="536" y="340"/>
		</contour>
		<contour>
			<point x="632" y="658" type="curve"/>
			<point x="637" y="767" type="line"/>
			<point x="500" y="754"/>
			<point x="477" y="760"/>
			<point x="335" y="767" type="curve"/>
			<point x="334" y="699" type="line"/>
			<point x="476" y="692"/>
			<point x="501" y="677"/>
		</contour>
	</outline>
</glyph>
<glyph name="cedilla" format="2">
	<advance width="300"/>
	<unicode hex="00B8"/>
	<anchor x="165" y="12" name="_cedilla"/>
	<outline>
		<contour>
			<point x="90" y="-164" type="curve"/>
			<point x="89" y="-216" type="line"/>
			<point x="150" y="-228"/>
			<point x="251" y="-214"/>
			<point x="251" y="-129" type="curve" smooth="yes"/>
			<point x="251" y="-78"/>
			<point x="201" y="-32"/>
			<point x="120" y="-32" type="curve"/>
			<point x="91" y="-85" type="line"/>
			<point x="137" y="-84"/>
			<point x="214" y="-82"/>
			<point x="214" y="-132" type="curve" smooth="yes"/>
			<point x="214" y="-178"/>
			<point x="134" y="-175"/>
		</contour>
		<contour>
			<point x="83" y="-85" type="line"/>
			<point x="115" y="-82" type="line"/>
			<point x="181" y="14" type="line"/>
			<point x="124" y="11" type="line"/>
		</contour>
	</outline>
</glyph>
<glyph name="AE" format="2">
	<advance width="1058"/>
	<unicode hex="00C6"/>
	<anchor x="385" y="0" name="bottom"/>
	<anchor x="626" y="16" name="ogonek"/>
	<anchor x="410" y="800" name="top"/>
	<outline>
		<contour>
			<point x="526" y="1" type="curve"/>
			<point x="659" y="14" type="line"/>
			<point x="713" y="435"/>
			<point x="649" y="766"/>
			<point x="408" y="766" type="curve" smooth="yes"/>
			<point x="144" y="766"/>
			<point x="62" y="452"/>
			<point x="87" y="3" type="curve"/>
			<point x="239" y="14" type="line"/>
			<point x="206" y="258"/>
			<point x="205" y="697"/>
			<point x="408" y="697" type="curve" smooth="yes"/>
			<point x="628" y="697"/>
			<point x="549" y="153"/>
		</contour>
		<contour>
			<point x="171" y="391" type="curve"/>
			<point x="137" y="299" type="line"/>
			<point x="311" y="281"/>
			<point x="473" y="283"/>
			<point x="616" y="319" type="curve"/>
			<point x="606" y="389" type="line"/>
			<point x="484" y="368"/>
			<point x="331" y="352"/>
		</contour>
		<contour>
			<point x="1018" y="-5" type="curve"/>
			<point x="1018" y="103" type="line"/>
			<point x="869" y="86"/>
			<point x="682" y="63"/>
			<point x="571" y="74" type="curve"/>
			<point x="526" y="1" type="line"/>
			<point x="652" y="-11"/>
			<point x="911" y="-5"/>
		</contour>
		<contour>
			<point x="902" y="319" type="curve"/>
			<point x="899" y="413" type="line"/>
			<point x="818" y="411"/>
			<point x="711" y="407"/>
			<point x="605" y="393" type="curve"/>
			<point x="605" y="321" type="line"/>
			<point x="726" y="330"/>
			<point x="815" y="330"/>
		</contour>
		<contour>
			<point x="1000" y="659" type="curve"/>
			<point x="1000" y="770" type="line"/>
			<point x="897" y="767"/>
			<point x="587" y="766"/>
			<point x="408" y="766" type="curve"/>
			<point x="498" y="688" type="line"/>
			<point x="588" y="690"/>
			<point x="841" y="685"/>
		</contour>
	</outline>
</glyph>
<glyph name="Eth" format="2">
	<advance width="769"/>
	<unicode hex="00D0"/>
	<outline>
		<component base="D"/>
		<contour>
			<point x="11" y="293" type="line"/>
			<point x="407" y="306" type="line"/>
			<point x="407" y="377" type="line"/>
			<point x="12" y="389" type="line"/>
		</contour>
	</outline>
</glyph>
<glyph name="multiply" format="2">
	<advance width="514.5"/>
	<unicode hex="00D7"/>
	<outline>
		<contour>
			<point x="391" y="138" type="curve"/>
			<point x="474" y="225" type="line"/>
			<point x="386" y="316"/>
			<point x="221" y="475"/>
			<point x="124" y="557" type="curve"/>
			<point x="58" y="492" type="line"/>
			<point x="149" y="402"/>
			<point x="307" y="237"/>
		</contour>
		<contour>
			<point x="41" y="230" type="curve"/>
			<point x="128" y="147" type="line"/>
			<point x="219" y="235"/>
			<point x="378" y="399"/>
			<point x="460" y="496" type="curve"/>
			<point x="394" y="563" type="line"/>
			<point x="304" y="472"/>
			<point x="139" y="314"/>
		</contour>
	</outline>
</glyph>
<glyph name="Oslash" format="2">
	<advance width="812.25"/>
	<unicode hex="00D8"/>
	<outline>
		<component base="O"/>
		<contour>
			<point x="215" y="-58" type="line"/>
			<point x="651" y="760" type="line"/>
			<point x="581" y="788" type="line"/>
			<point x="148" y="-29" type="line"/>
		</contour>
	</outline>
</glyph>
<glyph name="Thorn" format="2">
	<advance width="695"/>
	<unicode hex="00DE"/>
	<outline>
		<contour>
			<point x="90" y="-7" type="curve"/>
			<point x="242" y="17" type="line"/>
			<point x="216" y="233"/>
			<point x="209" y="485"/>
			<point x="218" y="755" type="curve"/>
			<point x="96" y="743" type="line"/>
			<point x="80" y="471"/>
			<point x="79" y="292"/>
		</contour>
		<contour>
			<point x="164" y="245" type="curve"/>
			<point x="176" y="175" type="line"/>
			<point x="458" y="182"/>
			<point x="638" y="290"/>
			<point x="638" y="422" type="curve" smooth="yes"/>
			<point x="638" y="526"/>
			<point x="548" y="598"/>
			<point x="423" y="598" type="curve" smooth="yes"/>
			<point x="358" y="598"/>
			<point x="289" y="586"/>
			<point x="193" y="554" type="curve"/>
			<point x="184" y="493" type="line"/>
			<point x="306" y="524"/>
			<point x="500" y="557"/>
			<point x="500" y="425" type="curve" smooth="yes"/>
			<point x="500" y="329"/>
			<point x="380" y="245"/>
		</contour>
	</outline>
</glyph>
<glyph name="germandbls" format="2">
	<advance width="681"/>
	<unicode hex="00DF"/>
	<outline>
		<contour>
			<point x="113" y="-13" type="curve"/>
			<point x="225" y="2" type="line"/>
			<point x="222" y="153"/>
			<point x="222" y="344"/>
			<point x="229" y="500" type="curve" smooth="yes"/>
			<point x="236" y="671"/>
			<point x="307" y="743"/>
			<point x="375" y="743" type="curve" smooth="yes"/>
			<point x="435" y="743"/>
			<point x="474" y="694"/>
			<point x="474" y="614" type="curve" smooth="yes"/>
			<point x="474" y="529"/>
			<point x="413" y="464"/>
			<point x="303" y="440" type="curve"/>
			<point x="311" y="378" type="line"/>
			<point x="476" y="388"/>
			<point x="603" y="484"/>
			<point x="603" y="606" type="curve" smooth="yes"/>
			<point x="603" y="741"/>
			<point x="493" y="796"/>
			<point x="372" y="796" type="curve" smooth="yes"/>
			<point x="229" y="796"/>
			<point x="94" y="692"/>
			<point x="94" y="465" type="curve" smooth="yes"/>
			<point x="94" y="356"/>
			<point x="102" y="201"/>
		</contour>
		<contour>
			<point x="321" y="77" type="curve"/>
			<point x="332" y="9" type="line"/>
			<point x="487" y="9"/>
			<point x="620" y="116"/>
			<point x="620" y="259" type="curve" smooth="yes"/>
			<point x="620" y="442"/>
			<point x="426" y="439"/>
			<point x="317" y="417" type="curve"/>
			<point x="311" y="378" type="line"/>
			<point x="361" y="383"/>
			<point x="497" y="370"/>
			<point x="497" y="245" type="curve" smooth="yes"/>
			<point x="497" y="167"/>
			<point x="436" y="92"/>
		</contour>
	</outline>
</glyph>
<glyph name="ae" format="2">
	<advance width="885.25"/>
	<unicode hex="00E6"/>
	<anchor x="284" y="-36" name="bottom"/>
	<anchor x="504" y="21" name="ogonek"/>
	<anchor x="333" y="560" name="top"/>
	<outline>
		<contour>
			<point x="201" y="-19" type="curve" smooth="yes"/>
			<point x="308" y="-19"/>
			<point x="431" y="77"/>
			<point x="445" y="314" type="curve"/>
			<point x="387" y="271" type="line"/>
			<point x="389" y="153"/>
			<point x="310" y="84"/>
			<point x="239" y="84" type="curve" smooth="yes"/>
			<point x="188" y="84"/>
			<point x="159" y="126"/>
			<point x="159" y="175" type="curve" smooth="yes"/>
			<point x="159" y="227"/>
			<point x="200" y="320"/>
			<point x="415" y="370" type="curve"/>
			<point x="382" y="446" type="line"/>
			<point x="128" y="372"/>
			<point x="41" y="258"/>
			<point x="41" y="145" type="curve" smooth="yes"/>
			<point x="41" y="43"/>
			<point x="116" y="-19"/>
		</contour>
		<contour>
			<point x="386" y="141" type="curve"/>
			<point x="476" y="165" type="line"/>
			<point x="478" y="179"/>
			<point x="483" y="307"/>
			<point x="505" y="453" type="curve"/>
			<point x="382" y="446" type="line"/>
			<point x="375" y="411"/>
			<point x="374" y="152"/>
		</contour>
		<component base="e" xOffset="337"/>
	</outline>
</glyph>
<glyph name="eth" format="2">
	<advance width="599"/>
	<unicode hex="00F0"/>
	<outline>
		<contour>
			<point x="266" y="-10" type="curve" smooth="yes"/>
			<point x="471" y="-10"/>
			<point x="559" y="107"/>
			<point x="559" y="247" type="curve" smooth="yes"/>
			<point x="559" y="451"/>
			<point x="391" y="660"/>
			<point x="152" y="710" type="curve"/>
			<point x="125" y="602" type="line"/>
			<point x="325" y="556"/>
			<point x="452" y="407"/>
			<point x="452" y="288" type="curve" smooth="yes"/>
			<point x="452" y="196"/>
			<point x="402" y="90"/>
			<point x="251" y="90" type="curve" smooth="yes"/>
			<point x="186" y="90"/>
			<point x="134" y="123"/>
			<point x="134" y="158" type="curve" smooth="yes"/>
			<point x="134" y="197"/>
			<point x="180" y="242"/>
			<point x="277" y="242" type="curve" smooth="yes"/>
			<point x="341" y="242"/>
			<point x="417" y="225"/>
			<point x="480" y="144" type="curve"/>
			<point x="483" y="245" type="line"/>
			<point x="426" y="299"/>
			<point x="327" y="328"/>
			<point x="229" y="328" type="curve" smooth="yes"/>
			<point x="98" y="328"/>
			<point x="41" y="252"/>
			<point x="41" y="177" type="curve" smooth="yes"/>
			<point x="41" y="85"/>
			<point x="126" y="-10"/>
		</contour>
		<contour>
			<point x="153" y="376" type="line"/>
			<point x="504" y="611" type="line"/>
			<point x="470" y="677" type="line"/>
			<point x="107" y="466" type="line"/>
		</contour>
	</outline>
</glyph>
<glyph name="divide" format="2">
	<advance width="442"/>
	<unicode hex="00F7"/>
	<outline>
		<contour>
			<point x="402" y="296" type="curve"/>
			<point x="399" y="417" type="line"/>
			<point x="286" y="419"/>
			<point x="154" y="415"/>
			<point x="42" y="404" type="curve"/>
			<point x="41" y="311" type="line"/>
			<point x="155" y="312"/>
			<point x="287" y="307"/>
		</contour>
		<contour>
			<point x="159" y="69" type="curve"/>
			<point x="285" y="72" type="line"/>
			<point x="282" y="119"/>
			<point x="286" y="160"/>
			<point x="288" y="206" type="curve"/>
			<point x="157" y="208" type="line"/>
			<point x="153" y="167"/>
			<point x="154" y="112"/>
		</contour>
		<contour>
			<point x="159" y="514" type="curve"/>
			<point x="285" y="517" type="line"/>
			<point x="282" y="564"/>
			<point x="286" y="605"/>
			<point x="288" y="651" type="curve"/>
			<point x="157" y="653" type="line"/>
			<point x="153" y="612"/>
			<point x="154" y="557"/>
		</contour>
	</outline>
</glyph>
<glyph name="oslash" format="2">
	<advance width="591"/>
	<unicode hex="00F8"/>
	<anchor x="275" y="-42" name="bottom"/>
	<anchor x="267" y="520" name="top"/>
	<outline>
		<contour>
			<point x="181" y="-63" type="line"/>
			<point x="475" y="488" type="line"/>
			<point x="380" y="513" type="line"/>
			<point x="108" y="-40" type="line"/>
		</contour>
		<contour>
			<point x="275" y="-12" type="curve" smooth="yes"/>
			<point x="436" y="-12"/>
			<point x="518" y="107"/>
			<point x="518" y="226" type="curve" smooth="yes"/>
			<point x="518" y="345"/>
			<point x="436" y="463"/>
			<point x="273" y="463" type="curve" smooth="yes"/>
			<point x="120" y="463"/>
			<point x="41" y="343"/>
			<point x="41" y="223" type="curve" smooth="yes"/>
			<point x="41" y="105"/>
			<point x="118" y="-12"/>
		</contour>
		<contour>
			<point x="277" y="41" type="curve" smooth="yes"/>
			<point x="198" y="41"/>
			<point x="144" y="119"/>
			<point x="144" y="211" type="curve" smooth="yes"/>
			<point x="144" y="288"/>
			<point x="190" y="363"/>
			<point x="271" y="363" type="curve" smooth="yes"/>
			<point x="357" y="363"/>
			<point x="403" y="289"/>
			<point x="403" y="213" type="curve" smooth="yes"/>
			<point x="403" y="128"/>
			<point x="365" y="41"/>
		</contour>
	</outline>
</glyph>
<glyph name="thorn" format="2">
	<advance width="604"/>
	<unicode hex="00FE"/>
	<outline>
		<contour>
			<point x="66" y="-183" type="curve"/>
			<point x="208" y="-167" type="line"/>
			<point x="216" y="88"/>
			<point x="213" y="317"/>
			<point x="181" y="600" type="curve"/>
			<point x="75" y="584" type="line"/>
			<point x="88" y="313"/>
			<point x="87" y="71"/>
		</contour>
		<contour>
			<point x="164" y="36" type="curve"/>
			<point x="184" y="-34" type="line"/>
			<point x="485" y="38"/>
			<point x="564" y="182"/>
			<point x="564" y="295" type="curve" smooth="yes"/>
			<point x="564" y="397"/>
			<point x="486" y="459"/>
			<point x="397" y="459" type="curve" smooth="yes"/>
			<point x="286" y="459"/>
			<point x="159" y="363"/>
			<point x="144" y="126" type="curve"/>
			<point x="205" y="156" type="line"/>
			<point x="205" y="276"/>
			<point x="282" y="354"/>
			<point x="364" y="354" type="curve" smooth="yes"/>
			<point x="412" y="354"/>
			<point x="443" y="319"/>
			<point x="443" y="273" type="curve" smooth="yes"/>
			<point x="443" y="188"/>
			<point x="368" y="89"/>
		</contour>
	</outline>
</glyph>
<glyph name="dcroat" format="2">
	<advance width="589.5"/>
	<unicode hex="0111"/>
	<outline>
		<component base="d"/>
		<contour>
			<point x="179" y="573" type="line"/>
			<point x="593" y="587" type="line"/>
			<point x="593" y="664" type="line"/>
			<point x="181" y="677" type="line"/>
		</contour>
	</outline>
</glyph>
<glyph name="Hbar" format="2">
	<advance width="837"/>
	<unicode hex="0126"/>
	<outline>
		<contour>
			<point x="2" y="521" type="line"/>
			<point x="814" y="593" type="line"/>
			<point x="806" y="666" type="line"/>
			<point x="-5" y="620" type="line"/>
		</contour>
		<component base="H"/>
	</outline>
</glyph>
<glyph name="hbar" format="2">
	<advance width="619"/>
	<unicode hex="0127"/>
	<outline>
		<component base="h"/>
		<contour>
			<point x="9" y="573" type="line"/>
			<point x="423" y="587" type="line"/>
			<point x="423" y="664" type="line"/>
			<point x="11" y="677" type="line"/>
		</contour>
	</outline>
</glyph>
<glyph name="dotlessi" format="2">
	<advance width="277.5"/>
	<unicode hex="0131"/>
	<anchor x="128" y="-27" name="bottom"/>
	<anchor x="171" y="4" name="ogonek"/>
	<anchor x="136" y="520" name="top"/>
	<outline>
		<contour>
			<point x="80" y="-4" type="curve"/>
			<point x="182" y="6" type="line"/>
			<point x="207" y="183"/>
			<point x="213" y="307"/>
			<point x="206" y="468" type="curve"/>
			<point x="68" y="452" type="line"/>
			<point x="87" y="301"/>
			<point x="88" y="141"/>
		</contour>
	</outline>
</glyph>
<glyph name="Lslash" format="2">
	<advance width="579"/>
	<unicode hex="0141"/>
	<outline>
		<component base="L"/>
		<contour>
			<point x="33" y="176" type="line"/>
			<point x="401" y="433" type="line"/>
			<point x="366" y="494" type="line"/>
			<point x="-12" y="258" type="line"/>
		</contour>
	</outline>
</glyph>
<glyph name="lslash" format="2">
	<advance width="280"/>
	<unicode hex="0142"/>
	<outline>
		<component base="l"/>
		<contour>
			<point x="6" y="210" type="line"/>
			<point x="354" y="448" type="line"/>
			<point x="318" y="515" type="line"/>
			<point x="-40" y="296" type="line"/>
		</contour>
	</outline>
</glyph>
<glyph name="OE" format="2">
	<advance width="1056"/>
	<unicode hex="0152"/>
	<anchor x="762" y="-30" name="bottom"/>
	<anchor x="990" y="7" name="ogonek"/>
	<anchor x="760" y="800" name="top"/>
	<outline>
		<contour>
			<point x="415" y="-5" type="curve" smooth="yes"/>
			<point x="485" y="-5"/>
			<point x="552" y="9"/>
			<point x="612" y="45" type="curve"/>
			<point x="582" y="119" type="line"/>
			<point x="531" y="87"/>
			<point x="482" y="70"/>
			<point x="411" y="70" type="curve" smooth="yes"/>
			<point x="298" y="70"/>
			<point x="194" y="175"/>
			<point x="194" y="346" type="curve" smooth="yes"/>
			<point x="194" y="517"/>
			<point x="300" y="635"/>
			<point x="440" y="635" type="curve" smooth="yes"/>
			<point x="482" y="635"/>
			<point x="523" y="626"/>
			<point x="562" y="607" type="curve"/>
			<point x="597" y="707" type="line"/>
			<point x="546" y="736"/>
			<point x="486" y="751"/>
			<point x="425" y="751" type="curve" smooth="yes"/>
			<point x="248" y="751"/>
			<point x="57" y="635"/>
			<point x="57" y="359" type="curve" smooth="yes"/>
			<point x="57" y="148"/>
			<point x="214" y="-5"/>
		</contour>
		<contour>
			<point x="524" y="15" type="curve"/>
			<point x="642" y="33" type="line"/>
			<point x="658" y="298"/>
			<point x="667" y="450"/>
			<point x="656" y="733" type="curve"/>
			<point x="507" y="736" type="line"/>
			<point x="533" y="516"/>
			<point x="536" y="258"/>
		</contour>
		<contour>
			<point x="1016" y="-5" type="curve"/>
			<point x="1016" y="103" type="line"/>
			<point x="867" y="86"/>
			<point x="680" y="76"/>
			<point x="569" y="88" type="curve"/>
			<point x="524" y="15" type="line"/>
			<point x="665" y="3"/>
			<point x="909" y="-5"/>
		</contour>
		<contour>
			<point x="900" y="315" type="curve"/>
			<point x="897" y="409" type="line"/>
			<point x="816" y="407"/>
			<point x="710" y="403"/>
			<point x="603" y="389" type="curve"/>
			<point x="604" y="317" type="line"/>
			<point x="724" y="327"/>
			<point x="813" y="326"/>
		</contour>
		<contour>
			<point x="999" y="659" type="curve"/>
			<point x="999" y="770" type="line"/>
			<point x="895" y="767"/>
			<point x="620" y="749"/>
			<point x="507" y="736" type="curve"/>
			<point x="591" y="663" type="line"/>
			<point x="662" y="669"/>
			<point x="849" y="683"/>
		</contour>
	</outline>
</glyph>
<glyph name="uni0237" format="2">
	<advance width="277.5"/>
	<unicode hex="0237"/>
	<anchor x="108" y="-233" name="bottom"/>
	<anchor x="130" y="529" name="top"/>
	<outline>
		<contour>
			<point x="-102" y="-175" type="curve"/>
			<point x="-90" y="-244" type="line"/>
			<point x="100" y="-260"/>
			<point x="194" y="-168"/>
			<point x="213" y="60" type="curve" smooth="yes"/>
			<point x="224" y="179"/>
			<point x="222" y="292"/>
			<point x="215" y="470" type="curve"/>
			<point x="67" y="447" type="line"/>
			<point x="92" y="235"/>
			<point x="100" y="127"/>
			<point x="97" y="22" type="curve" smooth="yes"/>
			<point x="93" y="-105"/>
			<point x="60" y="-189"/>
		</contour>
	</outline>
</glyph>
<glyph name="circumflex" format="2">
	<advance width="300"/>
	<unicode hex="02C6"/>
	<anchor x="150" y="520" name="_top"/>
	<anchor x="150" y="752" name="top"/>
	<outline>
		<contour>
			<point x="51" y="542" type="line"/>
			<point x="163" y="690" type="line"/>
			<point x="150" y="752" type="line"/>
			<point x="-16" y="576" type="line"/>
		</contour>
		<contour>
			<point x="249" y="542" type="line"/>
			<point x="317" y="576" type="line"/>
			<point x="150" y="752" type="line"/>
			<point x="138" y="690" type="line"/>
		</contour>
	</outline>
</glyph>
<glyph name="caron" format="2">
	<advance width="300"/>
	<unicode hex="02C7"/>
	<anchor x="150" y="520" name="_top"/>
	<anchor x="150" y="752" name="top"/>
	<outline>
		<contour>
			<point x="51" y="753" type="line"/>
			<point x="-16" y="719" type="line"/>
			<point x="150" y="543" type="line"/>
			<point x="163" y="606" type="line"/>
		</contour>
		<contour>
			<point x="249" y="753" type="line"/>
			<point x="138" y="606" type="line"/>
			<point x="150" y="543" type="line"/>
			<point x="317" y="719" type="line"/>
		</contour>
	</outline>
</glyph>
<glyph name="breve" format="2">
	<advance width="300"/>
	<unicode hex="02D8"/>
	<anchor x="150" y="520" name="_top"/>
	<anchor x="150" y="710" name="top"/>
	<outline>
		<contour>
			<point x="150" y="558" type="curve"/>
			<point x="241" y="558"/>
			<point x="285" y="620"/>
			<point x="285" y="711" type="curve"/>
			<point x="211" y="703" type="line"/>
			<point x="211" y="630"/>
			<point x="194" y="602"/>
			<point x="149" y="602" type="curve" smooth="yes"/>
			<point x="117" y="602"/>
			<point x="88" y="624"/>
			<point x="86" y="697" type="curve"/>
			<point x="16" y="693" type="line"/>
			<point x="16" y="593"/>
			<point x="89" y="558"/>
		</contour>
	</outline>
</glyph>
<glyph name="ogonek" format="2">
	<advance width="300"/>
	<unicode hex="02DB"/>
	<anchor x="200" y="-5" name="_ogonek"/>
	<outline>
		<contour>
			<point x="202" y="-215" type="curve"/>
			<point x="207" y="-153" type="line"/>
			<point x="144" y="-161"/>
			<point x="99" y="-139"/>
			<point x="99" y="-100" type="curve" smooth="yes"/>
			<point x="99" y="-69"/>
			<point x="131" y="-40"/>
			<point x="200" y="-5" type="curve"/>
			<point x="164" y="6" type="line"/>
			<point x="89" y="-30"/>
			<point x="49" y="-74"/>
			<point x="49" y="-117" type="curve" smooth="yes"/>
			<point x="49" y="-174"/>
			<point x="115" y="-216"/>
		</contour>
	</outline>
</glyph>
<glyph name="tilde" format="2">
	<advance width="300"/>
	<unicode hex="02DC"/>
	<anchor x="150" y="520" name="_top"/>
	<anchor x="150" y="710" name="top"/>
	<outline>
		<contour>
			<point x="-19" y="554" type="curve"/>
			<point x="41" y="550" type="line"/>
			<point x="39" y="600"/>
			<point x="55" y="634"/>
			<point x="82" y="634" type="curve" smooth="yes"/>
			<point x="129" y="634"/>
			<point x="172" y="547"/>
			<point x="233" y="547" type="curve" smooth="yes"/>
			<point x="265" y="547"/>
			<point x="319" y="582"/>
			<point x="319" y="675" type="curve"/>
			<point x="263" y="679" type="line"/>
			<point x="265" y="626"/>
			<point x="251" y="592"/>
			<point x="221" y="592" type="curve" smooth="yes"/>
			<point x="170" y="592"/>
			<point x="143" y="679"/>
			<point x="75" y="679" type="curve" smooth="yes"/>
			<point x="27" y="679"/>
			<point x="-19" y="644"/>
		</contour>
	</outline>
</glyph>
<glyph name="gravecomb" format="2">
	<advance width="0"/>
	<unicode hex="0300"/>
	<anchor x="150" y="520" name="_top"/>
	<anchor x="150" y="700" name="top"/>
	<outline>
		<contour>
			<point x="148" y="555" type="line"/>
			<point x="185" y="585" type="line"/>
			<point x="14" y="787" type="line"/>
			<point x="-38" y="736" type="line"/>
		</contour>
	</outline>
</glyph>
<glyph name="acutecomb" format="2">
	<advance width="0"/>
	<unicode hex="0301"/>
	<anchor x="150" y="520" name="_top"/>
	<anchor x="150" y="700" name="top"/>
	<outline>
		<contour>
			<point x="150" y="555" type="line"/>
			<point x="337" y="736" type="line"/>
			<point x="285" y="787" type="line"/>
			<point x="113" y="585" type="line"/>
		</contour>
	</outline>
</glyph>
<glyph name="uni0304" format="2">
	<advance width="0"/>
	<unicode hex="0304"/>
	<anchor x="150" y="520" name="_top"/>
	<anchor x="150" y="700" name="top"/>
	<outline>
		<contour>
			<point x="269" y="557" type="line"/>
			<point x="279" y="606" type="line"/>
			<point x="35" y="624" type="line"/>
			<point x="22" y="561" type="line"/>
		</contour>
	</outline>
</glyph>
<glyph name="uni0307" format="2">
	<advance width="0"/>
	<unicode hex="0307"/>
	<anchor x="150" y="520" name="_top"/>
	<anchor x="150" y="720" name="top"/>
	<outline>
		<contour>
			<point x="96" y="557" type="curve"/>
			<point x="210" y="561" type="line"/>
			<point x="207" y="602"/>
			<point x="210" y="639"/>
			<point x="212" y="681" type="curve"/>
			<point x="95" y="682" type="line"/>
			<point x="92" y="645"/>
			<point x="92" y="596"/>
		</contour>
	</outline>
</glyph>
<glyph name="uni030A" format="2">
	<advance width="0"/>
	<unicode hex="030A"/>
	<anchor x="150" y="520" name="_top"/>
	<anchor x="149" y="770" name="top"/>
	<outline>
		<contour>
			<point x="149" y="556" type="curve" smooth="yes"/>
			<point x="223" y="556"/>
			<point x="256" y="605"/>
			<point x="256" y="655" type="curve" smooth="yes"/>
			<point x="256" y="710"/>
			<point x="218" y="765"/>
			<point x="149" y="765" type="curve" smooth="yes"/>
			<point x="80" y="765"/>
			<point x="48" y="715"/>
			<point x="48" y="664" type="curve" smooth="yes"/>
			<point x="48" y="611"/>
			<point x="85" y="556"/>
		</contour>
		<contour>
			<point x="151" y="605" type="curve" smooth="yes"/>
			<point x="110" y="605"/>
			<point x="88" y="635"/>
			<point x="88" y="662" type="curve" smooth="yes"/>
			<point x="88" y="690"/>
			<point x="108" y="717"/>
			<point x="151" y="717" type="curve" smooth="yes"/>
			<point x="193" y="717"/>
			<point x="216" y="688"/>
			<point x="216" y="658" type="curve" smooth="yes"/>
			<point x="216" y="630"/>
			<point x="197" y="605"/>
		</contour>
	</outline>
</glyph>
<glyph name="uni030B" format="2">
	<advance width="0"/>
	<unicode hex="030B"/>
	<anchor x="150" y="520" name="_top"/>
	<anchor x="150" y="700" name="top"/>
	<outline>
		<contour>
			<point x="10" y="553" type="line"/>
			<point x="197" y="733" type="line"/>
			<point x="145" y="785" type="line"/>
			<point x="-27" y="582" type="line"/>
		</contour>
		<contour>
			<point x="200" y="556" type="line"/>
			<point x="387" y="737" type="line"/>
			<point x="335" y="788" type="line"/>
			<point x="163" y="586" type="line"/>
		</contour>
	</outline>
</glyph>
<glyph name="uni0312" format="2">
	<advance width="0"/>
	<unicode hex="0312"/>
	<anchor x="150" y="520" name="_top"/>
	<anchor x="150" y="830" name="top"/>
	<outline>
		<contour>
			<point x="199" y="704" type="curve"/>
			<point x="158" y="754" type="line"/>
			<point x="126" y="724"/>
			<point x="111" y="692"/>
			<point x="109" y="648" type="curve" smooth="yes"/>
			<point x="108" y="618"/>
			<point x="107" y="591"/>
			<point x="107" y="561" type="curve"/>
			<point x="195" y="557" type="line"/>
			<point x="198" y="585"/>
			<point x="197" y="622"/>
			<point x="194" y="651" type="curve"/>
			<point x="126" y="649" type="line"/>
			<point x="141" y="640" type="line"/>
			<point x="147" y="651"/>
			<point x="170" y="687"/>
		</contour>
	</outline>
</glyph>
<glyph name="uni0326" format="2">
	<advance width="0"/>
	<unicode hex="0326"/>
	<anchor x="150" y="0" name="_bottom"/>
	<anchor x="150" y="-310" name="bottom"/>
	<outline>
		<contour>
			<point x="105" y="-193" type="curve"/>
			<point x="146" y="-243" type="line"/>
			<point x="177" y="-212"/>
			<point x="193" y="-181"/>
			<point x="195" y="-137" type="curve" smooth="yes"/>
			<point x="196" y="-106"/>
			<point x="197" y="-80"/>
			<point x="197" y="-49" type="curve"/>
			<point x="108" y="-46" type="line"/>
			<point x="106" y="-74"/>
			<point x="106" y="-111"/>
			<point x="110" y="-140" type="curve"/>
			<point x="177" y="-137" type="line"/>
			<point x="160" y="-128" type="line"/>
			<point x="154" y="-151"/>
			<point x="133" y="-176"/>
		</contour>
	</outline>
</glyph>
<glyph name="uni060C" format="2">
	<advance width="301"/>
	<unicode hex="060C"/>
	<outline>
		<contour>
			<point x="157" y="-11" type="curve" smooth="yes"/>
			<point x="200" y="-11"/>
			<point x="239" y="20"/>
			<point x="239" y="73" type="curve" smooth="yes"/>
			<point x="239" y="133"/>
			<point x="173" y="163"/>
			<point x="126" y="134" type="curve"/>
			<point x="141" y="174"/>
			<point x="172" y="206"/>
			<point x="218" y="238" type="curve"/>
			<point x="144" y="307" type="line"/>
			<point x="86" y="257"/>
			<point x="55" y="172"/>
			<point x="55" y="113" type="curve" smooth="yes"/>
			<point x="55" y="45"/>
			<point x="89" y="-11"/>
		</contour>
	</outline>
</glyph>
<glyph name="uni0615" format="2">
	<advance width="0"/>
	<unicode hex="0615"/>
	<anchor x="41" y="577" name="_top"/>
	<anchor x="49" y="860" name="top"/>
	<outline>
		<contour>
			<point x="23" y="599" type="curve" smooth="yes"/>
			<point x="116" y="599"/>
			<point x="164" y="641"/>
			<point x="164" y="703" type="curve" smooth="yes"/>
			<point x="164" y="747"/>
			<point x="135" y="776"/>
			<point x="92" y="776" type="curve" smooth="yes"/>
			<point x="35" y="776"/>
			<point x="-11" y="716"/>
			<point x="-26" y="634" type="curve"/>
			<point x="-11" y="628" type="line"/>
			<point x="10" y="692"/>
			<point x="43" y="718"/>
			<point x="70" y="718" type="curve" smooth="yes"/>
			<point x="90" y="718"/>
			<point x="101" y="704"/>
			<point x="101" y="685" type="curve" smooth="yes"/>
			<point x="101" y="664"/>
			<point x="81" y="643"/>
			<point x="14" y="643" type="curve" smooth="yes"/>
			<point x="-25" y="644"/>
			<point x="-54" y="653"/>
			<point x="-71" y="658" type="curve"/>
			<point x="-79" y="616" type="line"/>
			<point x="-51" y="605"/>
			<point x="1" y="599"/>
		</contour>
		<contour>
			<point x="-39" y="634" type="curve"/>
			<point x="-14" y="631" type="line"/>
			<point x="13" y="693"/>
			<point x="20" y="784"/>
			<point x="13" y="859" type="curve"/>
			<point x="-61" y="849" type="line"/>
			<point x="-45" y="778"/>
			<point x="-33" y="718"/>
		</contour>
	</outline>
</glyph>
<glyph name="uni061F" format="2">
	<advance width="555"/>
	<unicode hex="061F"/>
	<outline>
		<contour>
			<point x="300" y="218" type="curve"/>
			<point x="374" y="224" type="line"/>
			<point x="374" y="431"/>
			<point x="159" y="448"/>
			<point x="159" y="561" type="curve" smooth="yes"/>
			<point x="159" y="599"/>
			<point x="184" y="637"/>
			<point x="253" y="637" type="curve" smooth="yes"/>
			<point x="324" y="637"/>
			<point x="391" y="609"/>
			<point x="454" y="566" type="curve"/>
			<point x="510" y="703" type="line"/>
			<point x="426" y="730"/>
			<point x="337" y="757"/>
			<point x="260" y="757" type="curve" smooth="yes"/>
			<point x="136" y="757"/>
			<point x="40" y="702"/>
			<point x="40" y="576" type="curve" smooth="yes"/>
			<point x="40" y="380"/>
			<point x="300" y="381"/>
		</contour>
		<component base="period.salt" xOffset="189"/>
	</outline>
</glyph>
<glyph name="uni0621" format="2">
	<advance width="480"/>
	<unicode hex="0621"/>
	<anchor x="242" y="-150" name="bottom"/>
	<anchor x="233" y="450" name="top"/>
	<outline>
		<contour>
			<point x="234" y="35" type="curve"/>
			<point x="276" y="35" type="line"/>
			<point x="445" y="58" type="line"/>
			<point x="404" y="145" type="line"/>
			<point x="350" y="119"/>
			<point x="288" y="98"/>
			<point x="232" y="98" type="curve" smooth="yes"/>
			<point x="171" y="98"/>
			<point x="123" y="123"/>
			<point x="123" y="179" type="curve" smooth="yes"/>
			<point x="123" y="227"/>
			<point x="164" y="257"/>
			<point x="212" y="257" type="curve" smooth="yes"/>
			<point x="247" y="257"/>
			<point x="288" y="241"/>
			<point x="324" y="201" type="curve"/>
			<point x="404" y="292" type="line"/>
			<point x="355" y="349"/>
			<point x="289" y="370"/>
			<point x="227" y="370" type="curve" smooth="yes"/>
			<point x="125" y="370"/>
			<point x="35" y="311"/>
			<point x="35" y="202" type="curve" smooth="yes"/>
			<point x="35" y="111"/>
			<point x="102" y="35"/>
		</contour>
		<contour>
			<point x="60" y="-25" type="curve"/>
			<point x="142" y="-118" type="line"/>
			<point x="225" y="-30"/>
			<point x="299" y="24"/>
			<point x="445" y="58" type="curve"/>
			<point x="359" y="92" type="line"/>
			<point x="238" y="72"/>
			<point x="118" y="29"/>
		</contour>
	</outline>
</glyph>
<glyph name="uni0627" format="2">
	<advance width="288.75"/>
	<unicode hex="0627"/>
	<anchor x="144" y="-100" name="bottom"/>
	<anchor x="144" y="770" name="top"/>
	<outline>
		<contour>
			<point x="104" y="-18" type="curve"/>
			<point x="180" y="2" type="line"/>
			<point x="212" y="219"/>
			<point x="224" y="463"/>
			<point x="217" y="734" type="curve"/>
			<point x="70" y="711" type="line"/>
			<point x="104" y="449"/>
			<point x="111" y="245"/>
		</contour>
	</outline>
</glyph>
<glyph name="uni062D" format="2">
	<advance width="637.5"/>
	<unicode hex="062D"/>
	<anchor x="340" y="-471" name="bottom"/>
	<anchor x="337" y="505" name="top"/>
	<outline>
		<contour>
			<point x="364" y="-421" type="curve" smooth="yes"/>
			<point x="439" y="-421"/>
			<point x="520" y="-405"/>
			<point x="600" y="-376" type="curve"/>
			<point x="540" y="-256" type="line"/>
			<point x="478" y="-291"/>
			<point x="404" y="-309"/>
			<point x="337" y="-309" type="curve" smooth="yes"/>
			<point x="223" y="-309"/>
			<point x="123" y="-255"/>
			<point x="123" y="-137" type="curve" smooth="yes"/>
			<point x="123" y="28"/>
			<point x="310" y="145"/>
			<point x="576" y="145" type="curve"/>
			<point x="592" y="267" type="line"/>
			<point x="493" y="248" type="line"/>
			<point x="269" y="240"/>
			<point x="55" y="85"/>
			<point x="55" y="-142" type="curve" smooth="yes"/>
			<point x="55" y="-337"/>
			<point x="192" y="-421"/>
		</contour>
		<contour>
			<point x="570" y="214" type="curve"/>
			<point x="592" y="267" type="line"/>
			<point x="404" y="345"/>
			<point x="222" y="421"/>
			<point x="57" y="398" type="curve"/>
			<point x="84" y="260" type="line"/>
			<point x="260" y="308"/>
			<point x="400" y="261"/>
		</contour>
	</outline>
</glyph>
<glyph name="uni062F" format="2">
	<advance width="393.25"/>
	<unicode hex="062F"/>
	<anchor x="215" y="-94" name="bottom"/>
	<anchor x="212" y="563" name="top"/>
	<outline>
		<contour>
			<point x="28" y="80" type="curve"/>
			<point x="37" y="0" type="line"/>
			<point x="211" y="0"/>
			<point x="338" y="42"/>
			<point x="338" y="187" type="curve" smooth="yes"/>
			<point x="338" y="247"/>
			<point x="320" y="354"/>
			<point x="282" y="445" type="curve"/>
			<point x="140" y="413" type="line"/>
			<point x="188" y="336"/>
			<point x="241" y="217"/>
			<point x="241" y="165" type="curve" smooth="yes"/>
			<point x="241" y="68"/>
			<point x="96" y="70"/>
		</contour>
	</outline>
</glyph>
<glyph name="uni0631" format="2">
	<advance width="326"/>
	<unicode hex="0631"/>
	<anchor x="126" y="-405" name="bottom"/>
	<anchor x="161" y="550" name="top"/>
	<outline>
		<contour>
			<point x="-80" y="-248" type="curve"/>
			<point x="23" y="-355" type="line"/>
			<point x="203" y="-193"/>
			<point x="271" y="-6"/>
			<point x="271" y="137" type="curve" smooth="yes"/>
			<point x="271" y="246"/>
			<point x="255" y="328"/>
			<point x="227" y="400" type="curve"/>
			<point x="149" y="372" type="line"/>
			<point x="170" y="323"/>
			<point x="181" y="268"/>
			<point x="181" y="212" type="curve" smooth="yes"/>
			<point x="181" y="55"/>
			<point x="98" y="-101"/>
		</contour>
	</outline>
</glyph>
<glyph name="uni0633" format="2">
	<advance width="1230"/>
	<unicode hex="0633"/>
	<anchor x="829" y="-100" name="bottom"/>
	<anchor x="799" y="550" name="top"/>
	<outline>
		<contour>
			<point x="304" y="-249" type="curve" smooth="yes"/>
			<point x="536" y="-249"/>
			<point x="598" y="-27"/>
			<point x="597" y="191" type="curve" smooth="yes"/>
			<point x="596" y="204"/>
			<point x="596" y="218"/>
			<point x="595" y="232" type="curve" smooth="yes"/>
			<point x="594" y="255"/>
			<point x="592" y="285"/>
			<point x="587" y="324" type="curve"/>
			<point x="443" y="301" type="line"/>
			<point x="464" y="224"/>
			<point x="476" y="156"/>
			<point x="476" y="70" type="curve" smooth="yes"/>
			<point x="476" y="-64"/>
			<point x="437" y="-182"/>
			<point x="319" y="-182" type="curve" smooth="yes"/>
			<point x="231" y="-182"/>
			<point x="161" y="-130"/>
			<point x="161" y="-31" type="curve" smooth="yes"/>
			<point x="161" y="46"/>
			<point x="206" y="114"/>
			<point x="277" y="160" type="curve"/>
			<point x="208" y="262" type="line"/>
			<point x="111" y="198"/>
			<point x="55" y="103"/>
			<point x="55" y="-9" type="curve" smooth="yes"/>
			<point x="55" y="-141"/>
			<point x="159" y="-249"/>
		</contour>
		<contour>
			<point x="693" y="-9" type="curve" smooth="yes"/>
			<point x="803" y="-9"/>
			<point x="883" y="66"/>
			<point x="883" y="249" type="curve" smooth="yes"/>
			<point x="883" y="283"/>
			<point x="883" y="306"/>
			<point x="884" y="330" type="curve"/>
			<point x="741" y="309" type="line"/>
			<point x="754" y="255"/>
			<point x="760" y="229"/>
			<point x="760" y="176" type="curve" smooth="yes"/>
			<point x="760" y="114"/>
			<point x="743" y="67"/>
			<point x="683" y="67" type="curve" smooth="yes"/>
			<point x="616" y="67"/>
			<point x="598" y="117"/>
			<point x="597" y="191" type="curve"/>
			<point x="535" y="180" type="line"/>
			<point x="535" y="56"/>
			<point x="601" y="-9"/>
		</contour>
		<contour>
			<point x="990" y="-11" type="curve" smooth="yes"/>
			<point x="1130" y="-11"/>
			<point x="1175" y="90"/>
			<point x="1175" y="211" type="curve" smooth="yes"/>
			<point x="1175" y="282"/>
			<point x="1169" y="329"/>
			<point x="1153" y="422" type="curve"/>
			<point x="1011" y="394" type="line"/>
			<point x="1037" y="309"/>
			<point x="1053" y="231"/>
			<point x="1053" y="172" type="curve" smooth="yes"/>
			<point x="1053" y="110"/>
			<point x="1035" y="63"/>
			<point x="980" y="63" type="curve" smooth="yes"/>
			<point x="903" y="63"/>
			<point x="883" y="149"/>
			<point x="883" y="249" type="curve"/>
			<point x="833" y="132" type="line"/>
			<point x="836" y="65"/>
			<point x="894" y="-11"/>
		</contour>
	</outline>
</glyph>
<glyph name="uni0635" format="2">
	<advance width="1152.5"/>
	<unicode hex="0635"/>
	<anchor x="842" y="-100" name="bottom"/>
	<anchor x="901" y="550" name="top"/>
	<outline>
		<contour>
			<point x="305" y="-247" type="curve" smooth="yes"/>
			<point x="603" y="-247"/>
			<point x="626" y="113"/>
			<point x="586" y="342" type="curve"/>
			<point x="438" y="320" type="line"/>
			<point x="498" y="125"/>
			<point x="514" y="-182"/>
			<point x="324" y="-182" type="curve" smooth="yes"/>
			<point x="236" y="-182"/>
			<point x="166" y="-130"/>
			<point x="166" y="-31" type="curve" smooth="yes"/>
			<point x="166" y="46"/>
			<point x="211" y="114"/>
			<point x="282" y="160" type="curve"/>
			<point x="211" y="267" type="line"/>
			<point x="113" y="203"/>
			<point x="55" y="108"/>
			<point x="55" y="-3" type="curve" smooth="yes"/>
			<point x="55" y="-142"/>
			<point x="161" y="-247"/>
		</contour>
		<contour>
			<point x="811" y="-10" type="curve" smooth="yes"/>
			<point x="954" y="-10"/>
			<point x="1098" y="86"/>
			<point x="1098" y="239" type="curve" smooth="yes"/>
			<point x="1098" y="346"/>
			<point x="1023" y="410"/>
			<point x="916" y="410" type="curve" smooth="yes"/>
			<point x="797" y="410"/>
			<point x="638" y="305"/>
			<point x="606" y="106" type="curve"/>
			<point x="654" y="83" type="line"/>
			<point x="700" y="230"/>
			<point x="790" y="306"/>
			<point x="867" y="306" type="curve" smooth="yes"/>
			<point x="922" y="306"/>
			<point x="961" y="271"/>
			<point x="961" y="213" type="curve" smooth="yes"/>
			<point x="961" y="135"/>
			<point x="885" y="66"/>
			<point x="800" y="66" type="curve" smooth="yes"/>
			<point x="680" y="66"/>
			<point x="620" y="150"/>
			<point x="586" y="342" type="curve"/>
			<point x="513" y="308" type="line"/>
			<point x="547" y="128"/>
			<point x="622" y="-10"/>
		</contour>
	</outline>
</glyph>
<glyph name="uni0637" format="2">
	<advance width="680"/>
	<unicode hex="0637"/>
	<anchor x="337" y="-90" name="bottom"/>
	<anchor x="448" y="550" name="top"/>
	<outline>
		<contour>
			<point x="268" y="-10" type="curve" smooth="yes"/>
			<point x="486" y="-10"/>
			<point x="625" y="79"/>
			<point x="625" y="231" type="curve" smooth="yes"/>
			<point x="625" y="343"/>
			<point x="548" y="410"/>
			<point x="443" y="410" type="curve" smooth="yes"/>
			<point x="324" y="410"/>
			<point x="183" y="302"/>
			<point x="145" y="76" type="curve"/>
			<point x="193" y="56" type="line"/>
			<point x="242" y="230"/>
			<point x="317" y="306"/>
			<point x="395" y="306" type="curve" smooth="yes"/>
			<point x="449" y="306"/>
			<point x="489" y="271"/>
			<point x="489" y="213" type="curve" smooth="yes"/>
			<point x="489" y="135"/>
			<point x="411" y="66"/>
			<point x="253" y="66" type="curve" smooth="yes"/>
			<point x="157" y="66"/>
			<point x="105" y="84"/>
			<point x="56" y="99" type="curve"/>
			<point x="38" y="31" type="line"/>
			<point x="90" y="11"/>
			<point x="195" y="-10"/>
		</contour>
		<contour>
			<point x="114" y="40" type="curve"/>
			<point x="187" y="58" type="line"/>
			<point x="219" y="253"/>
			<point x="236" y="509"/>
			<point x="229" y="753" type="curve"/>
			<point x="83" y="733" type="line"/>
			<point x="117" y="496"/>
			<point x="121" y="277"/>
		</contour>
	</outline>
</glyph>
<glyph name="uni0639" format="2">
	<advance width="581.75"/>
	<unicode hex="0639"/>
	<anchor x="294" y="-472" name="bottom"/>
	<anchor x="294" y="550" name="top"/>
	<outline>
		<contour>
			<point x="322" y="-422" type="curve" smooth="yes"/>
			<point x="387" y="-422"/>
			<point x="453" y="-410"/>
			<point x="562" y="-379" type="curve"/>
			<point x="506" y="-260" type="line"/>
			<point x="425" y="-299"/>
			<point x="346" y="-311"/>
			<point x="294" y="-311" type="curve" smooth="yes"/>
			<point x="209" y="-311"/>
			<point x="106" y="-285"/>
			<point x="106" y="-179" type="curve" smooth="yes"/>
			<point x="106" y="-52"/>
			<point x="254" y="49"/>
			<point x="496" y="49" type="curve"/>
			<point x="446" y="124" type="line"/>
			<point x="254" y="114" type="line"/>
			<point x="118" y="57"/>
			<point x="38" y="-44"/>
			<point x="38" y="-177" type="curve" smooth="yes"/>
			<point x="38" y="-335"/>
			<point x="162" y="-422"/>
		</contour>
		<contour>
			<point x="296" y="63" type="curve"/>
			<point x="496" y="49" type="line"/>
			<point x="464" y="165" type="line"/>
			<point x="413" y="165"/>
			<point x="346" y="130"/>
			<point x="260" y="130" type="curve" smooth="yes"/>
			<point x="199" y="130"/>
			<point x="150" y="172"/>
			<point x="150" y="223" type="curve" smooth="yes"/>
			<point x="150" y="273"/>
			<point x="194" y="316"/>
			<point x="260" y="316" type="curve" smooth="yes"/>
			<point x="312" y="316"/>
			<point x="362" y="289"/>
			<point x="386" y="266" type="curve"/>
			<point x="464" y="355" type="line"/>
			<point x="411" y="410"/>
			<point x="344" y="430"/>
			<point x="278" y="430" type="curve" smooth="yes"/>
			<point x="172" y="430"/>
			<point x="76" y="370"/>
			<point x="76" y="256" type="curve" smooth="yes"/>
			<point x="76" y="155"/>
			<point x="149" y="63"/>
		</contour>
	</outline>
</glyph>
<glyph name="uni0643" format="2">
	<advance width="855"/>
	<unicode hex="0643"/>
	<anchor x="480" y="-107" name="bottom"/>
	<anchor x="609" y="794" name="top"/>
	<outline>
		<contour>
			<point x="474" y="-7" type="curve" smooth="yes"/>
			<point x="717" y="-7"/>
			<point x="785" y="139"/>
			<point x="785" y="354" type="curve" smooth="yes"/>
			<point x="785" y="473"/>
			<point x="775" y="614"/>
			<point x="761" y="737" type="curve"/>
			<point x="610" y="713" type="line"/>
			<point x="649" y="544"/>
			<point x="686" y="362"/>
			<point x="683" y="232" type="curve" smooth="yes"/>
			<point x="681" y="122"/>
			<point x="608" y="63"/>
			<point x="495" y="63" type="curve" smooth="yes"/>
			<point x="385" y="63"/>
			<point x="236" y="114"/>
			<point x="171" y="297" type="curve"/>
			<point x="45" y="218" type="line"/>
			<point x="158" y="35"/>
			<point x="341" y="-7"/>
		</contour>
		<contour>
			<point x="448" y="203" type="line"/>
			<point x="523" y="203"/>
			<point x="560" y="274"/>
			<point x="560" y="312" type="curve" smooth="yes"/>
			<point x="560" y="399"/>
			<point x="420" y="330"/>
			<point x="420" y="368" type="curve" smooth="yes"/>
			<point x="420" y="388"/>
			<point x="460" y="410"/>
			<point x="516" y="394" type="curve"/>
			<point x="523" y="449" type="line"/>
			<point x="431" y="459"/>
			<point x="380" y="403"/>
			<point x="380" y="354" type="curve" smooth="yes"/>
			<point x="380" y="273"/>
			<point x="483" y="298"/>
			<point x="525" y="304" type="curve"/>
			<point x="522" y="278"/>
			<point x="454" y="255"/>
			<point x="404" y="257" type="curve"/>
			<point x="402" y="250" type="line"/>
		</contour>
	</outline>
</glyph>
<glyph name="uni0645" format="2">
	<advance width="655"/>
	<unicode hex="0645"/>
	<anchor x="417" y="-105" name="bottom"/>
	<anchor x="359" y="550" name="top"/>
	<outline>
		<contour>
			<point x="93" y="-400" type="curve"/>
			<point x="234" y="-352" type="line"/>
			<point x="194" y="-247"/>
			<point x="171" y="-144"/>
			<point x="171" y="-86" type="curve" smooth="yes"/>
			<point x="171" y="-38"/>
			<point x="185" y="8"/>
			<point x="260" y="8" type="curve" smooth="yes"/>
			<point x="335" y="8"/>
			<point x="390" y="-14"/>
			<point x="459" y="-14" type="curve" smooth="yes"/>
			<point x="528" y="-14"/>
			<point x="600" y="14"/>
			<point x="600" y="129" type="curve" smooth="yes"/>
			<point x="600" y="272"/>
			<point x="500" y="405"/>
			<point x="356" y="405" type="curve" smooth="yes"/>
			<point x="194" y="405"/>
			<point x="144" y="166"/>
			<point x="144" y="48" type="curve"/>
			<point x="224" y="69" type="line"/>
			<point x="224" y="147"/>
			<point x="259" y="295"/>
			<point x="345" y="295" type="curve" smooth="yes"/>
			<point x="407" y="295"/>
			<point x="460" y="224"/>
			<point x="460" y="141" type="curve" smooth="yes"/>
			<point x="460" y="44"/>
			<point x="317" y="82"/>
			<point x="201" y="82" type="curve" smooth="yes"/>
			<point x="108" y="82"/>
			<point x="59" y="-9"/>
			<point x="59" y="-121" type="curve" smooth="yes"/>
			<point x="59" y="-200"/>
			<point x="70" y="-289"/>
		</contour>
	</outline>
</glyph>
<glyph name="uni0647" format="2">
	<advance width="480"/>
	<unicode hex="0647"/>
	<anchor x="242" y="-100" name="bottom"/>
	<anchor x="242" y="550" name="top"/>
	<outline>
		<contour>
			<point x="202" y="-10" type="curve" smooth="yes"/>
			<point x="289" y="-10"/>
			<point x="435" y="36"/>
			<point x="435" y="141" type="curve" smooth="yes"/>
			<point x="435" y="258"/>
			<point x="321" y="390"/>
			<point x="228" y="468" type="curve"/>
			<point x="133" y="381" type="line"/>
			<point x="235" y="317"/>
			<point x="350" y="243"/>
			<point x="350" y="190" type="curve" smooth="yes"/>
			<point x="350" y="145"/>
			<point x="253" y="119"/>
			<point x="209" y="119" type="curve" smooth="yes"/>
			<point x="161" y="119"/>
			<point x="137" y="137"/>
			<point x="137" y="173" type="curve" smooth="yes"/>
			<point x="137" y="228"/>
			<point x="196" y="309"/>
			<point x="259" y="394" type="curve"/>
			<point x="222" y="431" type="line"/>
			<point x="127" y="315"/>
			<point x="45" y="210"/>
			<point x="45" y="120" type="curve" smooth="yes"/>
			<point x="45" y="49"/>
			<point x="87" y="-10"/>
		</contour>
	</outline>
</glyph>
<glyph name="uni0648" format="2">
	<advance width="520"/>
	<unicode hex="0648"/>
	<anchor x="255" y="-450" name="bottom"/>
	<anchor x="255" y="550" name="top"/>
	<outline>
		<contour>
			<point x="80" y="-260" type="curve"/>
			<point x="179" y="-371" type="line"/>
			<point x="317" y="-264"/>
			<point x="468" y="-104"/>
			<point x="468" y="119" type="curve" smooth="yes"/>
			<point x="468" y="296"/>
			<point x="374" y="399"/>
			<point x="254" y="399" type="curve" smooth="yes"/>
			<point x="135" y="399"/>
			<point x="53" y="315"/>
			<point x="53" y="205" type="curve" smooth="yes"/>
			<point x="53" y="84"/>
			<point x="170" y="-3"/>
			<point x="380" y="-3" type="curve"/>
			<point x="393" y="63" type="line"/>
			<point x="237" y="63"/>
			<point x="158" y="118"/>
			<point x="158" y="189" type="curve" smooth="yes"/>
			<point x="158" y="242"/>
			<point x="203" y="274"/>
			<point x="250" y="274" type="curve" smooth="yes"/>
			<point x="317" y="274"/>
			<point x="391" y="220"/>
			<point x="391" y="112" type="curve" smooth="yes"/>
			<point x="391" y="-35"/>
			<point x="248" y="-161"/>
		</contour>
	</outline>
</glyph>
<glyph name="uni0649" format="2">
	<advance width="817.5"/>
	<unicode hex="0649"/>
	<anchor x="402" y="-360" name="bottom"/>
	<anchor x="402" y="450" name="top"/>
	<outline>
		<contour>
			<point x="409" y="-310" type="curve" smooth="yes"/>
			<point x="611" y="-310"/>
			<point x="706" y="-171"/>
			<point x="706" y="-49" type="curve" smooth="yes"/>
			<point x="706" y="103"/>
			<point x="505" y="119"/>
			<point x="391" y="106" type="curve"/>
			<point x="350" y="-31" type="line"/>
			<point x="549" y="8"/>
			<point x="636" y="-37"/>
			<point x="636" y="-87" type="curve" smooth="yes"/>
			<point x="636" y="-152"/>
			<point x="550" y="-220"/>
			<point x="435" y="-220" type="curve" smooth="yes"/>
			<point x="321" y="-220"/>
			<point x="175" y="-143"/>
			<point x="168" y="118" type="curve"/>
			<point x="35" y="67" type="line"/>
			<point x="58" y="-182"/>
			<point x="231" y="-310"/>
		</contour>
		<contour>
			<point x="350" y="-31" type="curve"/>
			<point x="419" y="21" type="line"/>
			<point x="419" y="200"/>
			<point x="527" y="284"/>
			<point x="576" y="284" type="curve" smooth="yes"/>
			<point x="610" y="284"/>
			<point x="629" y="256"/>
			<point x="629" y="173" type="curve"/>
			<point x="763" y="182" type="line"/>
			<point x="763" y="282"/>
			<point x="737" y="396"/>
			<point x="624" y="396" type="curve" smooth="yes"/>
			<point x="454" y="396"/>
			<point x="350" y="202"/>
		</contour>
	</outline>
</glyph>
<glyph name="uni064B" format="2">
	<advance width="0"/>
	<unicode hex="064B"/>
	<anchor x="50" y="575" name="_top"/>
	<anchor x="50" y="759" name="top"/>
	<outline>
		<contour>
			<point x="-71" y="669" type="curve"/>
			<point x="-71" y="608" type="line"/>
			<point x="35" y="638"/>
			<point x="80" y="651"/>
			<point x="171" y="675" type="curve"/>
			<point x="171" y="712" type="line"/>
			<point x="84" y="697"/>
			<point x="25" y="686"/>
		</contour>
		<contour>
			<point x="-71" y="738" type="curve"/>
			<point x="-71" y="701" type="line"/>
			<point x="16" y="718"/>
			<point x="75" y="729"/>
			<point x="171" y="747" type="curve"/>
			<point x="171" y="807" type="line"/>
			<point x="65" y="777"/>
			<point x="20" y="764"/>
		</contour>
	</outline>
</glyph>
<glyph name="uni064C" format="2">
	<advance width="0"/>
	<unicode hex="064C"/>
	<anchor x="50" y="585" name="_top"/>
	<anchor x="50" y="771" name="top"/>
	<outline>
		<contour>
			<point x="-70" y="611" type="curve"/>
			<point x="-10" y="611" type="line"/>
			<point x="-11" y="630"/>
			<point x="-11" y="644"/>
			<point x="-8" y="664" type="curve"/>
			<point x="12" y="637"/>
			<point x="43" y="622"/>
			<point x="78" y="622" type="curve" smooth="yes"/>
			<point x="143" y="622"/>
			<point x="171" y="661"/>
			<point x="171" y="705" type="curve" smooth="yes"/>
			<point x="171" y="749"/>
			<point x="146" y="781"/>
			<point x="105" y="781" type="curve" smooth="yes"/>
			<point x="61" y="781"/>
			<point x="35" y="748"/>
			<point x="35" y="705" type="curve" smooth="yes"/>
			<point x="35" y="674"/>
			<point x="52" y="646"/>
			<point x="75" y="627" type="curve"/>
			<point x="110" y="633" type="line"/>
			<point x="91" y="647"/>
			<point x="71" y="665"/>
			<point x="71" y="690" type="curve" smooth="yes"/>
			<point x="71" y="706"/>
			<point x="80" y="718"/>
			<point x="96" y="718" type="curve" smooth="yes"/>
			<point x="110" y="718"/>
			<point x="121" y="708"/>
			<point x="121" y="692" type="curve" smooth="yes"/>
			<point x="121" y="672"/>
			<point x="104" y="656"/>
			<point x="74" y="656" type="curve" smooth="yes"/>
			<point x="34" y="656"/>
			<point x="7" y="684"/>
			<point x="-3" y="724" type="curve"/>
			<point x="-25" y="728" type="line"/>
			<point x="-54" y="700"/>
			<point x="-66" y="659"/>
		</contour>
	</outline>
</glyph>
<glyph name="uni064D" format="2">
	<advance width="0"/>
	<unicode hex="064D"/>
	<anchor x="50" y="0" name="_bottom"/>
	<anchor x="50" y="-184" name="bottom"/>
	<outline>
		<contour>
			<point x="-71" y="-127" type="curve"/>
			<point x="-71" y="-188" type="line"/>
			<point x="35" y="-158"/>
			<point x="80" y="-145"/>
			<point x="171" y="-121" type="curve"/>
			<point x="171" y="-84" type="line"/>
			<point x="84" y="-99"/>
			<point x="25" y="-110"/>
		</contour>
		<contour>
			<point x="-71" y="-58" type="curve"/>
			<point x="-71" y="-95" type="line"/>
			<point x="16" y="-78"/>
			<point x="75" y="-67"/>
			<point x="171" y="-49" type="curve"/>
			<point x="171" y="11" type="line"/>
			<point x="65" y="-19"/>
			<point x="20" y="-32"/>
		</contour>
	</outline>
</glyph>
<glyph name="uni064E" format="2">
	<advance width="0"/>
	<unicode hex="064E"/>
	<anchor x="50" y="602" name="_top"/>
	<anchor x="49" y="697" name="top"/>
	<outline>
		<contour>
			<point x="-71" y="679" type="curve"/>
			<point x="-71" y="618" type="line"/>
			<point x="35" y="648"/>
			<point x="80" y="661"/>
			<point x="171" y="685" type="curve"/>
			<point x="171" y="722" type="line"/>
			<point x="84" y="707"/>
			<point x="25" y="696"/>
		</contour>
	</outline>
</glyph>
<glyph name="uni064F" format="2">
	<advance width="0"/>
	<unicode hex="064F"/>
	<anchor x="50" y="565" name="_top"/>
	<anchor x="50" y="766" name="top"/>
	<outline>
		<contour>
			<point x="-71" y="647" type="curve"/>
			<point x="-71" y="586" type="line"/>
			<point x="12" y="600"/>
			<point x="83" y="610"/>
			<point x="125" y="632" type="curve" smooth="yes"/>
			<point x="157" y="649"/>
			<point x="171" y="677"/>
			<point x="171" y="711" type="curve" smooth="yes"/>
			<point x="171" y="749"/>
			<point x="146" y="781"/>
			<point x="105" y="781" type="curve" smooth="yes"/>
			<point x="61" y="781"/>
			<point x="35" y="748"/>
			<point x="35" y="705" type="curve" smooth="yes"/>
			<point x="35" y="674"/>
			<point x="52" y="646"/>
			<point x="75" y="627" type="curve"/>
			<point x="112" y="633" type="line"/>
			<point x="93" y="647"/>
			<point x="73" y="667"/>
			<point x="73" y="691" type="curve" smooth="yes"/>
			<point x="73" y="707"/>
			<point x="84" y="720"/>
			<point x="101" y="720" type="curve" smooth="yes"/>
			<point x="115" y="720"/>
			<point x="126" y="710"/>
			<point x="126" y="696" type="curve" smooth="yes"/>
			<point x="126" y="676"/>
			<point x="110" y="664"/>
			<point x="72" y="658" type="curve" smooth="yes"/>
			<point x="34" y="652"/>
			<point x="2" y="651"/>
		</contour>
	</outline>
</glyph>
<glyph name="uni0650" format="2">
	<advance width="0"/>
	<unicode hex="0650"/>
	<anchor x="50" y="-60" name="_bottom"/>
	<anchor x="50" y="-173" name="bottom"/>
	<outline>
		<contour>
			<point x="-71" y="-118" type="curve"/>
			<point x="-71" y="-179" type="line"/>
			<point x="35" y="-149"/>
			<point x="80" y="-136"/>
			<point x="171" y="-112" type="curve"/>
			<point x="171" y="-75" type="line"/>
			<point x="84" y="-90"/>
			<point x="25" y="-101"/>
		</contour>
	</outline>
</glyph>
<glyph name="uni0652" format="2">
	<advance width="0"/>
	<unicode hex="0652"/>
	<anchor x="50" y="563" name="_top"/>
	<anchor x="50" y="755" name="top"/>
	<outline>
		<contour>
			<point x="27" y="593" type="curve" smooth="yes"/>
			<point x="90" y="593"/>
			<point x="146" y="630"/>
			<point x="146" y="689" type="curve" smooth="yes"/>
			<point x="146" y="732"/>
			<point x="111" y="762"/>
			<point x="58" y="762" type="curve" smooth="yes"/>
			<point x="9" y="762"/>
			<point x="-54" y="724"/>
			<point x="-54" y="660" type="curve" smooth="yes"/>
			<point x="-54" y="625"/>
			<point x="-26" y="593"/>
		</contour>
		<contour>
			<point x="26" y="631" type="curve" smooth="yes"/>
			<point x="-2" y="631"/>
			<point x="-17" y="642"/>
			<point x="-17" y="663" type="curve" smooth="yes"/>
			<point x="-17" y="683"/>
			<point x="10" y="709"/>
			<point x="42" y="709" type="curve" smooth="yes"/>
			<point x="69" y="709"/>
			<point x="82" y="694"/>
			<point x="82" y="674" type="curve" smooth="yes"/>
			<point x="82" y="656"/>
			<point x="61" y="631"/>
		</contour>
	</outline>
</glyph>
<glyph name="uni0653" format="2">
	<advance width="0"/>
	<unicode hex="0653"/>
	<anchor x="101" y="615" name="_top"/>
	<anchor x="99" y="751" name="top"/>
	<outline>
		<contour>
			<point x="-78" y="732" type="curve"/>
			<point x="-61" y="645" type="line"/>
			<point x="-32" y="677"/>
			<point x="2" y="716"/>
			<point x="32" y="716" type="curve" smooth="yes"/>
			<point x="68" y="716"/>
			<point x="85" y="647"/>
			<point x="172" y="647" type="curve" smooth="yes"/>
			<point x="213" y="647"/>
			<point x="246" y="662"/>
			<point x="279" y="675" type="curve"/>
			<point x="262" y="760" type="line"/>
			<point x="226" y="736"/>
			<point x="190" y="712"/>
			<point x="144" y="712" type="curve" smooth="yes"/>
			<point x="88" y="712"/>
			<point x="57" y="760"/>
			<point x="3" y="760" type="curve" smooth="yes"/>
			<point x="-22" y="760"/>
			<point x="-51" y="750"/>
		</contour>
	</outline>
</glyph>
<glyph name="uni0654" format="2">
	<advance width="0"/>
	<unicode hex="0654"/>
	<anchor x="48" y="606" name="_top"/>
	<anchor x="43" y="829" name="top"/>
	<outline>
		<contour>
			<point x="40" y="688" type="curve"/>
			<point x="58" y="682" type="line"/>
			<point x="151" y="684" type="line"/>
			<point x="151" y="735" type="line"/>
			<point x="117" y="720"/>
			<point x="105" y="715"/>
			<point x="70" y="708" type="curve" smooth="yes"/>
			<point x="18" y="698"/>
			<point x="-8" y="717"/>
			<point x="-8" y="739" type="curve" smooth="yes"/>
			<point x="-8" y="758"/>
			<point x="11" y="767"/>
			<point x="31" y="767" type="curve" smooth="yes"/>
			<point x="51" y="767"/>
			<point x="67" y="760"/>
			<point x="82" y="748" type="curve"/>
			<point x="130" y="794" type="line"/>
			<point x="104" y="820"/>
			<point x="70" y="826"/>
			<point x="39" y="826" type="curve" smooth="yes"/>
			<point x="-11" y="826"/>
			<point x="-56" y="801"/>
			<point x="-56" y="757" type="curve" smooth="yes"/>
			<point x="-56" y="720"/>
			<point x="-24" y="688"/>
		</contour>
		<contour>
			<point x="-64" y="680" type="curve"/>
			<point x="-64" y="604" type="line"/>
			<point x="30" y="642"/>
			<point x="70" y="655"/>
			<point x="151" y="679" type="curve"/>
			<point x="151" y="721" type="line"/>
			<point x="74" y="708"/>
			<point x="21" y="698"/>
		</contour>
	</outline>
</glyph>
<glyph name="uni0655" format="2">
	<advance width="0"/>
	<unicode hex="0655"/>
	<anchor x="51" y="10" name="_bottom"/>
	<anchor x="52" y="-204" name="bottom"/>
	<outline>
		<contour>
			<point x="42" y="-150" type="curve"/>
			<point x="60" y="-148" type="line"/>
			<point x="153" y="-144" type="line"/>
			<point x="153" y="-93" type="line"/>
			<point x="119" y="-108"/>
			<point x="107" y="-113"/>
			<point x="72" y="-120" type="curve" smooth="yes"/>
			<point x="20" y="-130"/>
			<point x="-6" y="-111"/>
			<point x="-6" y="-89" type="curve" smooth="yes"/>
			<point x="-6" y="-70"/>
			<point x="13" y="-61"/>
			<point x="33" y="-61" type="curve" smooth="yes"/>
			<point x="53" y="-61"/>
			<point x="69" y="-68"/>
			<point x="84" y="-80" type="curve"/>
			<point x="132" y="-34" type="line"/>
			<point x="106" y="-8"/>
			<point x="72" y="-2"/>
			<point x="41" y="-2" type="curve" smooth="yes"/>
			<point x="-9" y="-2"/>
			<point x="-54" y="-26"/>
			<point x="-54" y="-75" type="curve" smooth="yes"/>
			<point x="-54" y="-112"/>
			<point x="-22" y="-150"/>
		</contour>
		<contour>
			<point x="-62" y="-148" type="curve"/>
			<point x="-62" y="-224" type="line"/>
			<point x="32" y="-186"/>
			<point x="72" y="-173"/>
			<point x="153" y="-149" type="curve"/>
			<point x="153" y="-107" type="line"/>
			<point x="76" y="-120"/>
			<point x="23" y="-130"/>
		</contour>
	</outline>
</glyph>
<glyph name="uni0658" format="2">
	<advance width="0"/>
	<unicode hex="0658"/>
	<anchor x="51" y="617" name="_top"/>
	<anchor x="51" y="797" name="top"/>
	<outline>
		<contour>
			<point x="36" y="641" type="curve" smooth="yes"/>
			<point x="133" y="641"/>
			<point x="157" y="756"/>
			<point x="134" y="824" type="curve"/>
			<point x="57" y="812" type="line"/>
			<point x="80" y="757"/>
			<point x="92" y="670"/>
			<point x="46" y="670" type="curve" smooth="yes"/>
			<point x="29" y="670"/>
			<point x="17" y="682"/>
			<point x="17" y="698" type="curve" smooth="yes"/>
			<point x="17" y="713"/>
			<point x="24" y="729"/>
			<point x="38" y="741" type="curve"/>
			<point x="5" y="790" type="line"/>
			<point x="-27" y="772"/>
			<point x="-40" y="741"/>
			<point x="-40" y="711" type="curve" smooth="yes"/>
			<point x="-40" y="664"/>
			<point x="-3" y="641"/>
		</contour>
	</outline>
</glyph>
<glyph name="uni0660" format="2">
	<advance width="386.75"/>
	<unicode hex="0660"/>
	<outline>
		<contour>
			<point x="201" y="198" type="curve"/>
			<point x="299" y="298" type="line"/>
			<point x="254" y="330"/>
			<point x="221" y="359"/>
			<point x="185" y="399" type="curve"/>
			<point x="88" y="295" type="line"/>
			<point x="117" y="258"/>
			<point x="159" y="225"/>
		</contour>
	</outline>
</glyph>
<glyph name="uni0661" format="2">
	<advance width="319.75"/>
	<unicode hex="0661"/>
	<outline>
		<contour>
			<point x="159" y="0" type="curve"/>
			<point x="243" y="14" type="line"/>
			<point x="258" y="212"/>
			<point x="243" y="521"/>
			<point x="221" y="695" type="curve"/>
			<point x="70" y="660" type="line"/>
			<point x="124" y="436"/>
			<point x="156" y="207"/>
		</contour>
	</outline>
</glyph>
<glyph name="uni0662" format="2">
	<advance width="575"/>
	<unicode hex="0662"/>
	<outline>
		<contour>
			<point x="91" y="-9" type="curve"/>
			<point x="242" y="15" type="line"/>
			<point x="192" y="213"/>
			<point x="167" y="352"/>
			<point x="167" y="451" type="curve" smooth="yes"/>
			<point x="167" y="552"/>
			<point x="204" y="584"/>
			<point x="270" y="584" type="curve" smooth="yes"/>
			<point x="319" y="584"/>
			<point x="386" y="566"/>
			<point x="482" y="515" type="curve"/>
			<point x="540" y="646" type="line"/>
			<point x="464" y="662"/>
			<point x="397" y="671"/>
			<point x="317" y="671" type="curve" smooth="yes"/>
			<point x="159" y="671"/>
			<point x="81" y="583"/>
			<point x="72" y="403" type="curve" smooth="yes"/>
			<point x="64" y="277"/>
			<point x="78" y="153"/>
		</contour>
	</outline>
</glyph>
<glyph name="uni0663" format="2">
	<advance width="720"/>
	<unicode hex="0663"/>
	<outline>
		<contour>
			<point x="138" y="-7" type="curve"/>
			<point x="290" y="11" type="line"/>
			<point x="298" y="227"/>
			<point x="237" y="487"/>
			<point x="162" y="675" type="curve"/>
			<point x="80" y="650" type="line"/>
			<point x="142" y="422"/>
			<point x="164" y="244"/>
		</contour>
		<contour>
			<point x="326" y="356" type="curve" smooth="yes"/>
			<point x="465" y="356"/>
			<point x="435" y="565"/>
			<point x="443" y="634" type="curve"/>
			<point x="322" y="630" type="line"/>
			<point x="336" y="593"/>
			<point x="349" y="520"/>
			<point x="349" y="483" type="curve" smooth="yes"/>
			<point x="349" y="457"/>
			<point x="340" y="430"/>
			<point x="307" y="430" type="curve" smooth="yes"/>
			<point x="237" y="430"/>
			<point x="207" y="572"/>
			<point x="162" y="675" type="curve"/>
			<point x="152" y="580" type="line"/>
			<point x="163" y="537"/>
			<point x="197" y="356"/>
		</contour>
		<contour>
			<point x="531" y="348" type="curve" smooth="yes"/>
			<point x="602" y="348"/>
			<point x="675" y="401"/>
			<point x="675" y="553" type="curve" smooth="yes"/>
			<point x="675" y="614"/>
			<point x="669" y="650"/>
			<point x="660" y="699" type="curve"/>
			<point x="530" y="666" type="line"/>
			<point x="555" y="608"/>
			<point x="572" y="541"/>
			<point x="572" y="486" type="curve" smooth="yes"/>
			<point x="572" y="455"/>
			<point x="565" y="414"/>
			<point x="521" y="414" type="curve" smooth="yes"/>
			<point x="445" y="414"/>
			<point x="445" y="580"/>
			<point x="443" y="634" type="curve"/>
			<point x="412" y="471" type="line"/>
			<point x="415" y="409"/>
			<point x="459" y="348"/>
		</contour>
	</outline>
</glyph>
<glyph name="uni0664" format="2">
	<advance width="597.5"/>
	<unicode hex="0664"/>
	<outline>
		<contour>
			<point x="288" y="-10" type="curve" smooth="yes"/>
			<point x="373" y="-10"/>
			<point x="443" y="-1"/>
			<point x="545" y="28" type="curve"/>
			<point x="492" y="162" type="line"/>
			<point x="419" y="127"/>
			<point x="341" y="106"/>
			<point x="278" y="106" type="curve" smooth="yes"/>
			<point x="211" y="106"/>
			<point x="150" y="132"/>
			<point x="150" y="207" type="curve" smooth="yes"/>
			<point x="150" y="286"/>
			<point x="240" y="316"/>
			<point x="300" y="320" type="curve" smooth="yes"/>
			<point x="370" y="325"/>
			<point x="404" y="320"/>
			<point x="465" y="320" type="curve"/>
			<point x="374" y="408" type="line"/>
			<point x="278" y="395"/>
			<point x="53" y="354"/>
			<point x="53" y="175" type="curve" smooth="yes"/>
			<point x="53" y="44"/>
			<point x="167" y="-10"/>
		</contour>
		<contour>
			<point x="293" y="359" type="curve"/>
			<point x="465" y="320" type="line"/>
			<point x="429" y="452" type="line"/>
			<point x="390" y="440"/>
			<point x="341" y="430"/>
			<point x="291" y="430" type="curve" smooth="yes"/>
			<point x="222" y="430"/>
			<point x="176" y="466"/>
			<point x="176" y="515" type="curve" smooth="yes"/>
			<point x="176" y="555"/>
			<point x="207" y="598"/>
			<point x="300" y="598" type="curve" smooth="yes"/>
			<point x="349" y="598"/>
			<point x="401" y="583"/>
			<point x="447" y="562" type="curve"/>
			<point x="518" y="663" type="line"/>
			<point x="446" y="696"/>
			<point x="391" y="710"/>
			<point x="315" y="710" type="curve" smooth="yes"/>
			<point x="179" y="710"/>
			<point x="73" y="650"/>
			<point x="73" y="533" type="curve" smooth="yes"/>
			<point x="73" y="416"/>
			<point x="179" y="359"/>
		</contour>
	</outline>
</glyph>
<glyph name="uni0665" format="2">
	<advance width="642.5"/>
	<unicode hex="0665"/>
	<outline>
		<contour>
			<point x="281" y="-10" type="curve" smooth="yes"/>
			<point x="501" y="-10"/>
			<point x="588" y="125"/>
			<point x="588" y="287" type="curve" smooth="yes"/>
			<point x="588" y="457"/>
			<point x="495" y="593"/>
			<point x="320" y="710" type="curve"/>
			<point x="251" y="568" type="line"/>
			<point x="444" y="485"/>
			<point x="517" y="334"/>
			<point x="517" y="261" type="curve" smooth="yes"/>
			<point x="517" y="181"/>
			<point x="397" y="128"/>
			<point x="298" y="128" type="curve" smooth="yes"/>
			<point x="197" y="128"/>
			<point x="151" y="174"/>
			<point x="151" y="250" type="curve" smooth="yes"/>
			<point x="151" y="373"/>
			<point x="223" y="494"/>
			<point x="348" y="642" type="curve"/>
			<point x="320" y="710" type="line"/>
			<point x="162" y="530"/>
			<point x="55" y="340"/>
			<point x="55" y="196" type="curve" smooth="yes"/>
			<point x="55" y="53"/>
			<point x="137" y="-10"/>
		</contour>
	</outline>
</glyph>
<glyph name="uni0666" format="2">
	<advance width="593.25"/>
	<unicode hex="0666"/>
	<outline>
		<contour>
			<point x="386" y="-2" type="curve"/>
			<point x="543" y="19" type="line"/>
			<point x="495" y="200"/>
			<point x="478" y="338"/>
			<point x="474" y="459" type="curve" smooth="yes"/>
			<point x="467" y="627"/>
			<point x="404" y="701"/>
			<point x="246" y="701" type="curve" smooth="yes"/>
			<point x="167" y="701"/>
			<point x="111" y="692"/>
			<point x="35" y="676" type="curve"/>
			<point x="93" y="545" type="line"/>
			<point x="188" y="596"/>
			<point x="245" y="614"/>
			<point x="294" y="614" type="curve" smooth="yes"/>
			<point x="359" y="614"/>
			<point x="383" y="586"/>
			<point x="381" y="485" type="curve" smooth="yes"/>
			<point x="376" y="312"/>
			<point x="375" y="190"/>
		</contour>
	</outline>
</glyph>
<glyph name="uni0667" format="2">
	<advance width="690"/>
	<unicode hex="0667"/>
	<outline>
		<contour>
			<point x="351" y="58" type="curve"/>
			<point x="310" y="-12" type="line"/>
			<point x="404" y="4" type="line"/>
			<point x="459" y="192"/>
			<point x="548" y="438"/>
			<point x="655" y="648" type="curve"/>
			<point x="543" y="671" type="line"/>
			<point x="473" y="478"/>
			<point x="402" y="265"/>
		</contour>
		<contour>
			<point x="310" y="-12" type="curve"/>
			<point x="389" y="52" type="line"/>
			<point x="331" y="306"/>
			<point x="272" y="466"/>
			<point x="184" y="682" type="curve"/>
			<point x="35" y="637" type="line"/>
			<point x="163" y="421"/>
			<point x="247" y="176"/>
		</contour>
	</outline>
</glyph>
<glyph name="uni0668" format="2">
	<advance width="690"/>
	<unicode hex="0668"/>
	<outline>
		<contour>
			<point x="339" y="599" type="curve"/>
			<point x="380" y="669" type="line"/>
			<point x="287" y="653" type="line"/>
			<point x="231" y="465"/>
			<point x="143" y="224"/>
			<point x="35" y="14" type="curve"/>
			<point x="148" y="-8" type="line"/>
			<point x="217" y="185"/>
			<point x="288" y="392"/>
		</contour>
		<contour>
			<point x="380" y="669" type="curve"/>
			<point x="301" y="605" type="line"/>
			<point x="359" y="352"/>
			<point x="418" y="196"/>
			<point x="506" y="-19" type="curve"/>
			<point x="655" y="26" type="line"/>
			<point x="528" y="242"/>
			<point x="443" y="481"/>
		</contour>
	</outline>
</glyph>
<glyph name="uni0669" format="2">
	<advance width="738.5"/>
	<unicode hex="0669"/>
	<outline>
		<contour>
			<point x="226" y="199" type="curve" smooth="yes"/>
			<point x="382" y="199"/>
			<point x="464" y="367"/>
			<point x="466" y="457" type="curve"/>
			<point x="415" y="475" type="line"/>
			<point x="409" y="418"/>
			<point x="351" y="319"/>
			<point x="260" y="319" type="curve" smooth="yes"/>
			<point x="204" y="319"/>
			<point x="170" y="360"/>
			<point x="170" y="411" type="curve" smooth="yes"/>
			<point x="170" y="550"/>
			<point x="370" y="642"/>
			<point x="545" y="592" type="curve"/>
			<point x="560" y="655" type="line"/>
			<point x="319" y="728"/>
			<point x="55" y="606"/>
			<point x="55" y="377" type="curve" smooth="yes"/>
			<point x="55" y="263"/>
			<point x="134" y="199"/>
		</contour>
		<contour>
			<point x="432" y="-9" type="curve"/>
			<point x="584" y="15" type="line"/>
			<point x="524" y="254"/>
			<point x="497" y="430"/>
			<point x="516" y="642" type="curve"/>
			<point x="439" y="631" type="line"/>
			<point x="428" y="588"/>
			<point x="420" y="534"/>
			<point x="415" y="475" type="curve" smooth="yes"/>
			<point x="406" y="342"/>
			<point x="412" y="126"/>
		</contour>
	</outline>
</glyph>
<glyph name="uni066A" format="2">
	<advance width="713"/>
	<unicode hex="066A"/>
	<outline>
		<contour>
			<point x="204" y="-68" type="line"/>
			<point x="623" y="761" type="line"/>
			<point x="515" y="789" type="line"/>
			<point x="115" y="-39" type="line"/>
		</contour>
		<component base="uni0660" xOffset="306" yOffset="-150"/>
		<component base="uni0660" yOffset="260"/>
	</outline>
</glyph>
<glyph name="uni066B" format="2">
	<advance width="299"/>
	<unicode hex="066B"/>
	<outline>
		<contour>
			<point x="136" y="129" type="curve" smooth="yes"/>
			<point x="94" y="129"/>
			<point x="55" y="98"/>
			<point x="55" y="46" type="curve" smooth="yes"/>
			<point x="55" y="-15"/>
			<point x="120" y="-45"/>
			<point x="168" y="-16" type="curve"/>
			<point x="153" y="-55"/>
			<point x="122" y="-88"/>
			<point x="76" y="-120" type="curve"/>
			<point x="150" y="-188" type="line"/>
			<point x="208" y="-139"/>
			<point x="239" y="-54"/>
			<point x="239" y="5" type="curve" smooth="yes"/>
			<point x="239" y="74"/>
			<point x="205" y="129"/>
		</contour>
	</outline>
</glyph>
<glyph name="uni066C" format="2">
	<advance width="265.5"/>
	<unicode hex="066C"/>
	<outline>
		<contour>
			<point x="55" y="-156" type="curve"/>
			<point x="132" y="-184" type="line"/>
			<point x="196" y="-81"/>
			<point x="238" y="-7"/>
			<point x="189" y="140" type="curve"/>
			<point x="56" y="120" type="line"/>
			<point x="104" y="21"/>
			<point x="108" y="-65"/>
		</contour>
	</outline>
</glyph>
<glyph name="uni066E" format="2">
	<advance width="842.5"/>
	<unicode hex="066E"/>
	<anchor x="484" y="-99" name="bottom"/>
	<anchor x="447" y="500" name="top"/>
	<outline>
		<contour>
			<point x="486" y="-7" type="curve" smooth="yes"/>
			<point x="693" y="-7"/>
			<point x="790" y="101"/>
			<point x="790" y="247" type="curve" smooth="yes"/>
			<point x="790" y="301"/>
			<point x="782" y="351"/>
			<point x="765" y="403" type="curve"/>
			<point x="626" y="357" type="line"/>
			<point x="648" y="305"/>
			<point x="661" y="252"/>
			<point x="661" y="209" type="curve" smooth="yes"/>
			<point x="661" y="122"/>
			<point x="598" y="63"/>
			<point x="489" y="63" type="curve" smooth="yes"/>
			<point x="382" y="63"/>
			<point x="228" y="116"/>
			<point x="160" y="298" type="curve"/>
			<point x="35" y="220" type="line"/>
			<point x="152" y="37"/>
			<point x="338" y="-7"/>
		</contour>
	</outline>
</glyph>
<glyph name="uni0670" format="2">
	<advance width="0"/>
	<unicode hex="0670"/>
	<anchor x="51" y="650" name="_top"/>
	<anchor x="51" y="862" name="top"/>
	<outline>
		<contour>
			<point x="30" y="654" type="curve"/>
			<point x="71" y="660" type="line"/>
			<point x="79" y="714"/>
			<point x="86" y="796"/>
			<point x="83" y="857" type="curve"/>
			<point x="20" y="846" type="line"/>
			<point x="29" y="783"/>
			<point x="31" y="714"/>
		</contour>
	</outline>
</glyph>
<glyph name="uni0686" format="2">
	<advance width="637.5"/>
	<unicode hex="0686"/>
	<anchor x="348" y="-94" name="_center"/>
	<anchor x="340" y="-471" name="bottom"/>
	<anchor x="337" y="505" name="top"/>
	<outline>
		<component base="uni062D"/>
		<contour>
			<point x="359" y="-205" type="curve"/>
			<point x="411" y="-151" type="line"/>
			<point x="387" y="-135"/>
			<point x="368" y="-119"/>
			<point x="350" y="-98" type="curve"/>
			<point x="298" y="-153" type="line"/>
			<point x="313" y="-173"/>
			<point x="336" y="-191"/>
		</contour>
		<contour>
			<point x="302" y="-109" type="curve"/>
			<point x="359" y="-50" type="line"/>
			<point x="333" y="-32"/>
			<point x="313" y="-13"/>
			<point x="292" y="10" type="curve"/>
			<point x="235" y="-52" type="line"/>
			<point x="251" y="-74"/>
			<point x="277" y="-94"/>
		</contour>
		<contour>
			<point x="404" y="-109" type="curve"/>
			<point x="461" y="-50" type="line"/>
			<point x="435" y="-32"/>
			<point x="415" y="-13"/>
			<point x="394" y="10" type="curve"/>
			<point x="337" y="-52" type="line"/>
			<point x="354" y="-74"/>
			<point x="379" y="-94"/>
		</contour>
	</outline>
</glyph>
<glyph name="uni06A1" format="2">
	<advance width="945"/>
	<unicode hex="06A1"/>
	<anchor x="664" y="-94" name="bottom"/>
	<anchor x="683" y="550" name="top"/>
	<outline>
		<contour>
			<point x="489" y="-7" type="curve" smooth="yes"/>
			<point x="665" y="-7"/>
			<point x="890" y="89"/>
			<point x="890" y="248" type="curve" smooth="yes"/>
			<point x="890" y="361"/>
			<point x="797" y="425"/>
			<point x="685" y="425" type="curve" smooth="yes"/>
			<point x="527" y="425"/>
			<point x="462" y="330"/>
			<point x="462" y="244" type="curve" smooth="yes"/>
			<point x="462" y="150"/>
			<point x="538" y="88"/>
			<point x="639" y="50" type="curve"/>
			<point x="687" y="95" type="line"/>
			<point x="598" y="127"/>
			<point x="544" y="178"/>
			<point x="544" y="239" type="curve" smooth="yes"/>
			<point x="544" y="286"/>
			<point x="587" y="324"/>
			<point x="652" y="324" type="curve" smooth="yes"/>
			<point x="712" y="324"/>
			<point x="756" y="295"/>
			<point x="756" y="243" type="curve" smooth="yes"/>
			<point x="756" y="150"/>
			<point x="623" y="63"/>
			<point x="492" y="63" type="curve" smooth="yes"/>
			<point x="363" y="63"/>
			<point x="221" y="116"/>
			<point x="155" y="298" type="curve"/>
			<point x="28" y="220" type="line"/>
			<point x="143" y="37"/>
			<point x="317" y="-7"/>
		</contour>
	</outline>
</glyph>
<glyph name="uni06A9" format="2">
	<advance width="826"/>
	<unicode hex="06A9"/>
	<anchor x="538" y="-100" name="bottom"/>
	<anchor x="542" y="785" name="top"/>
	<outline>
		<contour>
			<point x="458" y="-7" type="curve" smooth="yes"/>
			<point x="566" y="-7"/>
			<point x="772" y="35"/>
			<point x="772" y="218" type="curve" smooth="yes"/>
			<point x="772" y="344"/>
			<point x="633" y="419"/>
			<point x="469" y="352" type="curve"/>
			<point x="395" y="336" type="line"/>
			<point x="438" y="261" type="line"/>
			<point x="547" y="338"/>
			<point x="636" y="288"/>
			<point x="636" y="206" type="curve" smooth="yes"/>
			<point x="636" y="99"/>
			<point x="538" y="63"/>
			<point x="461" y="63" type="curve" smooth="yes"/>
			<point x="373" y="63"/>
			<point x="224" y="116"/>
			<point x="160" y="298" type="curve"/>
			<point x="35" y="220" type="line"/>
			<point x="148" y="37"/>
			<point x="329" y="-7"/>
		</contour>
		<contour>
			<point x="395" y="336" type="curve"/>
			<point x="423" y="295" type="line"/>
			<point x="588" y="427"/>
			<point x="692" y="534"/>
			<point x="796" y="692" type="curve"/>
			<point x="675" y="766" type="line"/>
			<point x="613" y="630"/>
			<point x="491" y="440"/>
		</contour>
	</outline>
</glyph>
<glyph name="uni06BA" format="2">
	<advance width="659.5"/>
	<unicode hex="06BA"/>
	<anchor x="314" y="-297" name="bottom"/>
	<anchor x="314" y="550" name="top"/>
	<outline>
		<contour>
			<point x="303" y="-247" type="curve" smooth="yes"/>
			<point x="606" y="-247"/>
			<point x="654" y="73"/>
			<point x="569" y="345" type="curve"/>
			<point x="421" y="324" type="line"/>
			<point x="517" y="82"/>
			<point x="521" y="-182"/>
			<point x="319" y="-182" type="curve" smooth="yes"/>
			<point x="234" y="-182"/>
			<point x="161" y="-130"/>
			<point x="161" y="-31" type="curve" smooth="yes"/>
			<point x="161" y="46"/>
			<point x="206" y="119"/>
			<point x="277" y="165" type="curve"/>
			<point x="208" y="267" type="line"/>
			<point x="111" y="203"/>
			<point x="53" y="108"/>
			<point x="53" y="-3" type="curve" smooth="yes"/>
			<point x="53" y="-142"/>
			<point x="158" y="-247"/>
		</contour>
	</outline>
</glyph>
<glyph name="uni06BE" format="2">
	<advance width="600"/>
	<unicode hex="06BE"/>
	<anchor x="307" y="-100" name="bottom"/>
	<anchor x="315" y="570" name="top"/>
	<outline>
		<contour>
			<point x="357" y="-15" type="curve" smooth="yes"/>
			<point x="482" y="-15"/>
			<point x="548" y="55"/>
			<point x="548" y="151" type="curve" smooth="yes"/>
			<point x="548" y="306"/>
			<point x="385" y="405"/>
			<point x="203" y="458" type="curve"/>
			<point x="127" y="342" type="line"/>
			<point x="311" y="309"/>
			<point x="448" y="242"/>
			<point x="448" y="144" type="curve" smooth="yes"/>
			<point x="448" y="84"/>
			<point x="400" y="54"/>
			<point x="344" y="54" type="curve" smooth="yes"/>
			<point x="249" y="54"/>
			<point x="162" y="117"/>
			<point x="162" y="207" type="curve" smooth="yes"/>
			<point x="162" y="259"/>
			<point x="189" y="294"/>
			<point x="225" y="294" type="curve" smooth="yes"/>
			<point x="256" y="294"/>
			<point x="291" y="274"/>
			<point x="291" y="211" type="curve" smooth="yes"/>
			<point x="291" y="126"/>
			<point x="208" y="54"/>
			<point x="48" y="107" type="curve"/>
			<point x="28" y="-7" type="line"/>
			<point x="241" y="-44"/>
			<point x="369" y="81"/>
			<point x="369" y="215" type="curve" smooth="yes"/>
			<point x="369" y="305"/>
			<point x="308" y="362"/>
			<point x="240" y="362" type="curve" smooth="yes"/>
			<point x="173" y="362"/>
			<point x="103" y="306"/>
			<point x="103" y="203" type="curve" smooth="yes"/>
			<point x="103" y="89"/>
			<point x="206" y="-15"/>
		</contour>
	</outline>
</glyph>
<glyph name="uni06D2" format="2">
	<advance width="775"/>
	<unicode hex="06D2"/>
	<anchor x="300" y="-127" name="bottom"/>
	<anchor x="300" y="550" name="top"/>
	<outline>
		<contour>
			<point x="176" y="-18" type="curve" smooth="yes"/>
			<point x="394" y="-18"/>
			<point x="485" y="7"/>
			<point x="724" y="0" type="curve"/>
			<point x="740" y="129" type="line"/>
			<point x="461" y="129"/>
			<point x="321" y="61"/>
			<point x="198" y="61" type="curve" smooth="yes"/>
			<point x="155" y="61"/>
			<point x="127" y="77"/>
			<point x="127" y="121" type="curve" smooth="yes"/>
			<point x="127" y="207"/>
			<point x="251" y="278"/>
			<point x="348" y="278" type="curve" smooth="yes"/>
			<point x="387" y="278"/>
			<point x="413" y="272"/>
			<point x="443" y="256" type="curve"/>
			<point x="427" y="391" type="line"/>
			<point x="396" y="410"/>
			<point x="364" y="419"/>
			<point x="330" y="419" type="curve" smooth="yes"/>
			<point x="185" y="419"/>
			<point x="35" y="254"/>
			<point x="35" y="97" type="curve" smooth="yes"/>
			<point x="35" y="9"/>
			<point x="101" y="-18"/>
		</contour>
	</outline>
</glyph>
<glyph name="uni06D4" format="2">
	<advance width="320"/>
	<unicode hex="06D4"/>
	<outline>
		<contour>
			<point x="45" y="90" type="curve"/>
			<point x="40" y="26" type="line"/>
			<point x="109" y="23"/>
			<point x="198" y="21"/>
			<point x="272" y="26" type="curve"/>
			<point x="277" y="90" type="line"/>
			<point x="192" y="82"/>
			<point x="125" y="82"/>
		</contour>
	</outline>
</glyph>
<glyph name="uni06F4" format="2">
	<advance width="690.5"/>
	<unicode hex="06F4"/>
	<outline>
		<contour>
			<point x="119" y="0" type="curve"/>
			<point x="202" y="14" type="line"/>
			<point x="226" y="149"/>
			<point x="235" y="348"/>
			<point x="233" y="515" type="curve" smooth="yes"/>
			<point x="232" y="588"/>
			<point x="228" y="625"/>
			<point x="221" y="685" type="curve"/>
			<point x="70" y="650" type="line"/>
			<point x="124" y="427"/>
			<point x="133" y="206"/>
		</contour>
		<contour>
			<point x="608" y="278" type="curve"/>
			<point x="582" y="399" type="line"/>
			<point x="466" y="334"/>
			<point x="237" y="368"/>
			<point x="233" y="515" type="curve"/>
			<point x="213" y="454" type="line"/>
			<point x="213" y="285"/>
			<point x="423" y="244"/>
		</contour>
		<contour>
			<point x="586" y="308" type="curve"/>
			<point x="582" y="399" type="line"/>
			<point x="555" y="388"/>
			<point x="513" y="382"/>
			<point x="481" y="382" type="curve" smooth="yes"/>
			<point x="415" y="382"/>
			<point x="361" y="419"/>
			<point x="361" y="485" type="curve" smooth="yes"/>
			<point x="361" y="546"/>
			<point x="415" y="568"/>
			<point x="467" y="568" type="curve" smooth="yes"/>
			<point x="512" y="568"/>
			<point x="557" y="557"/>
			<point x="595" y="536" type="curve"/>
			<point x="646" y="654" type="line"/>
			<point x="573" y="678"/>
			<point x="524" y="689"/>
			<point x="457" y="689" type="curve" smooth="yes"/>
			<point x="345" y="689"/>
			<point x="273" y="625"/>
			<point x="273" y="521" type="curve" smooth="yes"/>
			<point x="273" y="364"/>
			<point x="426" y="308"/>
		</contour>
	</outline>
</glyph>
<glyph name="uni06F5" format="2">
	<advance width="654"/>
	<unicode hex="06F5"/>
	<outline>
		<contour>
			<point x="192" y="-8" type="curve" smooth="yes"/>
			<point x="255" y="-8"/>
			<point x="286" y="27"/>
			<point x="312" y="57" type="curve"/>
			<point x="343" y="30"/>
			<point x="378" y="0"/>
			<point x="438" y="0" type="curve" smooth="yes"/>
			<point x="558" y="0"/>
			<point x="599" y="158"/>
			<point x="599" y="287" type="curve" smooth="yes"/>
			<point x="599" y="457"/>
			<point x="506" y="593"/>
			<point x="332" y="710" type="curve"/>
			<point x="262" y="568" type="line"/>
			<point x="456" y="485"/>
			<point x="529" y="334"/>
			<point x="529" y="250" type="curve" smooth="yes"/>
			<point x="529" y="199"/>
			<point x="499" y="138"/>
			<point x="432" y="138" type="curve" smooth="yes"/>
			<point x="370" y="138"/>
			<point x="361" y="186"/>
			<point x="338" y="186" type="curve" smooth="yes"/>
			<point x="315" y="186"/>
			<point x="298" y="132"/>
			<point x="244" y="132" type="curve" smooth="yes"/>
			<point x="190" y="132"/>
			<point x="153" y="160"/>
			<point x="153" y="228" type="curve" smooth="yes"/>
			<point x="153" y="362"/>
			<point x="234" y="494"/>
			<point x="359" y="642" type="curve"/>
			<point x="332" y="710" type="line"/>
			<point x="173" y="530"/>
			<point x="55" y="355"/>
			<point x="55" y="171" type="curve" smooth="yes"/>
			<point x="55" y="58"/>
			<point x="107" y="-8"/>
		</contour>
	</outline>
</glyph>
<glyph name="uni06F6" format="2">
	<advance width="530.5"/>
	<unicode hex="06F6"/>
	<outline>
		<contour>
			<point x="53" y="7" type="curve"/>
			<point x="198" y="-10" type="line"/>
			<point x="198" y="245"/>
			<point x="303" y="308"/>
			<point x="434" y="308" type="curve"/>
			<point x="415" y="369" type="line"/>
			<point x="163" y="369"/>
			<point x="72" y="181"/>
		</contour>
		<contour>
			<point x="434" y="308" type="curve"/>
			<point x="422" y="409" type="line"/>
			<point x="380" y="400"/>
			<point x="353" y="397"/>
			<point x="321" y="397" type="curve" smooth="yes"/>
			<point x="264" y="397"/>
			<point x="201" y="425"/>
			<point x="201" y="488" type="curve" smooth="yes"/>
			<point x="201" y="546"/>
			<point x="255" y="568"/>
			<point x="307" y="568" type="curve" smooth="yes"/>
			<point x="352" y="568"/>
			<point x="397" y="557"/>
			<point x="435" y="536" type="curve"/>
			<point x="486" y="654" type="line"/>
			<point x="413" y="678"/>
			<point x="364" y="689"/>
			<point x="297" y="689" type="curve" smooth="yes"/>
			<point x="185" y="689"/>
			<point x="113" y="625"/>
			<point x="113" y="512" type="curve" smooth="yes"/>
			<point x="113" y="364"/>
			<point x="270" y="308"/>
		</contour>
	</outline>
</glyph>
<glyph name="endash" format="2">
	<advance width="488"/>
	<unicode hex="2013"/>
	<outline>
		<contour>
			<point x="44" y="364" type="curve"/>
			<point x="41" y="244" type="line"/>
			<point x="176" y="243"/>
			<point x="312" y="247"/>
			<point x="448" y="258" type="curve"/>
			<point x="447" y="351" type="line"/>
			<point x="312" y="349"/>
			<point x="177" y="353"/>
		</contour>
	</outline>
</glyph>
<glyph name="emdash" format="2">
	<advance width="789"/>
	<unicode hex="2014"/>
	<outline>
		<contour>
			<point x="43" y="366" type="curve"/>
			<point x="41" y="245" type="line"/>
			<point x="277" y="254"/>
			<point x="513" y="256"/>
			<point x="749" y="253" type="curve"/>
			<point x="747" y="353" type="line"/>
			<point x="513" y="364"/>
			<point x="278" y="368"/>
		</contour>
	</outline>
</glyph>
<glyph name="quotesinglbase" format="2">
	<advance width="265.75"/>
	<unicode hex="201A"/>
	<outline>
		<contour>
			<point x="66" y="-141" type="curve"/>
			<point x="137" y="-134" type="line"/>
			<point x="178" y="-36"/>
			<point x="201" y="66"/>
			<point x="199" y="164" type="curve"/>
			<point x="82" y="147" type="line"/>
			<point x="94" y="51"/>
			<point x="79" y="-45"/>
		</contour>
	</outline>
</glyph>
<glyph name="dagger" format="2">
	<advance width="531"/>
	<unicode hex="2020"/>
	<outline>
		<contour>
			<point x="198" y="-210" type="curve"/>
			<point x="285" y="-203" type="line"/>
			<point x="298" y="143"/>
			<point x="297" y="468"/>
			<point x="285" y="774" type="curve"/>
			<point x="178" y="757" type="line"/>
			<point x="197" y="455"/>
			<point x="204" y="132"/>
		</contour>
		<contour>
			<point x="491" y="359" type="curve"/>
			<point x="488" y="473" type="line"/>
			<point x="370" y="475"/>
			<point x="160" y="471"/>
			<point x="42" y="461" type="curve"/>
			<point x="41" y="374" type="line"/>
			<point x="160" y="375"/>
			<point x="371" y="370"/>
		</contour>
	</outline>
</glyph>
<glyph name="daggerdbl" format="2">
	<advance width="513"/>
	<unicode hex="2021"/>
	<outline>
		<contour>
			<point x="199" y="-210" type="curve"/>
			<point x="286" y="-203" type="line"/>
			<point x="299" y="143"/>
			<point x="298" y="468"/>
			<point x="286" y="774" type="curve"/>
			<point x="180" y="757" type="line"/>
			<point x="198" y="455"/>
			<point x="205" y="132"/>
		</contour>
		<contour>
			<point x="41" y="133" type="curve"/>
			<point x="44" y="19" type="line"/>
			<point x="156" y="17"/>
			<point x="359" y="21"/>
			<point x="472" y="32" type="curve"/>
			<point x="473" y="119" type="line"/>
			<point x="358" y="117"/>
			<point x="155" y="122"/>
		</contour>
		<contour>
			<point x="473" y="399" type="curve"/>
			<point x="470" y="513" type="line"/>
			<point x="357" y="515"/>
			<point x="154" y="511"/>
			<point x="42" y="501" type="curve"/>
			<point x="41" y="414" type="line"/>
			<point x="155" y="415"/>
			<point x="358" y="410"/>
		</contour>
	</outline>
</glyph>
<glyph name="bullet" format="2">
	<advance width="346"/>
	<unicode hex="2022"/>
	<outline>
		<contour>
			<point x="181" y="210" type="curve" smooth="yes"/>
			<point x="250" y="210"/>
			<point x="304" y="265"/>
			<point x="304" y="334" type="curve" smooth="yes"/>
			<point x="304" y="403"/>
			<point x="250" y="458"/>
			<point x="181" y="458" type="curve" smooth="yes"/>
			<point x="112" y="458"/>
			<point x="57" y="403"/>
			<point x="57" y="334" type="curve" smooth="yes"/>
			<point x="57" y="265"/>
			<point x="112" y="210"/>
		</contour>
	</outline>
</glyph>
<glyph name="perthousand" format="2">
	<advance width="1196.5"/>
	<unicode hex="2030"/>
	<outline>
		<component base="percent"/>
		<contour>
			<point x="1010" y="-6" type="curve" smooth="yes"/>
			<point x="1081" y="-6"/>
			<point x="1156" y="58"/>
			<point x="1156" y="186" type="curve" smooth="yes"/>
			<point x="1156" y="314"/>
			<point x="1081" y="379"/>
			<point x="1012" y="379" type="curve" smooth="yes"/>
			<point x="942" y="379"/>
			<point x="868" y="315"/>
			<point x="868" y="184" type="curve" smooth="yes"/>
			<point x="868" y="57"/>
			<point x="941" y="-6"/>
		</contour>
		<contour>
			<point x="1010" y="74" type="curve" smooth="yes"/>
			<point x="973" y="74"/>
			<point x="948" y="113"/>
			<point x="948" y="195" type="curve" smooth="yes"/>
			<point x="948" y="273"/>
			<point x="970" y="313"/>
			<point x="1011" y="313" type="curve" smooth="yes"/>
			<point x="1055" y="313"/>
			<point x="1079" y="272"/>
			<point x="1079" y="196" type="curve" smooth="yes"/>
			<point x="1079" y="117"/>
			<point x="1051" y="74"/>
		</contour>
	</outline>
</glyph>
<glyph name="guilsinglleft" format="2">
	<advance width="341.25"/>
	<unicode hex="2039"/>
	<outline>
		<contour>
			<point x="103" y="349" type="line"/>
			<point x="294" y="551" type="line"/>
			<point x="259" y="644" type="line"/>
			<point x="41" y="365" type="line"/>
		</contour>
		<contour>
			<point x="258" y="120" type="line"/>
			<point x="301" y="205" type="line"/>
			<point x="89" y="402" type="line"/>
			<point x="41" y="365" type="line"/>
		</contour>
	</outline>
</glyph>
<glyph name="fraction" format="2">
	<advance width="528"/>
	<unicode hex="2044"/>
	<outline>
		<contour>
			<point x="86" y="-21" type="line"/>
			<point x="496" y="810" type="line"/>
			<point x="435" y="852" type="line"/>
			<point x="24" y="28" type="line"/>
		</contour>
	</outline>
</glyph>
<glyph name="Euro" format="2">
	<advance width="685.25"/>
	<unicode hex="20AC"/>
	<outline>
		<contour>
			<point x="419" y="-2" type="curve" smooth="yes"/>
			<point x="487" y="-2"/>
			<point x="556" y="11"/>
			<point x="620" y="48" type="curve"/>
			<point x="619" y="120" type="line"/>
			<point x="561" y="91"/>
			<point x="507" y="77"/>
			<point x="433" y="77" type="curve" smooth="yes"/>
			<point x="315" y="77"/>
			<point x="199" y="163"/>
			<point x="199" y="351" type="curve" smooth="yes"/>
			<point x="199" y="519"/>
			<point x="315" y="635"/>
			<point x="464" y="635" type="curve" smooth="yes"/>
			<point x="518" y="635"/>
			<point x="575" y="625"/>
			<point x="631" y="599" type="curve"/>
			<point x="645" y="700" type="line"/>
			<point x="594" y="731"/>
			<point x="524" y="748"/>
			<point x="450" y="748" type="curve" smooth="yes"/>
			<point x="265" y="748"/>
			<point x="57" y="638"/>
			<point x="57" y="356" type="curve" smooth="yes"/>
			<point x="57" y="138"/>
			<point x="230" y="-2"/>
		</contour>
		<contour>
			<point x="9" y="285" type="curve"/>
			<point x="6" y="194" type="line"/>
			<point x="142" y="193"/>
			<point x="277" y="196"/>
			<point x="413" y="207" type="curve"/>
			<point x="412" y="273" type="line"/>
			<point x="278" y="270"/>
			<point x="143" y="275"/>
		</contour>
		<contour>
			<point x="422" y="379" type="curve"/>
			<point x="419" y="478" type="line"/>
			<point x="285" y="467"/>
			<point x="150" y="463"/>
			<point x="16" y="464" type="curve"/>
			<point x="16" y="394" type="line"/>
			<point x="151" y="383"/>
			<point x="286" y="378"/>
		</contour>
	</outline>
</glyph>
